<svg width="99" height="60" viewBox="0 0 99 60" fill="none" xmlns="http://www.w3.org/2000/svg">
<g clip-path="url(#clip0_6_1976)">
<path d="M39.7644 25.6726C39.0872 25.8164 38.458 25.9046 37.0883 25.9046C35.1047 25.9046 32.832 24.7219 32.832 20.3689V19.7721C32.832 15.3831 35.1057 14.2363 37.0883 14.2363C37.9967 14.2527 38.9018 14.3485 39.7971 14.5228C39.9422 14.5402 40.0556 14.5946 40.0556 14.7547V15.6685C40.0556 15.7763 40.0229 15.8656 39.8615 15.8656H39.8135C39.2333 15.8122 38.0403 15.7044 37.1047 15.7044C35.5245 15.7044 34.2988 16.7259 34.2988 19.771V20.3678C34.2988 23.3769 35.5245 24.4344 37.1047 24.4344C38.024 24.4344 39.1843 24.3451 39.7644 24.2917H39.8288C39.9509 24.2688 40.0665 24.3603 40.0861 24.4953C40.0905 24.5226 40.0905 24.5509 40.0861 24.5781V25.3121C40.0872 25.53 39.9422 25.6367 39.7644 25.6726Z" fill="#44BE4C"/>
<path d="M51.7772 25.7805H50.8263C50.6976 25.7816 50.5853 25.6857 50.5526 25.5485L49.5046 21.9916H45.329L44.2974 25.5485C44.2527 25.6846 44.1382 25.7772 44.0073 25.7805H43.0564C42.9223 25.799 42.8001 25.6933 42.7838 25.5441C42.7838 25.5409 42.7827 25.5365 42.7827 25.5333C42.7805 25.4962 42.786 25.4592 42.7991 25.4243L45.7816 15.3592C46.0553 14.4161 46.8132 14.1841 47.4261 14.1841C48.0226 14.1841 48.7805 14.4008 49.0542 15.3439L52.0368 25.4254C52.0499 25.4592 52.0553 25.4973 52.0531 25.5343C52.051 25.6716 51.955 25.7805 51.7772 25.7805ZM47.7303 15.6826C47.702 15.5193 47.5733 15.4027 47.4239 15.4038C47.2691 15.3962 47.1327 15.5149 47.1011 15.6826L45.6573 20.688H49.1764L47.7303 15.6826Z" fill="#44BE4C"/>
<path d="M64.5003 25.7806H63.6137C63.4447 25.7708 63.3149 25.6107 63.3237 25.4223V14.7037C63.316 14.524 63.4403 14.3715 63.6017 14.3628C63.6061 14.3628 63.6094 14.3628 63.6137 14.3628H64.5003C64.6617 14.3639 64.7926 14.5109 64.7904 14.6906C64.7904 14.695 64.7904 14.6993 64.7904 14.7037V25.4223C64.8002 25.6096 64.6704 25.7708 64.5003 25.7806Z" fill="#44BE4C"/>
<path d="M75.8798 25.7806H74.8798C74.6213 25.7806 74.4447 25.6728 74.364 25.4942L69.3825 16.872C69.3662 16.8361 69.3498 16.8186 69.3345 16.8186C69.3193 16.8186 69.3182 16.8361 69.3182 16.872V25.4408C69.3204 25.6227 69.1917 25.774 69.0281 25.7817H68.1895C68.0281 25.7817 67.8994 25.7457 67.8994 25.5671V14.8659C67.9005 14.5871 68.1055 14.3628 68.3563 14.3639C68.3596 14.3639 68.3629 14.3639 68.3672 14.3639H69.2538C69.7053 14.3639 69.786 14.4532 69.9147 14.7222L74.8645 23.291L74.8972 23.3443C74.9136 23.3443 74.9136 23.3084 74.9136 23.291V14.7037C74.9114 14.5218 75.0401 14.3704 75.2037 14.3628H76.0586C76.22 14.3639 76.3509 14.5109 76.3487 14.6906C76.3487 14.695 76.3487 14.6993 76.3487 14.7037V25.2611C76.3465 25.5475 76.1382 25.7806 75.8798 25.7806Z" fill="#44BE4C"/>
<path d="M83.5972 25.9056C81.0661 25.9056 79.2275 24.2578 79.2275 20.2805V19.8623C79.2275 15.8851 81.0651 14.2373 83.5972 14.2373C86.1294 14.2373 87.9505 15.8851 87.9505 19.8623V20.2805C87.9505 24.2567 86.1294 25.9056 83.5972 25.9056ZM86.4674 19.8623C86.4674 16.8522 85.3715 15.7065 83.5972 15.7065C81.8404 15.7065 80.7117 16.8532 80.7117 19.8623V20.2805C80.7117 23.2896 81.8241 24.4364 83.5972 24.4364C85.354 24.4364 86.4674 23.2896 86.4674 20.2805V19.8623Z" fill="#44BE4C"/>
<path d="M58.2516 19.6447L56.7816 18.8116C55.714 18.1287 55.2385 17.7062 55.2385 17.0146C55.2385 16.0214 55.8819 15.6163 57.4588 15.6163C58.0858 15.6163 58.9135 15.6533 59.9244 15.7263H59.9528C60.0935 15.7426 60.2189 15.6282 60.2331 15.4725C60.2342 15.4616 60.2342 15.4518 60.2342 15.4409V14.7886C60.2342 14.6786 60.1862 14.537 59.9583 14.4891C59.1295 14.3638 58.2952 14.2963 57.4588 14.2876C55.1273 14.2876 53.8438 15.2558 53.8438 17.0135C53.8438 18.3302 54.642 19.1143 55.8427 19.8865L57.3825 20.7806C58.6376 21.5974 59.0837 22.0222 59.0837 22.7758C59.0837 23.9509 58.3334 24.5227 56.7914 24.5227C56.1458 24.5227 55.1077 24.4736 54.4261 24.4116H54.3836C54.2451 24.3941 54.1197 24.5041 54.1033 24.6588C54.1022 24.6719 54.1011 24.6838 54.1022 24.6969V25.3035C54.1022 25.4941 54.148 25.5703 54.4065 25.6183L54.4174 25.6204C55.2014 25.7696 55.9953 25.847 56.7914 25.8513C60.2516 25.8513 60.521 23.4978 60.521 22.7769C60.521 21.5343 59.9059 20.6859 58.2516 19.6447Z" fill="#44BE4C"/>
<path d="M49.4219 27.624H44.4524C44.1711 27.6251 43.9432 27.8778 43.9432 28.1904V40.5632C43.9432 42.8002 42.7196 43.2816 41.3946 43.2816C40.0697 43.2816 38.8461 42.8002 38.8461 40.5632V28.1904C38.845 27.8778 38.6171 27.6251 38.3368 27.624H33.3684C33.0827 27.6229 32.8461 27.8723 32.833 28.1904V40.5632C32.833 47.8404 37.4459 48.9447 41.3957 48.9447C45.3456 48.9447 49.9584 47.8404 49.9584 40.5632V28.1904C49.9453 27.8713 49.7087 27.6219 49.4219 27.624Z" fill="white"/>
<path d="M87.1954 27.624H82.226C81.9446 27.6251 81.7167 27.8778 81.7167 28.1904V40.5632C81.7167 42.8002 80.4931 43.2816 79.1682 43.2816C77.8432 43.2816 76.6196 42.8002 76.6196 40.5632V28.1904C76.6186 27.8778 76.3906 27.6251 76.1104 27.624H71.1409C70.8552 27.6229 70.6186 27.8723 70.6055 28.1904V40.5632C70.6055 47.8404 75.2183 48.9447 79.1682 48.9447C83.1191 48.9447 87.7309 47.8404 87.7309 40.5632V28.1904C87.7178 27.8723 87.4811 27.6219 87.1954 27.624Z" fill="white"/>
<path d="M65.473 40.449C66.8492 39.7694 68.4032 37.9855 68.4032 34.9557V34.3905C68.4032 29.0388 65.2178 27.3398 60.0957 27.3398C58.3378 27.3398 54.5319 27.5381 53.6649 27.6796C52.2887 27.9345 51.8809 28.3309 51.8809 30.0865V48.0942C51.8939 48.4122 52.1295 48.6616 52.4163 48.6605H57.3858C57.6671 48.6594 57.895 48.4068 57.895 48.0942V41.4411H59.5602L62.593 48.0953C62.7206 48.3785 62.822 48.6616 63.2811 48.6616H68.6071C68.8591 48.6627 69.0641 48.4373 69.0662 48.1574C69.0662 48.1552 69.0662 48.1541 69.0662 48.1519C69.0619 48.043 69.0357 47.9363 68.9899 47.8405L65.473 40.449ZM62.4152 34.9851C62.4152 35.7496 61.931 36.4858 60.6562 36.4858H57.895V32.9191H60.6562C61.9561 32.9191 62.4152 33.4571 62.4152 34.4199V34.9851Z" fill="white"/>
<path d="M24.577 30.0313C26.4843 30.0814 29.0994 30.236 30.023 30.3732C30.4538 30.4419 30.5465 30.2709 30.5465 29.7579V24.733C30.5465 24.2886 30.5159 24.1863 29.9009 23.9815C28.902 23.6537 26.6097 23.2322 24.1408 23.0351C23.7046 23.0057 23.2564 22.9883 22.8148 22.9883C21.7733 22.9883 20.8322 23.0732 20.2989 23.2148H20.2978C20.3142 23.3586 20.3044 23.5045 20.2695 23.6439C20.1375 24.1688 19.697 24.452 19.4451 24.574C18.6555 24.9475 17.8453 25.2623 17.0187 25.5171C16.264 25.834 15.6828 25.9876 15.2411 25.9876C15.0492 25.9919 14.8595 25.9549 14.6806 25.8787C13.4516 27.069 12.3186 28.8322 11.6119 31.4939C11.468 32.4915 11.3982 33.5 11.4025 34.5106V37.4162C11.4025 47.2614 17.2793 49.005 21.1866 49.005C24.0787 49.005 28.0219 48.4921 29.8987 48.0477C30.4527 47.9116 30.5443 47.8767 30.5443 47.2952V35.3165C30.5432 34.9168 30.252 34.5945 29.8933 34.5923H22.2084C21.8802 34.5814 21.6054 34.8678 21.5934 35.2327V38.2243C21.6054 38.5892 21.8802 38.8745 22.2084 38.8647H24.047C24.155 38.8647 24.2422 38.9616 24.2422 39.0814V41.7333C24.2433 41.8869 24.1365 42.0132 23.998 42.0241C23.2924 42.0742 21.4243 42.0992 21.1877 42.0992C20.2651 42.0992 18.757 41.9631 18.757 37.4849V34.5095C18.757 30.7501 20.6392 29.9289 24.577 30.0313Z" fill="white"/>
<path d="M14.0279 24.4051C14.0312 24.3452 14.0345 24.2755 14.0323 24.244C14.0225 24.0664 14.0235 23.7942 14.0246 23.3836C14.0246 23.2986 14.0246 23.2072 14.0246 23.1113C10.1675 26.7662 9.99083 29.796 10.2198 31.2565C10.2515 31.4612 10.523 31.5875 10.7586 31.5875C10.9232 31.5875 11.0704 31.5255 11.1075 31.3861C11.8283 28.6373 12.9952 26.7935 14.2646 25.5367C13.9974 25.1653 14.0148 24.6948 14.0279 24.4051Z" fill="#44BE4C"/>
<path d="M7.28097 12.8128C7.31042 12.8128 7.33877 12.8041 7.36494 12.7878C8.18828 12.2607 9.39003 11.5974 10.2406 11.1651C10.3868 10.6336 10.5416 10.0989 10.7052 9.57178C9.42492 10.149 7.9102 11.3012 7.14575 12.5264C7.0945 12.6103 7.11413 12.7246 7.18937 12.7813C7.21663 12.8009 7.24826 12.8118 7.28097 12.8128Z" fill="#44BE4C"/>
<path d="M14.8868 9.29837C15.4549 9.22867 16.0263 9.19164 16.5989 9.18619C17.8453 9.18401 19.082 9.42688 20.2521 9.90498C20.2815 9.91587 20.3121 9.91805 20.3426 9.91042C20.8115 9.78518 21.2913 9.71875 21.7733 9.71439C22.1899 9.71984 22.6054 9.76667 23.0143 9.85597C23.0252 9.85815 23.0351 9.85924 23.046 9.85924C23.1376 9.85706 23.2095 9.77211 23.2074 9.67083C23.2063 9.60984 23.1779 9.5543 23.1321 9.52054C21.5651 8.39226 19.1779 8.06445 17.0601 8.06445C15.9446 8.06445 14.8311 8.15158 13.7275 8.32474C14.0874 8.61661 14.48 8.94769 14.8868 9.29837Z" fill="#44BE4C"/>
<path d="M19.3178 10.0979C18.6024 9.74176 17.6341 9.65137 16.7518 9.65137C16.2339 9.65137 15.7486 9.68186 15.3604 9.70909C15.9394 10.2155 16.537 10.7513 17.1117 11.2741C17.8162 10.9321 18.5436 10.649 19.2862 10.4279C19.4585 10.3789 19.4803 10.1785 19.3178 10.0979Z" fill="#44BE4C"/>
<path d="M17.9189 12.0158C19.0585 13.0689 20.0007 13.9696 20.3519 14.329C22.3846 14.3431 24.8666 14.5784 26.9364 15.943C26.9626 15.9604 26.992 15.9691 27.0225 15.9691C27.112 15.9691 27.185 15.8918 27.1883 15.7927C27.2548 14.097 26.7783 12.3904 25.7826 11.6695C24.7728 10.8941 23.5743 10.4791 22.3475 10.478C21.148 10.478 19.667 10.8592 17.9189 12.0158Z" fill="#44BE4C"/>
<path d="M9.55445 21.287C9.54245 21.2707 9.52828 21.2543 9.51628 21.238C8.80527 20.2992 8.52174 19.049 8.74856 17.8477L8.79109 17.6223C8.79982 17.5744 8.80963 17.5232 8.82054 17.4688L8.77146 17.5123C8.7671 17.5156 8.76383 17.5199 8.75947 17.5243C3.07462 23.659 4.56099 28.4095 6.34398 30.5659C6.37343 30.6029 6.41705 30.6247 6.46176 30.6247C6.55336 30.6247 6.62751 30.543 6.62861 30.4417C6.62861 30.4297 6.62751 30.4167 6.62533 30.4047C6.37015 28.9704 6.34943 26.9687 7.16623 25.0824C7.71039 23.8245 8.59044 22.5797 9.55445 21.287Z" fill="#44BE4C"/>
<path d="M27.0216 17.0472C25.1797 15.7653 23.0587 15.065 20.8853 15.0215C21.4502 15.9929 21.5429 17.2138 21.1307 18.2767C20.978 18.6884 20.7632 19.0696 20.4971 19.4028C24.304 19.7535 26.3509 22.2202 26.6301 22.6722C26.6476 22.7114 26.6803 22.7408 26.7195 22.7506C27.1863 22.8192 27.3706 22.8475 27.8984 22.9401C27.906 22.9412 27.9136 22.9423 27.9213 22.9423C28.0325 22.9423 28.099 22.7942 28.0816 22.6635C27.8875 21.1965 26.5374 20.4908 25.7697 19.7622C25.6999 19.6958 25.6923 19.5792 25.7522 19.5019C25.7828 19.4627 25.8264 19.4398 25.8733 19.4377C25.894 19.4377 25.9136 19.442 25.9322 19.4496C27.1841 19.9626 27.6487 21.4862 28.2168 21.6452C28.2277 21.6485 28.2397 21.6496 28.2517 21.6506C28.3379 21.6463 28.4066 21.57 28.4109 21.4742C28.5254 18.9933 27.9649 17.718 27.0216 17.0472Z" fill="#44BE4C"/>
<path d="M19.7777 20.4449C19.6131 20.4449 19.4538 20.4481 19.3001 20.4557H19.2924C19.2575 20.4557 19.2237 20.4438 19.1965 20.4209C19.0078 20.5026 18.8137 20.5657 18.6152 20.6093C19.3437 21.5786 19.9042 22.3344 20.0678 22.5914C20.0863 22.6208 20.1005 22.6491 20.1169 22.6774C20.1376 22.672 20.1605 22.6666 20.1801 22.6622C20.7461 22.5119 21.7199 22.4204 22.8137 22.4204C23.4702 22.4204 24.1703 22.4531 24.853 22.5261C24.8584 22.5261 24.865 22.5272 24.8704 22.5272C24.9631 22.5293 25.0405 22.4477 25.0427 22.3442C25.0438 22.293 25.0264 22.2429 24.9936 22.207C23.612 20.8184 21.4364 20.4449 19.7777 20.4449Z" fill="#44BE4C"/>
<path d="M4.51038 18.7082C4.55618 18.7082 4.60089 18.6864 4.63142 18.6472C5.80154 17.2085 7.76883 15.5139 9.42313 14.5022C9.60961 13.656 9.8288 12.7216 10.0807 11.7632C8.52455 12.7651 6.78409 14.0186 6.25956 14.5458C5.58562 15.2232 4.30427 16.9667 4.34571 18.5317C4.3468 18.6308 4.42095 18.7093 4.51038 18.7082Z" fill="#44BE4C"/>
<path d="M9.04493 16.3069C9.10709 15.9954 9.17579 15.6545 9.25321 15.2886C7.95987 16.1272 6.07219 17.642 4.62181 19.6808C4.61963 19.6841 4.61745 19.6884 4.61417 19.6917C4.18233 20.3974 2.75376 22.3294 3.83882 24.5369C3.88244 24.6262 3.98277 24.6589 4.06347 24.611C4.10818 24.5838 4.13871 24.5358 4.14743 24.4803C4.37535 22.8946 5.18124 19.8681 9.04493 16.3069Z" fill="#44BE4C"/>
<path d="M13.008 22.9021C12.8673 22.9228 12.7266 22.9337 12.5848 22.9348C11.6797 22.913 10.8073 22.5492 10.1137 21.9023C8.81385 23.4445 7.76914 25.5649 7.5434 27.0177C7.12356 29.7251 7.65573 31.9915 9.50305 33.2646C9.52814 33.282 9.55758 33.2918 9.58702 33.2918C9.67863 33.2907 9.75278 33.2069 9.75169 33.1045C9.75169 33.0882 9.74951 33.0718 9.74515 33.0555C8.3711 27.8356 11.1901 24.9441 13.008 22.9021Z" fill="#44BE4C"/>
<path d="M18.0052 20.6813C17.9899 20.6813 17.9757 20.6835 17.9604 20.6835C17.1873 20.6661 16.4348 20.4025 15.7925 19.9233C15.5275 20.8937 15.0935 21.656 14.5319 22.1723C14.5395 23.2722 14.5253 23.9213 14.5406 24.2099C14.5613 24.5845 14.3378 25.4188 15.2407 25.4188C15.5886 25.4188 16.1022 25.2946 16.8623 24.9744C17.6725 24.7272 18.4675 24.419 19.2407 24.052C19.5668 23.8952 20.0335 23.5173 19.6507 22.9194C19.4773 22.6449 18.7587 21.6822 18.0052 20.6813Z" fill="#FCEE21"/>
<path d="M12.5856 22.3682C13.8615 22.3682 15.096 21.4109 15.4766 18.9561C16.3424 19.7816 17.1974 20.1182 17.9618 20.1182C20.361 20.1182 21.8768 16.8063 20.1058 14.8482C19.6085 14.2982 13.3806 8.43355 11.9084 7.67773C10.4362 11.4535 9.48855 16.6963 9.24645 17.9651C8.7928 20.349 10.7328 22.3682 12.5856 22.3682Z" fill="#FCEE21"/>
<path d="M2.89392 1.40186H0.712891V55.2791H2.89392V1.40186Z" fill="#44BE4C"/>
<path d="M93.3034 0H90.4561V57.5267H93.3034V0Z" fill="#44BE4C"/>
<path d="M93.3021 -0.0458984V27.8876C92.8157 28.4016 92.3337 28.9429 91.856 29.5114V2.79984H1.44602V54.6819H73.2552C73.5878 55.6327 73.9051 56.5813 74.2148 57.5277H0V-0.0458984H93.3021Z" fill="#44BE4C"/>
<path d="M90.4567 36.3485V54.7036H73.5733C72.8471 55.6489 72.1306 56.6062 71.4229 57.5755H93.3029V33.8447C92.3454 34.6626 91.3967 35.4979 90.4567 36.3485Z" fill="#44BE4C"/>
<path d="M78.7031 51.8385C78.8929 50.7919 79.7511 49.5438 81.4567 49.7192C82.8154 49.9577 84.0128 50.989 85.0586 52.762C89.3062 45.7604 93.0652 40.8607 98.4349 38.6368C98.918 38.4778 99.1797 38.4789 98.8569 38.9069C93.5668 43.9188 89.0172 50.8845 85.7696 59.3084C85.6933 59.5055 85.3563 59.5241 85.2244 59.3302C83.7915 57.3013 82.7195 55.2908 81.2865 53.2608C80.6333 52.2033 79.8634 51.4704 78.7031 51.8363V51.8385Z" fill="#FCEE21"/>
</g>
<defs>
<clipPath id="clip0_6_1976">
<rect width="99" height="60" fill="white"/>
</clipPath>
</defs>
</svg>
