<svg width="47" height="32" viewBox="0 0 47 32" fill="none" xmlns="http://www.w3.org/2000/svg">
<path d="M42.4142 29.4876H41.9049H41.6423V28.8638H41.9924C42.2609 28.8498 42.5323 28.8646 42.7882 28.907C42.9968 28.957 43.1251 29.0634 43.1144 29.1777C43.1162 29.269 43.0373 29.3561 42.8982 29.4164C42.7591 29.4767 42.5737 29.5041 42.3903 29.4916M43.8943 29.1855C43.9107 28.9915 43.7395 28.8052 43.4328 28.6834C43.0593 28.559 42.6057 28.5073 42.1595 28.5382H40.8783V30.5626H41.6741V29.8172H42.3585L43.1542 30.5705H44.0296L43.1144 29.7466C43.606 29.6718 43.9331 29.4428 43.9102 29.1895M42.3187 31.1512C40.5607 31.1512 39.1356 30.4485 39.1356 29.5818C39.1356 28.7151 40.5607 28.0125 42.3187 28.0125C44.0766 28.0125 45.5018 28.7151 45.5018 29.5818C45.5018 30.4485 44.0766 31.1512 42.3187 31.1512ZM42.3187 27.6201C40.1212 27.6201 38.3398 28.4984 38.3398 29.5818C38.3398 30.6652 40.1212 31.5435 42.3187 31.5435C44.5161 31.5435 46.2975 30.6652 46.2975 29.5818C46.2975 28.4984 44.5161 27.6201 42.3187 27.6201Z" fill="#CCADCA"/>
<path d="M0.0712891 1.88303C19.1697 -3.15458 43.9181 2.15767 45.7802 14.9832C10.2889 16.3563 6.01567 8.47822 0.0712891 1.88303Z" fill="#CCADCA"/>
<path d="M0.0712891 29.3817C19.1697 34.4193 43.9181 29.1071 45.7802 16.2816C10.2889 14.9084 6.01567 22.7826 0.0712891 29.3817Z" fill="#CCADCA"/>
<path d="M45.7089 14.9952C43.8468 2.16968 19.0984 -3.13864 0 1.89504C5.94438 8.49023 10.2177 16.3684 45.7089 14.9952ZM0 29.394C19.0984 34.4316 43.8468 29.1193 45.7089 16.2938C10.2177 14.9089 5.94438 22.7948 0 29.394Z" fill="#CCADCA"/>
</svg>
