<svg width="48" height="27" viewBox="0 0 48 27" fill="none" xmlns="http://www.w3.org/2000/svg">
<path fill-rule="evenodd" clip-rule="evenodd" d="M7.20843 0H14.4179L18.0229 9.00003L16.2628 13.3956L16.2617 13.3923H16.221H13.0027V13.3916L10.8564 8.89237L10.8558 8.89321L12.6578 13.3923H12.6566L12.6561 13.3932L14.4581 17.8924H14.4614L14.419 17.9984L14.4196 18L10.8146 27H3.60504L0 18L1.84598 13.3923H5.06321V13.3932L5.25043 13.7851L6.9326 17.3117L7.20954 17.8924L7.21007 17.8916L5.40811 13.3923H5.407L5.40756 13.3916L3.6485 9.00003L3.62621 8.94375L7.20843 0ZM32.9686 9.84968C32.9686 9.3004 33.2722 8.88595 33.6622 8.88595C34.0511 8.88595 34.3537 9.31238 34.3537 9.84892C34.3537 10.3854 34.0517 10.8014 33.6622 10.8014C33.2728 10.8014 32.9686 10.3991 32.9686 9.84968ZM22.4805 11.6697C22.4805 12.4864 23.0561 12.7427 23.6824 13.0109L23.7084 13.0217C24.5482 13.37 25.5099 13.7688 25.5099 15.4588C25.5099 17.1784 24.5282 18.1181 23.4366 18.1181C23.0262 18.1205 22.6206 17.9916 22.2489 17.7406C21.8773 17.4897 21.5489 17.1229 21.2875 16.6668L22.0153 15.5793C22.1932 15.9093 22.42 16.1779 22.6791 16.3656C22.9382 16.5534 23.2231 16.6554 23.513 16.6644C24.0629 16.6644 24.4435 16.2499 24.4435 15.6403C24.4435 14.9134 23.9044 14.6764 23.2911 14.4067L23.2394 14.3839L23.1747 14.3553C22.354 14.0019 21.4229 13.5144 21.4229 11.8439C21.4229 10.1333 22.4036 9.19358 23.4623 9.19358C23.8183 9.18945 24.1706 9.29888 24.4939 9.51396C24.8171 9.72903 25.1034 10.0444 25.3322 10.4376L24.6553 11.4866C24.3588 10.938 23.8601 10.6448 23.4116 10.6448C22.9207 10.6448 22.4805 10.9741 22.4805 11.6697ZM29.5451 11.7275L30.5013 15.9222L31.4151 11.7275H32.5657L30.9838 17.9229H30.0277L29.0292 13.8004L28.0307 17.9229H27.0829L25.5011 11.7275H26.601L27.5571 15.9222L28.5216 11.7275H29.5451ZM34.1787 11.7275H33.1463V17.9229H34.1787V11.7275ZM37.3492 11.5813C36.7575 11.5813 36.2409 11.9708 35.979 12.6174V11.7258H34.9806V17.9213H36.0041V14.5931C36.0041 13.447 36.529 12.8976 37.0366 12.8976C37.5019 12.8976 37.8724 13.337 37.8724 14.1907V17.9229H38.8959V13.9465C38.8976 12.3861 38.2123 11.5813 37.3492 11.5813ZM41.0908 15.654C41.0908 16.3375 41.3944 16.6668 41.7845 16.6668C42.0248 16.657 42.2578 16.5459 42.4548 16.3471L42.7256 17.4322C42.3801 17.7897 41.9668 17.986 41.5415 17.9944C40.7458 17.9944 40.0605 17.2627 40.0605 15.8725V13.043H39.3918L38.8631 11.7258H40.0583V9.19038H41.0891V11.7258H42.0363L42.5645 13.0446H41.0908V15.654ZM45.4909 16.6668C45.1009 16.6668 44.7966 16.3375 44.7966 15.654V13.0446H46.2709L45.7428 11.7258H44.7955V9.19038H43.7647V11.7258H42.5696L43.0977 13.043H43.7664V15.8725C43.7664 17.2627 44.4517 17.9944 45.2468 17.9944C45.6723 17.986 46.0858 17.7899 46.4314 17.4322L46.1607 16.3471C45.9638 16.5456 45.731 16.6567 45.4909 16.6668ZM46.8094 11.8335C46.8853 11.7619 46.9743 11.7244 47.065 11.7258C47.1252 11.7235 47.1852 11.7389 47.2411 11.7713C47.297 11.8036 47.3477 11.8522 47.3902 11.9139C47.4325 11.9756 47.4657 12.0493 47.4876 12.1302C47.5095 12.2111 47.5196 12.2977 47.5174 12.3844C47.5175 12.5152 47.4907 12.643 47.4402 12.7518C47.3898 12.8604 47.3181 12.9451 47.2342 12.9948C47.1503 13.0446 47.0581 13.0574 46.9692 13.0315C46.8803 13.0055 46.7987 12.942 46.7349 12.8491C46.671 12.7562 46.6278 12.6381 46.6107 12.5097C46.5936 12.3813 46.6033 12.2485 46.6387 12.1281C46.6741 12.0077 46.7335 11.9051 46.8094 11.8335ZM46.8452 12.8602C46.9109 12.9199 46.9874 12.95 47.065 12.9467V12.9474C47.116 12.9487 47.1666 12.9349 47.2137 12.9068C47.2608 12.8788 47.3035 12.8371 47.3389 12.7842C47.3744 12.7315 47.402 12.6687 47.4199 12.6C47.4379 12.5312 47.4458 12.4578 47.4433 12.3844C47.4433 12.2725 47.4201 12.1632 47.3767 12.0704C47.3333 11.9776 47.2717 11.9057 47.1997 11.8636C47.1277 11.8216 47.0487 11.8115 46.9727 11.8346C46.8968 11.8577 46.8273 11.9129 46.7733 11.9932C46.7192 12.0736 46.683 12.1753 46.6693 12.2854C46.6556 12.3956 46.6651 12.5091 46.6964 12.6115C46.7277 12.7139 46.7795 12.8005 46.8452 12.8602ZM47.2806 12.2415C47.2802 12.209 47.2752 12.177 47.2658 12.1474C47.2565 12.1179 47.2429 12.0914 47.2261 12.0698C47.2093 12.0482 47.1896 12.0317 47.1682 12.0216C47.1468 12.0115 47.1242 12.0078 47.1018 12.011H46.8844V12.7057H46.9919V12.4864H47.0772L47.1691 12.7057H47.2979L47.1887 12.4487C47.2157 12.4297 47.2387 12.4003 47.2549 12.3638C47.2711 12.3272 47.28 12.2849 47.2806 12.2415ZM47.0956 12.3571H46.9919V12.162H47.0956C47.105 12.1607 47.1145 12.1623 47.1235 12.1667C47.1324 12.171 47.1406 12.178 47.1476 12.1872C47.1546 12.1964 47.1601 12.2075 47.164 12.22C47.1678 12.2324 47.1697 12.2459 47.1697 12.2595C47.1697 12.2732 47.1678 12.2866 47.164 12.2991C47.1601 12.3116 47.1546 12.3227 47.1476 12.3319C47.1406 12.3411 47.1324 12.348 47.1235 12.3524C47.1145 12.3567 47.105 12.3583 47.0956 12.3571Z" fill="#CCADCA"/>
</svg>
