<svg width="47" height="32" viewBox="0 0 47 32" fill="none" xmlns="http://www.w3.org/2000/svg">
<path fill-rule="evenodd" clip-rule="evenodd" d="M9.4 0H47L38.597 32H0.99697L5.2697 15.5752L2.56364 17.6991L0 19.6814L0.712121 16.9911L2.70606 9.62832L3.41818 6.79646L4.84242 8.77876L6.55152 11.0442L9.4 0ZM3.84545 9.62832L6.55152 13.3097L1.85152 16.9911L3.84545 9.62832ZM23.3576 1.41593H45.2909L39.0242 25.2035H17.2333L20.0818 13.8761H24.7818L25.0667 12.7434H20.5091L23.3576 1.41593ZM24.6394 13.8761H24.7818L22.2182 23.646H37.3152L42.8697 2.83186H27.6303L25.0667 12.7434L24.6394 13.8761ZM10.397 1.41593H22.6455L19.797 12.7434H16.2364C16.5212 13.0265 16.6636 13.4513 16.6636 13.8761H19.3697L16.5212 25.2035H4.1303L7.12121 13.8761H9.82727L10.1121 12.7434H7.40606L10.397 1.41593ZM29.9091 9.62832L25.3515 13.3097L28.0576 16.9911L29.9091 9.62832ZM32.6152 8.63717C31.1909 13.7345 35.0364 14.4425 34.0394 18.1239C33.7545 19.3982 33.1848 19.823 32.4727 19.823C31.903 19.823 31.6182 19.3982 31.903 18.1239L32.3303 16.708H30.4788L30.0515 17.9823C29.3394 20.8142 29.9091 22.5133 31.903 22.5133C33.897 22.5133 35.3212 20.8142 36.0333 17.9823C37.4576 12.885 33.7545 12.177 34.6091 8.49557C35.0364 7.07965 35.4636 6.65487 36.1758 6.65487C36.7455 6.65487 37.0303 7.07965 36.603 8.49557L36.4606 9.34513H38.3121L38.4545 8.63717C39.3091 5.80531 38.7394 4.10619 36.7455 4.10619C34.7515 4.10619 33.3273 5.80531 32.6152 8.63717ZM15.9515 26.7611C16.5212 26.7611 16.9485 27.3274 16.8061 27.8938C16.8061 28.0354 16.8061 28.0354 16.8061 28.0354C17.3758 28.177 17.6606 28.6018 17.5182 29.1681C17.3758 29.8761 16.6636 30.3009 16.0939 30.3009C15.6667 30.3009 15.2394 30.0177 15.2394 29.5929C14.9545 30.0177 14.3848 30.3009 13.9576 30.3009C13.3879 30.3009 12.9606 29.8761 13.103 29.1681C13.2455 28.6018 13.8152 28.177 14.5273 28.0354C14.5273 28.0354 14.5273 28.0354 14.5273 27.8938C14.6697 27.3274 15.3818 26.7611 15.9515 26.7611ZM15.3818 31.0089L15.097 29.8761L14.3848 31.0089H15.3818ZM24.0697 30.7257C23.5 30.7257 22.0758 29.3097 22.3606 28.0354C22.503 27.469 23.2152 26.9027 23.9273 26.9027C24.497 26.9027 24.7818 27.1858 24.7818 27.6106C25.2091 27.1858 25.6364 26.9027 26.2061 26.9027C26.7758 26.9027 27.203 27.469 27.0606 28.0354C26.7758 29.4513 24.497 30.7257 24.0697 30.7257ZM34.1818 26.6195C34.4667 26.6195 35.8909 28.0354 35.6061 29.0265C35.4636 29.7345 34.8939 30.1593 34.1818 30.1593C33.7545 30.1593 33.4697 29.8761 33.3273 29.4513C33.0424 29.8761 32.6152 30.1593 32.1879 30.1593C31.4758 30.1593 31.0485 29.7345 31.3333 29.0265C31.6182 27.8938 33.7545 26.6195 34.1818 26.6195ZM33.4697 30.8673L33.3273 29.7345L32.4727 30.8673H33.4697ZM7.26364 26.7611C7.69091 27.6106 8.11818 28.177 8.8303 28.885C7.83333 29.4513 7.12121 30.0177 6.26667 30.8673C5.83939 30.0177 5.41212 29.4513 4.7 28.885C5.69697 28.177 6.40909 27.6106 7.26364 26.7611ZM15.3818 6.51327C16.0939 6.51327 16.2364 7.07965 15.9515 8.35398L15.6667 9.48673C15.2394 10.9027 14.6697 11.469 13.8152 11.469H12.9606L14.2424 6.51327H15.3818ZM13.2455 14.1593C14.2424 14.1593 14.3848 14.7257 13.9576 16.4248L13.5303 18.1239C13.2455 19.5398 12.6758 19.9646 11.9636 19.9646H10.8242L12.2485 14.1593H13.2455ZM16.0939 3.82301H12.9606L7.97576 22.6549H11.2515C13.3879 22.6549 14.8121 21.0973 15.6667 18.1239L16.0939 16.5664C16.5212 14.5841 16.5212 13.1681 15.5242 12.6018C16.6636 11.8938 17.3758 10.7611 17.9455 8.77876L18.0879 8.0708C18.8 5.23894 18.2303 3.82301 16.0939 3.82301Z" fill="#CCADCA"/>
</svg>
