<svg width="47" height="32" viewBox="0 0 47 32" fill="none" xmlns="http://www.w3.org/2000/svg">
<path d="M43.3227 21.8958L44.7912 15.0452L38.619 6.44731L34.4198 7.40216L28.9411 3.50156L19.2588 0L17.1399 5.19462L15.6371 2.46691L8.20904 7.28957L4.04846 12.1137L3.86384 17.113L0.935547 16.1881L2.92781 24.1988L7.46194 29.3578L18.1511 31.7891L26.9059 32L42.0003 28.3374L46.3433 21.2117L43.3227 21.8958ZM36.7921 18.0992L28.2326 18.2417L27.9235 24.6335L27.4619 28.4172L20.0059 28.3659V24.7389L19.3898 18.3985L10.4418 18.6536L10.139 12.5184L23.3099 12.4671L36.9445 12.212L37.1763 13.03L36.7921 18.0992Z" fill="#CCADCA"/>
</svg>
