<svg width="48" height="32" viewBox="0 0 48 32" fill="none" xmlns="http://www.w3.org/2000/svg">
<path fill-rule="evenodd" clip-rule="evenodd" d="M12.1509 1.09212L1.50219 8.76593C1.25568 8.93786 1.11962 9.17598 1.12667 9.42314C1.12103 9.67865 1.25605 9.92537 1.50219 10.1093L12.0973 17.7831C12.3426 17.9536 12.6686 18.0503 13.0093 18.0538C13.3609 18.0467 13.6978 17.9509 13.9615 17.7831L24.6103 10.1093C24.8564 9.92537 24.9914 9.67865 24.9858 9.42314C24.9928 9.17598 24.8568 8.93786 24.6103 8.76593L13.9615 1.09212C13.7062 0.914743 13.3639 0.817442 13.0093 0.821503C12.6663 0.816424 12.3359 0.914475 12.0973 1.09212H12.1509ZM14.8333 0.492902L19.0847 3.58562C20.914 2.54899 22.8165 1.58122 24.7846 0.686196L25.0126 0.579888L25.2004 0.686196C25.2808 0.686196 48 10.9888 48 20.7985C48.0085 23.0866 46.7821 25.2874 44.58 26.9357C42.4172 28.5667 39.4222 29.4887 36.2917 29.4872C33.917 29.4891 31.5908 29.0029 29.5859 28.0858C28.1229 27.4403 26.8769 26.5689 25.938 25.5343C26.9707 31.1205 35.2456 31.4491 36.1978 31.4491H36.2783V32H13.653V31.4491H13.7335C14.6857 31.4491 22.9338 31.1205 23.9933 25.5343C23.0339 26.5566 21.792 27.4252 20.3454 28.0858C18.3384 28.9995 16.0136 29.4853 13.6396 29.4872C10.5211 29.4782 7.54239 28.5533 5.39153 26.926C3.17474 25.2846 1.94583 23.0793 1.97159 20.7889C1.99576 19.5345 2.31782 18.2923 2.92381 17.1163C3.50896 15.9859 4.25978 14.9038 5.16354 13.8882L0.684088 10.6796C0.241877 10.339 -0.00283942 9.88951 0.000100138 9.42314C-0.00569126 8.96211 0.239926 8.51788 0.684088 8.18605L11.4133 0.454244C11.8618 0.162015 12.4449 0.0001472 13.0495 0C13.6921 0.000341776 14.3104 0.176519 14.7796 0.492902H14.8333Z" fill="#CCADCA"/>
</svg>
