<svg width="47" height="32" viewBox="0 0 47 32" fill="none" xmlns="http://www.w3.org/2000/svg">
<path d="M6.131 30.72C9.46133 30.5816 12.7842 30.1912 16.0854 29.5503C21.1007 28.6968 26.0133 26.8895 30.692 24.1766C32.8543 22.9794 34.8316 21.1914 36.5129 18.9131C37.4351 17.7024 38.0594 16.1006 38.2932 14.3448C38.4684 12.3377 38.0187 10.3218 37.0625 8.82759C35.8276 6.79952 34.3158 5.1513 32.6194 3.98345C30.5276 2.43144 28.3343 1.17488 26.0708 0.231724C25.917 0.172047 25.7668 0.0945481 25.6219 0C26.2712 0.00235825 26.9181 0.113465 27.5493 0.331034C31.3907 1.20804 35.1523 2.68831 38.7654 4.74483C40.9129 5.88495 42.8845 7.60882 44.5709 9.82069C45.5306 11.024 46.1521 12.6821 46.3202 14.4883C46.4087 16.0805 46.0652 17.6604 45.3604 18.9021C44.2791 20.8354 42.9129 22.4062 41.3585 23.5034C38.4893 25.6455 35.4372 27.2478 32.2788 28.2703C27.0224 30.066 21.6563 31.1303 16.2557 31.4483C12.0846 31.7361 7.90514 31.6735 3.73916 31.2607C2.85673 31.1724 1.9743 31.04 1.09961 30.9297C1.16927 30.6207 1.34731 30.7752 1.47116 30.7752H5.68979C5.83791 30.8037 5.98863 30.7849 6.131 30.72Z" fill="#CCADCA"/>
<path d="M33.3693 19.134C31.1325 19.176 29.2942 16.6286 29.2602 13.4401C29.2263 10.2517 31.0096 7.62594 33.2462 7.57118C35.4828 7.51642 37.3283 10.0533 37.3712 13.2416C37.3972 16.4382 35.6114 19.0676 33.3693 19.134Z" fill="#CCADCA"/>
<path d="M17.1923 15.1176C16.4879 15.1176 15.799 15.1176 15.11 15.1176C14.8469 15.1176 14.8236 15.0073 14.8856 14.6873C15.1797 13.0983 15.172 13.0983 16.3253 13.0983H18.9416C19.0965 13.0983 19.2435 13.0983 19.1816 13.4293C18.7275 17.1525 16.2674 19.6736 13.6471 19.1011C12.0463 18.7756 10.9058 16.7178 11.054 14.4224C11.2755 10.6 13.431 7.58835 16.1163 7.34933C17.3323 7.23214 18.504 8.02137 19.2126 9.43485C19.3364 9.67761 19.3596 9.83209 19.1429 9.95347C19.0682 10.0018 18.9958 10.0571 18.9262 10.119C18.6703 10.406 18.3825 10.6298 18.0747 10.7811C17.7496 10.8583 17.6412 10.2514 17.4013 9.98657C16.5032 9.13579 15.3347 9.13579 14.4366 9.98657C13.2818 10.8753 12.5624 12.5958 12.5634 14.4666C12.5613 15.9177 13.3511 17.1209 14.3669 17.2142C15.5106 17.3302 16.6029 16.5196 17.1923 15.1176Z" fill="#CCADCA"/>
<path d="M6.54894 16.9043C7.37718 16.9043 8.17447 16.9043 8.97175 16.9043C9.25815 16.9043 9.35104 16.9043 9.25041 17.4119C8.92531 18.9237 8.93305 18.9237 7.83388 18.9237C6.88179 18.9237 5.92969 18.9237 4.9776 18.9237C4.69893 18.9237 4.59057 18.9237 4.69119 18.4161C5.40333 15.0175 6.10256 11.6152 6.7889 8.20917C6.80357 8.02086 6.87323 7.85009 6.98078 7.73877C7.08833 7.62746 7.22382 7.58592 7.35396 7.62435C8.53828 7.62435 9.72259 7.62435 10.9069 7.62435C11.1701 7.62435 11.2243 7.69055 11.1469 8.07676C10.8372 9.65469 10.8372 9.65469 9.69163 9.65469C9.24267 9.65469 8.79372 9.65469 8.34476 9.65469C8.12028 9.65469 7.99643 9.7209 7.93451 10.0519C7.84936 10.5595 7.74099 11.0671 7.62488 11.5526C7.50877 12.0381 7.62488 11.9719 7.86484 11.9719C8.56924 11.9719 9.28137 11.9719 9.98577 11.9719C10.249 11.9719 10.3418 11.9719 10.2567 12.4464C9.95481 13.9692 9.96255 13.9802 8.86338 13.9802C8.37572 13.9802 7.88032 13.9802 7.39267 13.9802C7.32068 13.9611 7.24631 13.9843 7.18652 14.0446C7.12673 14.1048 7.08661 14.1971 7.0753 14.3002C6.93597 15.0506 6.76568 15.7899 6.6186 16.5071C6.59538 16.6174 6.5799 16.7278 6.54894 16.9043Z" fill="#CCADCA"/>
<path d="M22.2386 9.65476H20.5589C20.6827 9.02579 20.8066 8.452 20.915 7.87821C20.9614 7.65752 21.0698 7.64648 21.2014 7.64648H25.7915L25.4277 9.48924C25.389 9.6989 25.2652 9.65476 25.1568 9.65476C24.793 9.65476 24.3827 9.65476 24.0576 9.65476C23.7325 9.65476 23.6938 9.84235 23.6319 10.1623C23.0823 12.8327 22.525 15.503 21.9909 18.1844C21.8825 18.7361 21.7432 18.9568 21.3097 18.9348C20.3421 18.8796 20.3421 18.9348 20.6131 17.5996L22.2386 9.65476Z" fill="#CCADCA"/>
<path d="M6.13056 30.7197C5.99897 30.8852 5.84416 30.819 5.69709 30.819H1.49394C1.35461 30.819 1.19205 30.7308 1.0682 30.9183C0.707104 30.9304 0.346842 30.8635 0 30.7197H6.13056Z" fill="#CCADCA"/>
</svg>
