<svg width="48" height="32" viewBox="0 0 48 32" fill="none" xmlns="http://www.w3.org/2000/svg">
<path d="M27.1399 4.2172C28.0147 4.2172 28.7324 3.90115 28.7324 3.51596V1.49127C28.7324 1.10609 28.0147 0.790039 27.1399 0.790039C26.2651 0.790039 25.5474 1.10609 25.5474 1.49127V3.51596C25.525 3.91103 26.2427 4.2172 27.1399 4.2172Z" fill="#CCADCA"/>
<path d="M20.7478 6.08439C21.6226 6.08439 22.3403 5.76834 22.3403 5.38315V3.35846C22.3403 2.97328 21.6226 2.65723 20.7478 2.65723C19.873 2.65723 19.1553 2.97328 19.1553 3.35846V5.39303C19.1553 5.76834 19.873 6.08439 20.7478 6.08439Z" fill="#CCADCA"/>
<path d="M20.7478 1.39259C21.6226 1.39259 22.3403 1.07654 22.3403 0.691358V0.701235C22.3403 0.316049 21.6226 0 20.7478 0C19.873 0 19.1553 0.316049 19.1553 0.701235V0.691358C19.1553 1.07654 19.873 1.39259 20.7478 1.39259Z" fill="#CCADCA"/>
<path d="M33.5105 6.62697C34.3853 6.62697 35.103 6.31092 35.103 5.92573V5.93561C35.103 5.55042 34.3853 5.23438 33.5105 5.23438C32.6357 5.23438 31.918 5.55042 31.918 5.93561V5.92573C31.918 6.31092 32.6357 6.62697 33.5105 6.62697Z" fill="#CCADCA"/>
<path d="M46.2505 11.8616C45.3757 11.8616 44.6579 12.1776 44.6579 12.5628V12.869V12.9184H44.6355C44.5682 13.2838 43.8953 13.5702 43.043 13.5702C42.1682 13.5702 41.4505 13.2542 41.4505 12.869V12.1085V11.2196C41.4505 10.8344 40.7327 10.5184 39.8579 10.5184C38.9832 10.5184 38.2654 10.8344 38.2654 11.2196V11.2986V11.1603C38.2654 11.5455 37.5477 11.8616 36.6729 11.8616C35.7981 11.8616 35.0804 11.5455 35.0804 11.1603V10.4887V8.22701C35.0804 7.84183 34.3626 7.52578 33.4879 7.52578C32.6131 7.52578 31.8953 7.84183 31.8953 8.22701V9.34306V9.67886L31.7383 9.63936C31.4916 9.8764 30.9533 10.0443 30.3028 10.0443C29.428 10.0443 28.7103 9.73812 28.7103 9.34306V8.86899V6.19245C28.7103 5.80726 27.9925 5.49121 27.1178 5.49121C26.243 5.49121 25.5252 5.80726 25.5252 6.19245V8.06899V8.93812C25.5252 9.32331 24.8075 9.63936 23.9327 9.63936C23.0579 9.63936 22.3402 9.32331 22.3402 8.93812V8.05911V7.96035C22.3402 7.57516 21.6224 7.25911 20.7477 7.25911C19.8729 7.25911 19.1551 7.57516 19.1551 7.96035V8.87886V10.0739C19.1551 10.4591 18.4374 10.7752 17.5626 10.7752C16.6879 10.7752 15.9701 10.4591 15.9701 10.0739V9.68874V7.13072C15.9701 6.74553 15.2523 6.42948 14.3776 6.42948C13.5028 6.42948 12.785 6.74553 12.785 7.13072V10.4887V11.6245C12.785 12.0097 12.0673 12.3258 11.1925 12.3258C10.3178 12.3258 9.6 12.0097 9.6 11.6245V11.2986V10.4295C9.6 10.0443 8.88224 9.72825 8.00748 9.72825C7.13271 9.72825 6.41495 10.0443 6.41495 10.4295V12.1085V13.7381C6.41495 14.1233 5.6972 14.4394 4.82243 14.4394C3.94766 14.4394 3.22991 14.1233 3.22991 13.7381V12.9184V12.6517C3.22991 12.2665 2.53458 11.9505 1.63738 11.9505C0.762617 11.9505 0.0448598 12.2665 0.0448598 12.6517V13.7282L0 13.7381V25.8962L23.9327 31.9801L47.8654 25.8962V18.2023C47.8654 18.1924 47.8654 18.1826 47.8654 18.1727V12.5727C47.8654 12.1776 47.1477 11.8616 46.2505 11.8616ZM35.1925 23.7628H27.6785V21.2443H20.1645V23.7628H12.6505V15.8715H20.1645V18.5282H27.6785V15.8715H35.1925V23.7628Z" fill="#CCADCA"/>
</svg>
