<svg width="47" height="32" viewBox="0 0 47 32" fill="none" xmlns="http://www.w3.org/2000/svg">
<path fill-rule="evenodd" clip-rule="evenodd" d="M45.3087 23.2385L46.8669 24.3696L45.5284 25.8977L38.0969 26.6915L30.6053 27.4853C28.3079 28.9935 25.9706 30.462 23.6133 31.8909C21.8752 30.8788 20.1971 29.827 18.519 28.7554L0 30.72L17.1805 27.8822C14.0241 25.7985 10.9476 23.6155 7.99095 21.3334L12.2461 18.8726L12.9453 19.1107L9.56916 0.734264L23.2936 0L37.5375 0.754109L34.3012 19.0115L34.7806 18.9123C36.2789 19.7259 37.7572 20.5396 39.2555 21.3334C37.5774 22.6233 35.8794 23.8735 34.1413 25.0841L45.3087 23.2385ZM20.7365 28.5172L19.6777 27.4655L14.4237 22.3256L12.326 19.7061C11.4271 20.2617 10.5281 20.8372 9.6291 21.3929C12.366 23.6751 15.2028 25.7786 18.1195 27.7234L18.1594 27.7433L18.1794 27.7631H18.1994L18.2194 27.783L18.2393 27.8028L18.2593 27.8227H18.2793L18.2993 27.8425L18.3193 27.8624L18.3392 27.8822H18.3792L18.3992 27.902L18.4191 27.9219L18.4391 27.9417H18.4591L18.4791 27.9616L18.519 27.9814L18.539 28.0013L18.559 28.0211L18.579 28.041H18.6189V28.0608H18.6389L18.6589 28.0807L18.6788 28.1005H18.6988L18.7188 28.1203L18.7388 28.1402H18.7588L18.7787 28.16L18.7987 28.1799L18.8387 28.1997H18.8586L18.8786 28.2196L18.8986 28.2394L18.9186 28.2593H18.9386L18.9585 28.2791L18.9785 28.2989L18.9985 28.3188H19.0185L19.0584 28.3386L19.0784 28.3585H19.0984L19.1183 28.3783L19.1383 28.3982L19.1583 28.418H19.1783L19.1983 28.4379L19.2182 28.4577H19.2382L19.2782 28.4775L19.2981 28.4974L19.3181 28.5172H19.3381L19.3581 28.5371L19.3781 28.5569L19.398 28.5768H19.418L19.438 28.5966L19.4779 28.6165L19.5179 28.6363L19.5379 28.6562C20.7565 29.45 21.9751 30.2041 23.2137 30.9582L20.7365 28.5172ZM23.6133 26.8304V27.7234L33.2024 21.6112L29.4067 23.814L26.8496 18.5551V24.8062L23.6133 26.0962V26.8304ZM10.5481 1.52806L14.164 21.9684L16.4414 22.9805L15.5424 13.7129L18.0196 19.5275L20.4169 15.7172L20.4568 24.8856L23.5933 26.0962L23.4934 6.48931L20.5367 5.35815L17.6001 9.90265L15.4026 3.39349L10.5481 1.52806ZM33.2024 21.6112L37.8771 21.4127L34.5808 19.8847L33.3023 21.0754L34.7407 12.6413C34.421 14.3479 32.9627 15.4394 30.5854 16.4316L33.2024 21.6112ZM31.6042 3.45303L36.7384 1.52806C36.4587 3.19504 36.179 4.86202 35.8993 6.54884C35.8794 3.88962 34.2812 3.05613 31.6042 3.45303ZM31.2646 9.82327C31.5842 7.66016 29.2269 8.65241 26.9695 9.58513C26.9695 10.9544 26.9695 12.3039 26.9695 13.6732C28.9272 13.1175 30.865 12.4825 31.2646 9.82327Z" fill="#CCADCA"/>
</svg>
