<svg width="47" height="19" viewBox="0 0 47 19" fill="none" xmlns="http://www.w3.org/2000/svg">
<path d="M12.1257 14.9304C12.074 15.1659 12.0161 15.3984 11.9551 15.6278C11.6999 15.4728 11.4105 15.2707 11.1324 15.4424C10.8544 15.646 10.7387 16.1322 10.749 16.5652C10.7294 17.0195 10.8027 17.5482 11.0952 17.7883C11.4043 17.9782 11.7309 17.7761 12.0358 17.6743C12.0378 17.8384 12.0409 18.1681 12.042 18.3322C11.9448 18.3808 11.8476 18.4294 11.7505 18.475C11.7526 18.5054 11.7567 18.5677 11.7588 18.5981C11.4797 18.5996 11.1562 18.75 10.9092 18.4917C10.0875 18.0329 9.99244 16.3586 10.4079 15.3756C10.7821 14.5551 11.5665 14.5643 12.1257 14.9304ZM34.6941 14.7162C34.8936 15.2069 35.0538 15.7296 35.2285 16.2416C35.43 15.7478 35.583 15.2176 35.7783 14.7192C35.9747 14.7238 36.1721 14.7238 36.3705 14.7253C36.0956 15.5078 35.7804 16.2598 35.522 17.0544C35.4951 17.53 35.5189 18.0071 35.5158 18.4826C35.3277 18.4811 35.1406 18.4796 34.9525 18.4765C34.9505 18.0374 34.9474 17.5984 34.9794 17.1623C34.7107 16.3328 34.3944 15.5381 34.103 14.7253C34.2993 14.7238 34.4967 14.7223 34.6941 14.7162ZM25.9235 14.7223C26.5674 14.7283 27.2123 14.7268 27.8572 14.7238C27.8583 14.9593 27.8603 15.1933 27.8614 15.4303C27.6268 15.4272 27.3932 15.4257 27.1586 15.4242C27.1658 16.4422 27.1544 17.4616 27.1668 18.4796C26.9798 18.4796 26.7927 18.4781 26.6067 18.4735C26.6315 17.4586 26.6098 16.4422 26.6201 15.4272C26.3855 15.4257 26.1509 15.4288 25.9173 15.4303C25.9183 15.1948 25.9204 14.9578 25.9235 14.7223ZM18.7765 14.7162C18.9564 14.7208 19.1362 14.7208 19.3171 14.7192C19.347 15.9712 19.3088 17.2231 19.3377 18.475C19.1424 18.4796 18.9481 18.4796 18.7528 18.4735C18.7848 17.2216 18.7414 15.9681 18.7765 14.7162ZM24.1975 5.43309C24.1716 7.33073 24.214 9.23141 24.1758 11.1306C23.6972 11.1123 23.2187 11.1245 22.7402 11.1199C22.7267 9.22078 22.7298 7.32162 22.7391 5.42397C23.2249 5.41941 23.7107 5.40574 24.1975 5.43309ZM27.5896 5.48475C27.5958 7.36568 27.6092 9.24965 27.5813 11.1306C27.1069 11.1123 26.6315 11.1245 26.1571 11.1199C26.154 9.2223 26.155 7.32617 26.156 5.43005C26.6294 5.45436 27.14 5.33129 27.5896 5.48475ZM32.3966 5.42245C32.3966 7.32162 32.3976 9.22078 32.3955 11.1199C31.9201 11.0941 31.4364 11.1777 30.9661 11.082C30.9207 9.20103 30.963 7.31402 30.9455 5.43005C31.4292 5.40726 31.9129 5.42093 32.3966 5.42245ZM37.1798 5.41182C37.1901 7.31706 37.1974 9.22382 37.1767 11.1291C36.6961 11.088 36.2103 11.1838 35.7328 11.0622C35.7546 9.17824 35.7215 7.29427 35.7494 5.41182C36.2269 5.42397 36.7033 5.42245 37.1798 5.41182ZM45.1495 5.41182C45.2135 7.29731 45.1794 9.19647 45.1681 11.0835C44.6926 11.1716 44.2079 11.0987 43.7294 11.1184C43.7211 9.2223 43.7252 7.32769 43.7273 5.43157C44.2017 5.40422 44.6751 5.42853 45.1495 5.41182ZM16.42 5.41638C16.8975 5.42397 17.374 5.41182 17.8515 5.42549C17.8753 6.61513 17.8432 7.80628 17.868 8.99744C18.8726 8.9868 19.8762 8.98224 20.8808 8.99895C20.8695 9.69481 20.8912 10.3907 20.8705 11.0865C20.0953 11.1686 19.3119 11.0971 18.5336 11.1215C17.8236 11.0956 17.1105 11.1762 16.4025 11.0744C16.4231 9.18887 16.388 7.30186 16.42 5.41638ZM14.7757 5.4103C14.8966 6.79593 14.6258 8.25296 14.0398 9.35448C13.5251 10.3086 12.7386 10.889 11.9241 11.0425C10.8585 11.2749 9.68031 11.047 8.81523 10.0382C7.90055 8.94426 7.47679 7.1393 7.56361 5.43765C8.04628 5.40118 8.52894 5.42245 9.01161 5.42245C8.99817 6.2748 9.05915 7.18791 9.44053 7.87161C10.0875 9.13114 11.3712 9.26028 12.2869 8.61305C13.0745 8.03722 13.462 6.68198 13.3504 5.43157C13.8248 5.40574 14.3002 5.43005 14.7757 5.4103ZM38.942 5.41334C39.4247 5.42397 39.9063 5.41638 40.389 5.41941C40.39 7.3201 40.3941 9.22078 40.3869 11.1215C39.9011 11.1078 39.4143 11.1564 38.9296 11.085C38.9441 9.19495 38.9193 7.30338 38.942 5.41334ZM6.11458 5.50602C6.11148 7.37783 6.11768 9.24965 6.11148 11.1199C5.62882 11.1215 5.14718 11.1245 4.66452 11.1169C4.65832 9.24813 4.65832 7.37935 4.66452 5.51209C5.14822 5.49082 5.63088 5.49538 6.11458 5.50602ZM1.70962 5.42093C1.71478 7.28971 1.70548 9.15848 1.71375 11.0288C1.20318 11.0318 0.690543 11.0652 0.181006 10.9984C0.186174 9.16608 0.195476 7.33377 0.175838 5.50298C0.676073 5.3237 1.19905 5.45892 1.70962 5.42093ZM11.8673 0.270407L11.8394 0.384357C12.7262 0.524135 13.5912 1.16681 14.1194 2.2425C14.4925 3.01584 14.7643 3.93655 14.786 4.89373C14.3292 4.87398 13.8724 4.91044 13.4166 4.87853C13.2533 4.59442 13.2708 4.1447 13.1189 3.83323C12.7603 2.89277 12.0016 2.45672 11.2968 2.46128C10.6167 2.42026 9.86118 2.66791 9.41675 3.48379C9.1749 3.87881 9.08395 4.40298 8.97853 4.89828C8.5031 4.82536 8.00493 5.00464 7.54294 4.80409C7.69384 3.6813 7.97806 2.557 8.54548 1.74112C9.06948 0.958663 9.79813 0.498307 10.5371 0.387396C10.535 0.35397 10.533 0.28712 10.5309 0.253695C10.9764 0.236982 11.4229 0.221789 11.8673 0.270407ZM34.7055 0.271927L34.6921 0.390434C35.3174 0.508942 35.9117 0.958663 36.3261 1.66059C36.8553 2.5494 37.1426 3.72536 37.187 4.89677C36.7137 4.88309 36.2403 4.88765 35.767 4.89373C35.6936 4.02467 35.4579 3.05534 34.8729 2.67551C34.1174 2.20451 33.0653 2.45824 32.6498 3.58862C32.471 3.95934 32.472 4.43793 32.3676 4.84207C31.9222 4.96514 31.4447 4.84055 30.9878 4.90284C30.8711 4.27992 30.7687 3.61293 30.4545 3.12979C29.9646 2.33821 29.1068 2.2896 28.4794 2.72716C27.9193 3.11459 27.6671 4.03379 27.5885 4.88613C27.1048 4.86182 26.6139 4.95906 26.1364 4.8284C26.2563 3.70409 26.4909 2.56156 27.0232 1.70313C27.4583 0.972337 28.0826 0.518058 28.7337 0.390434L28.7213 0.276485C29.0582 0.240021 29.3983 0.211153 29.7362 0.256733C29.7383 0.294716 29.7414 0.372202 29.7435 0.410186C30.5527 0.466401 31.2204 1.34305 31.6762 2.26681C32.1558 1.378 32.781 0.624411 33.5521 0.382838C33.8993 0.098723 34.3262 0.279523 34.7055 0.271927ZM42.0447 0.229385C43.6591 0.262811 45.2756 0.198999 46.89 0.261291C46.9168 0.96626 46.8879 1.67275 46.9137 2.37772C46.3442 2.54788 45.7582 2.42786 45.1815 2.46736C45.1691 3.25437 45.2032 4.04442 45.1681 4.83143C44.7019 4.95298 44.1996 4.88917 43.7221 4.84815C43.7294 4.0581 43.7221 3.26652 43.7283 2.47647C43.164 2.41266 42.5821 2.54636 42.0282 2.4081C42.0106 1.68186 42.0034 0.952586 42.0447 0.229385ZM24.1758 0.226347C24.1964 1.78366 24.2057 3.34553 24.1716 4.90132C23.6952 4.87701 23.2177 4.89373 22.7412 4.88765C22.7309 3.33793 22.7216 1.7867 22.7464 0.236982C23.2218 0.233943 23.6993 0.244579 24.1758 0.226347ZM16.4262 0.230905C16.8986 0.24154 17.3719 0.236982 17.8443 0.233943C17.8825 1.76847 17.8432 3.30603 17.8649 4.84359C17.3885 4.93627 16.9058 4.86334 16.4273 4.89828C16.3932 3.34401 16.3973 1.78518 16.4262 0.230905ZM3.41083 0.21875C3.38086 0.255214 3.32091 0.329661 3.29197 0.366125C4.11467 0.55908 4.94254 1.07261 5.48515 2.03435C5.93785 2.81984 6.13215 3.87274 6.11458 4.89221C5.63088 4.8603 5.14305 4.94994 4.66452 4.83751C4.69346 3.8773 4.30485 2.88669 3.65991 2.60562C3.02739 2.33973 2.35868 2.50382 1.71065 2.47343C1.70858 3.27868 1.71375 4.08392 1.70858 4.88917C1.19801 4.86182 0.679174 4.96058 0.174805 4.80409C0.196509 3.34857 0.187207 1.89153 0.179972 0.434495C0.296763 0.37828 0.408386 0.273446 0.536545 0.282562C1.49464 0.26433 2.4548 0.33118 3.41083 0.21875ZM40.3817 0.230905C40.4045 1.7715 40.3786 3.31362 40.3962 4.85422C39.9073 4.90588 39.4143 4.91804 38.9275 4.84359C38.9523 3.30755 38.9089 1.76847 38.9503 0.232424C39.4278 0.238501 39.9042 0.240021 40.3817 0.230905Z" fill="#CCADCA"/>
</svg>
