<svg width="47" height="32" viewBox="0 0 47 32" fill="none" xmlns="http://www.w3.org/2000/svg">
<path d="M20.1546 4.78723C19.9533 4.19087 19.7571 3.60456 19.5996 3.00546C19.4378 2.39014 19.3168 1.76618 19.2257 1.13608C19.175 0.785239 19.1826 0.774933 19.5057 0.657655C20.1592 0.420688 20.8258 0.23434 21.5106 0.125374C21.8276 0.0749222 21.8433 0.0856443 21.8862 0.424262C22.0671 1.84963 22.4504 3.213 23.0333 4.51503C23.0993 4.66231 23.1349 4.90268 23.2867 4.91033C23.4795 4.92005 23.5046 4.66522 23.574 4.51129C24.1544 3.22347 24.5355 1.87374 24.7107 0.461665C24.7581 0.0803248 24.7684 0.0712651 25.1367 0.1282C25.8225 0.23434 26.4855 0.436314 27.1396 0.669042C27.4374 0.774933 27.4318 0.787816 27.385 1.12519C27.2284 2.2535 26.9474 3.34815 26.5764 4.41944C26.5347 4.53996 26.4075 4.68359 26.5321 4.79737C26.6303 4.88689 26.7559 4.77069 26.8617 4.7249C27.9302 4.2621 28.865 3.59043 29.6882 2.74613C29.7262 2.70732 29.7635 2.66792 29.8013 2.62894C30.1026 2.31758 30.1017 2.31875 30.4383 2.61132C30.9388 3.04635 31.4194 3.50316 31.8392 4.02464C32.0512 4.28812 32.0489 4.29244 31.8298 4.53173C30.2271 6.28126 28.2922 7.42993 26.0415 8.00627C25.9382 8.03262 25.8332 8.05256 25.7317 8.08448C25.4883 8.1612 25.4713 8.21581 25.6575 8.41404C26.2733 9.06892 26.9534 9.64425 27.6854 10.1518C27.9136 10.31 27.9222 10.3038 28.1885 10.0442C29.3146 8.94665 30.5852 8.07451 31.9867 7.41115C32.3973 7.21674 32.8207 7.05001 33.2438 6.8866C33.5308 6.7758 33.5785 6.80157 33.6968 7.09896C33.9615 7.76506 34.1881 8.44487 34.3331 9.15162C34.3982 9.46929 34.3943 9.48458 34.0841 9.59887C33.4058 9.84889 32.7539 10.1563 32.1318 10.5336C31.7294 10.7776 31.3419 11.0448 30.9684 11.3335C30.865 11.4135 30.6997 11.4789 30.7167 11.6275C30.7379 11.8126 30.9379 11.7992 31.0674 11.842C32.0205 12.1567 32.9962 12.3539 33.9936 12.4338C34.7442 12.4941 34.5984 12.4692 34.539 13.1332C34.4834 13.754 34.3676 14.3663 34.1988 14.9656C34.1088 15.2848 34.1002 15.297 33.7825 15.2729C32.6929 15.1901 31.6233 14.9868 30.5747 14.6661C27.9194 13.854 25.6227 12.4136 23.6656 10.3781C23.2829 9.98013 23.3532 9.93608 22.9422 10.368C20.864 12.5509 18.3958 14.0325 15.5416 14.8092C14.6795 15.0438 13.8023 15.1986 12.9134 15.2697C12.5036 15.3024 12.5094 15.2905 12.3942 14.8913C12.2097 14.2516 12.1177 13.5946 12.0459 12.9339C11.998 12.4937 12.0061 12.479 12.4531 12.4464C13.4242 12.3756 14.3778 12.2072 15.3108 11.9164C15.4762 11.8649 15.6402 11.8086 15.8029 11.7487C15.9435 11.6968 15.9595 11.6001 15.8505 11.5035C15.6988 11.3694 15.5396 11.2434 15.3757 11.1261C14.4954 10.4964 13.5608 9.97597 12.5501 9.60901C12.1988 9.48143 12.1957 9.47586 12.2788 9.10823C12.4315 8.43316 12.6266 7.77229 12.8979 7.1372C13.0489 6.78387 13.0542 6.77489 13.3993 6.89923C14.5478 7.31307 15.625 7.87569 16.6373 8.57678C17.2807 9.02246 17.879 9.52614 18.4511 10.0654C18.705 10.3049 18.7047 10.301 18.9868 10.1047C19.6405 9.64974 20.2466 9.13458 20.8034 8.55625C20.8692 8.48785 20.9371 8.42094 20.9962 8.34655C21.09 8.22819 21.0475 8.14275 20.9216 8.0952C20.847 8.06703 20.7682 8.05098 20.6906 8.03228C18.4027 7.48296 16.443 6.32689 14.8062 4.57354C14.7692 4.53381 14.7328 4.49342 14.6953 4.45418C14.5965 4.35029 14.5777 4.24456 14.6779 4.12695C15.1994 3.51471 15.7578 2.9432 16.3765 2.43694C16.504 2.33254 16.591 2.39322 16.6833 2.49238C16.9981 2.83033 17.3242 3.15498 17.6793 3.44805C18.3505 4.00211 19.0801 4.44978 19.8755 4.77992C19.9462 4.80934 20.0191 4.85647 20.1546 4.78723Z" fill="#CCADCA"/>
<path d="M23.2668 23.5398C22.9351 23.5398 22.6027 23.5541 22.2719 23.5355C21.9789 23.5191 21.9373 23.4618 21.9363 23.1494C21.9328 22.0974 21.924 21.0451 21.9407 19.9935C21.946 19.6538 21.8525 19.3892 21.6535 19.1226C20.5536 17.6487 19.4672 16.1638 18.3788 14.6805C18.1005 14.3013 18.1053 14.2985 18.5297 14.0858C19.0804 13.8097 19.6198 13.5129 20.1381 13.1739C20.5302 12.9174 20.5328 12.9225 20.8038 13.2913C21.5382 14.2906 22.2727 15.29 23.0077 16.2888C23.3018 16.6884 23.3096 16.6875 23.595 16.2988C24.3453 15.2769 25.0956 14.2551 25.8469 13.2341C26.0765 12.922 26.0813 12.918 26.387 13.1185C26.9721 13.5025 27.5821 13.8368 28.2064 14.1452C28.4779 14.2793 28.4861 14.3222 28.3041 14.5708C27.1766 16.1105 26.0511 17.6518 24.9123 19.1822C24.7378 19.4167 24.6608 19.6478 24.6637 19.9401C24.6743 20.992 24.6686 22.0441 24.6671 23.0961C24.6666 23.4754 24.6544 23.5071 24.3012 23.5319C23.9579 23.5561 23.6117 23.5372 23.2669 23.5372C23.2669 23.5381 23.2668 23.5389 23.2668 23.5398Z" fill="#CCADCA"/>
<path d="M9.49825 30.3037C9.49825 30.5528 9.4914 30.8021 9.50096 31.0508C9.50638 31.1919 9.45432 31.2887 9.35252 31.3691C8.44478 32.0866 7.19135 32.097 6.42783 31.6006C5.70393 31.1298 5.41676 30.4306 5.43223 29.5631C5.45886 28.0613 6.73676 27.1641 7.99537 27.3353C8.44119 27.3959 8.84651 27.5311 9.20981 27.8066C9.33123 27.8987 9.35858 27.992 9.24569 28.1108C9.20846 28.15 9.17944 28.1974 9.14324 28.2378C9.01736 28.378 8.94497 28.5991 8.76654 28.6507C8.59282 28.701 8.4718 28.4987 8.32017 28.4218C7.82061 28.1681 7.22906 28.2325 6.87237 28.5911C6.43461 29.0311 6.31845 29.6959 6.57875 30.271C6.80979 30.7815 7.28152 31.052 7.85003 31.0015C8.03683 30.9849 8.21724 30.9444 8.38705 30.8592C8.48743 30.8089 8.5532 30.7434 8.56899 30.6134C8.61331 30.2464 8.56372 30.1807 8.20871 30.1722C7.51599 30.1557 7.6331 30.3019 7.6209 29.5199C7.61835 29.3582 7.63892 29.2609 7.83146 29.2656C8.30908 29.2772 8.78719 29.2741 9.26498 29.2681C9.43742 29.2658 9.50176 29.3394 9.49674 29.515C9.4894 29.7776 9.4949 30.0408 9.4949 30.3037H9.49825Z" fill="#CCADCA"/>
<path d="M15.4966 30.2836C15.4966 30.5329 15.49 30.7824 15.499 31.0313C15.5045 31.1864 15.4443 31.286 15.3304 31.3806C14.5683 32.0143 13.3225 32.1293 12.4687 31.6376C11.6287 31.1537 11.2064 30.0271 11.4866 29.0173C11.8044 27.8714 12.8127 27.1889 13.9577 27.3286C14.4032 27.383 14.8097 27.5223 15.1748 27.7969C15.3157 27.9028 15.3341 28.0043 15.2104 28.1333C15.1729 28.1723 15.143 28.2189 15.1079 28.2604C14.9941 28.3948 14.9022 28.5805 14.7591 28.6489C14.589 28.7303 14.4711 28.5048 14.321 28.431C13.7964 28.1732 13.1302 28.2095 12.7316 28.735C12.3215 29.2756 12.3196 30.0343 12.7459 30.5756C13.0849 31.006 13.8484 31.1432 14.3596 30.8655C14.5274 30.7744 14.6202 30.4368 14.5286 30.2532C14.5018 30.1993 14.4572 30.1752 14.4026 30.1722C14.3231 30.1678 14.2426 30.1748 14.1641 30.1644C13.9857 30.141 13.7398 30.2656 13.6431 30.09C13.5356 29.8945 13.608 29.6301 13.6112 29.3955C13.6124 29.3114 13.6713 29.2753 13.7443 29.2748C14.2754 29.2716 14.8066 29.2704 15.3378 29.2692C15.4544 29.2689 15.4997 29.3358 15.4986 29.453C15.4963 29.7298 15.4978 30.0068 15.4978 30.2836H15.4966Z" fill="#CCADCA"/>
<path d="M36.5397 27.3514C37.0666 27.3248 37.5129 27.4847 37.9266 27.7523C38.1394 27.8899 38.1424 27.915 37.99 28.1389C37.8762 28.3063 37.8055 28.5505 37.6268 28.614C37.458 28.674 37.31 28.4515 37.1339 28.3962C36.982 28.3485 36.8337 28.2863 36.6801 28.2461C36.5061 28.2005 36.3338 28.2329 36.1804 28.3262C35.9377 28.4739 35.934 28.7834 36.1832 28.9219C36.3447 29.0116 36.5287 29.0596 36.7057 29.1157C37.0352 29.2201 37.3703 29.3029 37.6757 29.4806C38.0921 29.7229 38.2591 30.0862 38.2431 30.5779C38.227 31.0759 38.0536 31.4711 37.6251 31.7014C36.9803 32.048 36.3166 31.9865 35.6593 31.7338C35.4104 31.638 35.1805 31.4981 34.97 31.3262C34.8651 31.2407 34.8442 31.1583 34.948 31.0549C35.0052 30.9978 35.0519 30.9294 35.1053 30.8681C35.2029 30.7561 35.2834 30.6046 35.405 30.5448C35.5621 30.4676 35.6428 30.6772 35.7655 30.7457C36.064 30.9128 36.3714 31.0218 36.7127 31.018C36.8339 31.0167 36.9514 31.0005 37.0598 30.9424C37.3344 30.7953 37.352 30.4909 37.0872 30.3248C36.8583 30.1812 36.5928 30.1308 36.341 30.0471C36.1394 29.9802 35.9311 29.9305 35.7357 29.8477C35.3068 29.6658 35.0526 29.344 35.0274 28.8425C35.0003 28.3038 35.152 27.8616 35.6156 27.5743C35.9104 27.3915 36.2319 27.3277 36.5397 27.3514Z" fill="#CCADCA"/>
<path d="M1.43095e-05 27.6549C0.311592 27.5864 0.629533 27.6384 0.943646 27.62C1.09441 27.6112 1.14391 27.7375 1.20411 27.8412C1.41681 28.2082 1.62465 28.3428 1.8356 28.7111C1.90313 28.8289 1.97464 28.9442 2.04201 29.0567C2.17547 29.0555 2.19524 28.9458 2.23949 28.871C2.48336 28.4589 2.73067 28.0486 2.96067 27.6281C3.04917 27.4663 3.14691 27.3759 3.33275 27.3832C3.5956 27.3937 3.85909 27.386 4.10711 27.386C4.18388 27.5313 4.09515 27.5991 4.04979 27.6736C3.6302 28.3628 3.21268 29.0535 2.78321 29.7359C2.63954 29.9641 2.55894 30.1932 2.57265 30.4713C2.59043 30.8302 2.58063 31.1908 2.57688 31.5506C2.57369 31.8535 2.56994 31.8535 2.29641 31.865C1.61022 31.8938 1.569 31.8905 1.62098 31.1965C1.67695 30.4499 1.48466 30.0606 1.05957 29.4684C0.718664 28.9935 0.438832 28.4707 0.135879 27.9667C0.0811086 27.8754 -0.00124664 27.7948 1.43095e-05 27.6549Z" fill="#CCADCA"/>
<path d="M43.548 29.5905C43.548 28.968 43.5459 28.3454 43.5489 27.7227C43.5505 27.3947 43.5546 27.3947 43.8466 27.3872C44.5181 27.3698 44.5179 27.3698 44.5182 28.0787C44.5186 28.9226 44.5179 29.7665 44.5211 30.6105C44.5222 30.9293 44.5263 30.9335 44.8203 30.9352C45.3379 30.9383 45.8554 30.9327 46.373 30.9366C46.6496 30.9388 46.6569 30.9444 46.655 31.241C46.6498 31.9919 46.7313 31.8599 46.0785 31.8655C45.3355 31.8719 44.5924 31.8687 43.8492 31.8655C43.5517 31.8642 43.5461 31.8593 43.5441 31.5411C43.5401 30.891 43.543 30.2407 43.543 29.5905H43.548Z" fill="#CCADCA"/>
<path d="M41.2873 29.6199C41.2876 30.2571 41.2896 30.8942 41.2867 31.5313C41.2852 31.8599 41.2812 31.8599 40.9902 31.8671C40.3016 31.8842 40.2998 31.8842 40.2986 31.1525C40.2966 30.0307 40.2965 28.9088 40.2976 27.7869C40.298 27.3914 40.3005 27.3914 40.6566 27.3871C41.2869 27.3796 41.2869 27.3796 41.2869 28.041C41.2869 28.5673 41.2869 29.0936 41.2873 29.6199Z" fill="#CCADCA"/>
<path d="M25.7976 29.4699C25.4272 29.6162 25.0399 29.5309 24.6597 29.5382C24.5583 29.5402 24.5426 29.4457 24.5418 29.3595C24.5403 29.2081 24.5413 29.0566 24.5413 28.8642C24.5523 28.1994 24.4418 28.3155 25.1319 28.3029C25.3439 28.299 25.5547 28.3068 25.7587 28.3768C25.9977 28.4587 26.1369 28.6374 26.1566 28.8864C26.1761 29.1323 26.0352 29.3761 25.7976 29.4699ZM26.275 30.3111C26.3547 30.2496 26.3837 30.2203 26.418 30.2019C27.0179 29.8802 27.2397 29.2195 27.1129 28.5388C26.9906 27.8818 26.5785 27.5209 25.8452 27.4249C25.1446 27.3332 24.4387 27.405 23.7356 27.3849C23.5589 27.3799 23.5546 27.4998 23.5548 27.634C23.556 28.9637 23.5572 30.2933 23.5537 31.6228C23.5533 31.792 23.596 31.8821 23.7773 31.8696C23.9492 31.8578 24.1233 31.857 24.2951 31.8698C24.489 31.8844 24.5526 31.8012 24.5451 31.6049C24.5336 31.3006 24.5408 30.9955 24.5425 30.6908C24.5429 30.6093 24.5433 30.5263 24.6345 30.4834C24.8642 30.3754 25.2467 30.4915 25.3992 30.723C25.6098 31.0427 25.8174 31.3642 26.0257 31.6854C26.0852 31.777 26.1353 31.8709 26.2674 31.8683C26.5789 31.8624 26.8906 31.8664 27.2936 31.8664C26.9245 31.3028 26.6065 30.8172 26.275 30.3111Z" fill="#CCADCA"/>
<path d="M20.5213 29.7679C20.4678 30.4497 19.9923 30.9042 19.2977 30.936C19.2182 30.9396 19.1384 30.9365 19.0587 30.9365C18.4825 30.9327 18.5615 30.9987 18.5572 30.3996C18.5533 29.8461 18.5563 29.2925 18.5557 28.7389C18.5552 28.2385 18.5428 28.3038 18.9944 28.3052C19.153 28.3058 19.3144 28.3097 19.4699 28.3391C20.158 28.4691 20.5779 29.0455 20.5213 29.7679ZM19.7156 27.4407C19.0688 27.3291 18.4161 27.4101 17.7666 27.3859C17.5923 27.3794 17.5832 27.4961 17.5833 27.6313C17.5853 28.9607 17.5892 30.2901 17.583 31.6194C17.5821 31.8318 17.6708 31.8764 17.8483 31.869C18.1003 31.8586 18.3529 31.8664 18.6053 31.8664V31.8649C18.871 31.8649 19.1376 31.8798 19.402 31.8618C20.0784 31.8158 20.6816 31.5784 21.0991 30.9976C22.1007 29.6042 21.3648 27.7252 19.7156 27.4407Z" fill="#CCADCA"/>
<path d="M30.5523 29.9564C30.7304 29.5089 30.8854 29.1198 31.069 28.6582C31.283 29.122 31.4362 29.5185 31.5738 29.9564H30.5523ZM33.2262 31.5121C32.7341 30.3022 32.2425 29.0921 31.7482 27.8832C31.4822 27.2327 31.5948 27.3941 30.9699 27.3569C30.7149 27.3417 30.5955 27.4454 30.5008 27.6824C29.9951 28.9465 29.4747 30.2042 28.9602 31.4645C28.911 31.585 28.8421 31.7026 28.8679 31.8673C29.1239 31.8673 29.3623 31.859 29.5998 31.8703C29.7608 31.8779 29.8407 31.8061 29.8907 31.6545C29.951 31.4715 30.0324 31.2964 30.0977 31.1151C30.1552 30.9556 30.2451 30.8724 30.4225 30.8767C30.8605 30.8872 31.2989 30.8847 31.737 30.8786C31.8923 30.8763 31.9847 30.9393 32.0378 31.0895C32.1068 31.284 32.1846 31.475 32.2604 31.6669C32.3015 31.7709 32.3451 31.868 32.4815 31.8657C32.7565 31.8609 33.0317 31.8642 33.2965 31.8642C33.3369 31.704 33.2668 31.6118 33.2262 31.5121Z" fill="#CCADCA"/>
</svg>
