<svg width="47" height="22" viewBox="0 0 47 22" fill="none" xmlns="http://www.w3.org/2000/svg">
<path d="M13.9704 0C14.397 0 14.7483 0.534947 14.7483 1.18453V20.8247C14.7483 21.8564 13.9202 22.3914 13.4183 21.6654L0.494033 2.02516C-0.00787947 1.26095 0.343459 0 1.04614 0H13.9704ZM30.0316 0C30.7343 0 31.0856 1.26095 30.5837 2.02516L17.6594 21.6654C17.1575 22.3914 16.3294 21.8564 16.3294 20.8247V1.18453C16.3294 0.534947 16.6807 0 17.1073 0H30.0316ZM45.8669 0C46.5696 0 46.9209 1.26095 46.419 2.02516L33.4948 21.6654C32.9929 22.3914 32.1647 21.8564 32.1647 20.8247V1.18453C32.1647 0.534947 32.516 0 32.9427 0H45.8669Z" fill="#CCADCA"/>
</svg>
