<svg width="48" height="32" viewBox="0 0 48 32" fill="none" xmlns="http://www.w3.org/2000/svg">
<path d="M24.8613 10.6843C24.8654 11.3454 25.0461 12.0024 25.3973 12.6328C26.1982 11.8867 27.2263 11.227 28.4338 10.6843C28.4367 8.80471 30.4989 7.1237 33.6071 6.46737C34.2095 7.18046 35.6441 7.53498 36.9762 7.29991C37.9432 7.13535 38.6763 6.68619 38.8904 6.12703C40.326 5.84824 41.1082 4.97207 40.6541 4.15154C40.2 3.331 38.6749 2.86489 37.2155 3.10059C36.4853 2.70797 35.4313 2.57693 34.4781 2.76025C33.151 3.00228 32.3367 3.75844 32.5638 4.53788C27.9534 5.45185 24.8648 7.91648 24.8613 10.6843Z" fill="#CCADCA"/>
<path d="M3.57009 10.6847V2.00678H44.2863V10.6847C44.2867 12.4492 42.4697 14.0513 39.6373 14.7841C36.8048 15.5169 33.4782 15.2454 31.1258 14.0895C30.3632 14.655 29.8904 15.3287 29.7595 16.0366C33.2679 17.4225 37.8445 17.5891 41.6369 16.4689C45.4293 15.3486 47.8092 13.1272 47.8134 10.7037V0H0V10.6847C0.00698822 11.3456 0.186809 12.0022 0.533599 12.6332C1.33448 11.8871 2.36256 11.2274 3.57009 10.6847Z" fill="#CCADCA"/>
<path d="M34.4398 24.3392C35.3925 24.5232 36.4467 24.3927 37.1772 24.0002C38.1399 24.1872 39.2059 24.0634 39.9612 23.6768C40.7165 23.2903 41.0422 22.7019 40.8117 22.1402C40.5812 21.5785 39.8309 21.1319 38.8522 20.9738C38.6382 20.4149 37.9049 19.9661 36.9379 19.8023C35.6064 19.5664 34.1713 19.9204 33.5688 20.6335C30.5915 20.0037 28.5633 18.4289 28.413 16.6301C28.2627 14.8313 30.0192 13.1549 32.8781 12.3686C35.737 11.5823 39.1479 11.8374 41.5489 13.0172C42.3127 12.4514 42.7863 11.7772 42.9176 11.0687C39.4077 9.68146 34.828 9.51494 31.0341 10.6366C27.2402 11.7583 24.8613 13.9821 24.8613 16.407C24.8785 19.1664 27.929 21.6273 32.504 22.5724C32.2885 23.3517 33.1117 24.103 34.4398 24.3392Z" fill="#CCADCA"/>
<path d="M23.0046 16.3963C23.0021 15.7357 22.8222 15.0792 22.471 14.4492C21.6657 15.1964 20.6308 15.8559 19.4153 16.3963C19.4109 18.2738 17.3525 19.9529 14.2492 20.6106C13.6468 19.8976 12.2116 19.5435 10.8801 19.7794C9.91373 19.9437 9.18078 20.3923 8.96589 20.9509C7.53031 21.2297 6.74809 22.1059 7.20221 22.9264C7.65634 23.7469 9.18144 24.2131 10.6409 23.9774C11.3703 24.3708 12.4251 24.502 13.3783 24.3177C14.7125 24.0811 15.5373 23.3249 15.314 22.5428C19.9134 21.6217 22.9929 19.1606 23.0046 16.3963Z" fill="#CCADCA"/>
<path d="M15.3137 4.53879C15.5572 3.75381 14.7253 2.98981 13.3779 2.76116C12.423 2.59745 11.3867 2.7263 10.6405 3.1015C9.67771 2.91453 8.61173 3.03835 7.85642 3.42489C7.10112 3.81144 6.77549 4.3998 7.00598 4.96153C7.23646 5.52326 7.98674 5.96987 8.9655 6.12794C9.22939 6.78706 10.1995 7.27968 11.3846 7.35629C12.5696 7.43291 13.7106 7.07677 14.2297 6.46828C17.2074 7.09771 19.2366 8.67223 19.3883 10.4711C19.5401 12.27 17.7853 13.947 14.9271 14.7346C12.0689 15.5221 8.65754 15.2685 6.25444 14.09C5.4629 14.6462 4.98589 15.3248 4.88574 16.0371C8.5621 17.4831 13.3845 17.5901 17.2491 16.3115C21.1138 15.0328 23.3197 12.6005 22.9046 10.0755C22.4895 7.55049 19.5286 5.3909 15.3137 4.53879Z" fill="#CCADCA"/>
<path d="M47.3225 14.4675C46.5216 15.2132 45.4935 15.8724 44.286 16.4146V25.0926H3.56979V16.4146C3.56828 14.6499 5.38544 13.0472 8.21855 12.3146C11.0517 11.5819 14.3788 11.8542 16.7303 13.0112C17.4941 12.4454 17.9677 11.7712 18.099 11.0627C14.5904 9.67295 10.009 9.50421 6.21243 10.6249C2.41586 11.7456 0.0342245 13.9698 0.0332031 16.3956V31.8844H47.8561V16.4146C47.8491 15.7542 47.6693 15.098 47.3225 14.4675ZM8.74307 30.1637L8.70957 28.2153L6.87428 30.1827H6.50818L4.63938 28.2343L4.60349 30.1637H3.56979L3.73729 26.74H4.21586L6.6996 29.2173L9.12593 26.74H9.60449L9.76959 30.1637H8.74307ZM17.118 30.1637H16.0843V29.3502H13.2129V30.1637H12.1481V28.2153C12.1481 27.1753 13.0478 26.7021 14.6175 26.7021C16.1513 26.7021 17.1203 27.1753 17.1203 28.2153L17.118 30.1637ZM21.023 30.2207C20.3273 30.2155 19.647 30.104 19.0537 29.898L19.4198 29.3556C19.9046 29.5406 20.4723 29.6436 21.0565 29.6526C21.7576 29.6526 22.0926 29.4641 22.0926 29.2363C22.0926 29.0085 21.8533 28.877 20.7909 28.6505C19.6232 28.4051 19.2212 28.0824 19.2212 27.6851C19.2212 27.1753 19.9558 26.7021 21.224 26.7021C21.8076 26.6953 22.3844 26.7738 22.899 26.9298L22.564 27.4587C22.1588 27.3219 21.7 27.2441 21.2288 27.2322C20.5947 27.2322 20.2956 27.4207 20.2956 27.6675C20.2956 27.8939 20.6282 28.0268 21.4633 28.1963C22.7985 28.4987 23.1981 28.7834 23.1981 29.2363C23.1981 29.841 22.3917 30.2207 21.0254 30.2207H21.023ZM28.2302 30.2207C26.1939 30.2207 24.8587 29.4641 24.8587 28.458C24.8587 27.4749 26.3279 26.6953 28.0962 26.6953C28.8286 26.6858 29.553 26.7834 30.1995 26.9787L29.8334 27.4899C29.3419 27.356 28.8083 27.279 28.2637 27.2634C26.8615 27.2634 25.9953 27.7543 25.9953 28.4539C25.9909 28.7679 26.2067 29.07 26.5953 29.2937C26.9839 29.5175 27.5135 29.6446 28.0675 29.6471H28.1632C28.7679 29.6499 29.3655 29.5738 29.91 29.4248L30.245 29.9346C29.6327 30.131 28.9384 30.2303 28.235 30.2221L28.2302 30.2207ZM34.8703 30.2207C33.035 30.2207 31.6687 29.4641 31.6687 28.458C31.6687 27.4845 33.0614 26.6953 34.7794 26.6953H34.8727C36.7439 26.6953 38.0767 27.4329 38.0767 28.458C38.0767 29.4831 36.7128 30.2207 34.8751 30.2207H34.8703ZM44.2836 27.3082H42.3144V30.1637H41.2448V27.3082H39.242V26.759H44.2813L44.2836 27.3082Z" fill="#CCADCA"/>
<path d="M14.63 27.2704C13.7949 27.2514 13.1943 27.5348 13.1943 28.2196V28.8813H16.0657V28.2386C16.0514 27.5158 15.4508 27.2704 14.63 27.2704Z" fill="#CCADCA"/>
<path d="M34.8733 27.2324C34.3163 27.2371 33.7854 27.367 33.3976 27.5936C33.0098 27.8202 32.797 28.1249 32.8059 28.4406V28.4609C32.7669 29.1083 33.6615 29.651 34.8039 29.6731C35.9464 29.6952 36.9041 29.1883 36.9431 28.5409C36.9455 28.5142 36.9455 28.4875 36.9431 28.4609C36.9431 27.7612 36.0769 27.2324 34.8733 27.2324Z" fill="#CCADCA"/>
</svg>
