<svg width="47" height="15" viewBox="0 0 47 15" fill="none" xmlns="http://www.w3.org/2000/svg">
<g opacity="0.3">
<path d="M38.2446 0.0543193H37.9538C37.4856 0.0543193 37.009 0.0491964 36.5477 0.0440734C35.4603 0.0328029 34.3365 0.0205078 33.2295 0.0727619C32.031 0.129114 31.3482 1.13731 31.256 2.98875C31.2056 3.98977 31.5488 4.71108 32.1966 4.96928C32.4496 5.06866 32.711 5.11989 32.9731 5.12194C33.6754 5.13219 34.3889 5.13014 35.0787 5.12911C35.3394 5.12809 35.6001 5.12707 35.86 5.12809C35.9719 5.12809 36.3017 5.12809 36.3975 5.18444C36.4184 5.33301 36.3597 5.80432 36.3402 5.96518C36.3017 6.27461 36.2591 6.45493 36.2067 6.51948C36.1543 6.58403 36.0229 6.6158 35.8048 6.6158C34.9424 6.61784 34.0647 6.61682 33.2163 6.61682C32.8536 6.61682 32.4908 6.61682 32.1288 6.61682H30.9932L30.7758 8.4744L30.7786 8.47543L30.7549 8.67932C31.0407 8.67522 31.2112 8.67317 31.265 8.67317C31.7095 8.6742 32.1624 8.6783 32.6006 8.68239C33.1142 8.68752 33.6356 8.69264 34.1597 8.69264C34.7705 8.69264 35.3848 8.68649 35.9935 8.666C37.1201 8.62706 37.7602 7.791 37.9503 6.1117C37.9573 6.05227 37.9629 5.99182 37.9692 5.93137C37.9769 5.85043 37.9846 5.77256 37.9944 5.69776C38.095 4.90268 38.0237 4.27461 37.7826 3.83096C37.5464 3.39653 37.1613 3.15985 36.6365 3.12707C35.83 3.07686 35.0116 3.07481 34.2198 3.07174C33.9137 3.07071 33.5971 3.06969 33.2861 3.06559C32.9507 3.06149 32.8906 2.97748 32.8899 2.97645C32.8892 2.97543 32.8543 2.86579 32.9514 2.42317C32.9905 2.24284 33.045 2.11579 33.3854 2.11579H33.3882C34.368 2.11682 35.3485 2.11682 36.3283 2.11682H37.2752C37.6191 2.11682 37.9161 2.11682 38.1083 1.81764C38.3047 1.51129 38.2858 1.05637 38.262 0.480549L38.2446 0.0543193Z" fill="#CCADCA"/>
<path d="M22.1937 5.03595C22.2307 4.73164 22.2691 4.41607 22.3125 4.0964L22.3859 3.55541L22.0099 3.54517C21.9644 3.54517 21.5864 3.51853 21.3054 3.54107C21.2397 3.54107 21.1601 3.55029 21.0783 3.5841C20.9756 3.62201 20.9127 3.68041 20.8498 3.75828C20.7086 3.93451 20.6324 4.19578 20.617 4.55849C20.6031 4.88533 20.5576 5.21627 20.5094 5.56566C20.4892 5.71013 20.4682 5.86074 20.45 6.01136C20.4374 6.11586 20.3983 6.43451 20.334 6.52263C20.2949 6.57693 20.1886 6.60562 20.0188 6.60972C19.0334 6.63328 18.0536 6.63328 17.1074 6.60869C16.9872 6.60562 16.9292 6.58717 16.904 6.57488C16.9012 6.53492 16.8998 6.44476 16.9222 6.25931C17.0571 5.13635 17.1912 4.01443 17.3247 2.89148C17.3569 2.61996 17.403 2.29722 17.4715 2.21525C17.5449 2.12816 17.7839 2.11586 17.9844 2.11586C18.7979 2.11484 19.6114 2.11484 20.4249 2.11484H21.4906C21.9337 2.11484 22.1776 2.11484 22.3684 1.85049C22.5564 1.59025 22.5759 1.22857 22.6123 0.57283L22.6437 0.0554122C22.323 0.0543876 22.1427 0.0533631 22.1021 0.0523385C21.7548 0.0513139 21.4068 0.0502893 21.0594 0.0482401C20.0321 0.0441417 18.9691 0.0390188 17.9222 0.0656581C17.5078 0.075904 17.0934 0.255207 16.7789 0.40992C16.2317 0.679388 15.8879 1.30234 15.7844 2.21217C15.6747 3.18041 15.5524 4.16402 15.4343 5.11586C15.3903 5.4673 15.3469 5.81976 15.3036 6.17222C15.2128 6.90992 15.2694 7.46525 15.4762 7.86996C15.6775 8.26443 16.006 8.49086 16.4791 8.56463C17.1186 8.66402 17.7671 8.67427 18.4003 8.67427C18.4813 8.67427 18.5617 8.67427 18.6414 8.67529H18.7161C19.255 8.67427 19.893 8.65787 20.5388 8.54209C21.2572 8.413 21.7387 7.89353 21.896 7.08C22.0252 6.41402 22.107 5.74496 22.1937 5.03595Z" fill="#CCADCA"/>
<path d="M13.3611 0.440366C13.352 0.504915 13.3436 0.568439 13.3345 0.631964C13.3157 0.766185 13.2961 0.90553 13.2793 1.04487L13.1619 2.01516C13.0005 3.35328 12.8335 4.73647 12.6727 6.09815C12.6133 6.60123 12.4819 6.6043 12.3953 6.60532C11.2442 6.62582 10.0247 6.62684 8.77099 6.60737C8.68642 6.60532 8.65288 6.57664 8.64868 6.56844C8.64449 6.56024 8.63121 6.50491 8.64729 6.37684C8.73814 5.66475 8.83388 4.90655 8.92404 4.15041C9.02257 3.32766 9.12041 2.48647 9.21476 1.67295C9.25599 1.31946 9.29723 0.964956 9.33916 0.607374L9.40136 0.0776607L7.7835 0.0458984L7.70523 0.695489C7.70523 0.695489 7.70523 0.695489 7.70523 0.694464C7.70523 0.695489 7.70453 0.696513 7.70453 0.698562C7.64023 1.2416 7.57943 1.79487 7.52073 2.32971C7.39144 3.50901 7.25726 4.72828 7.07485 5.90246C6.94487 6.73955 7.00978 7.4086 7.26774 7.89016C7.5389 8.39631 8.00713 8.66065 8.65987 8.67602C9.20288 8.68832 9.75078 8.69241 10.2959 8.69241C10.8878 8.69241 11.477 8.68832 12.0556 8.68422L12.3806 8.68114C13.4764 8.67192 14.0383 7.99057 14.2612 6.40041C14.2934 6.16885 14.3213 5.93524 14.3479 5.70983L14.3605 5.60635C14.5065 4.38094 14.6519 3.15553 14.7993 1.9168L15.0181 0.0756116H13.4107L13.3611 0.440366Z" fill="#CCADCA"/>
<path d="M7.0793 0.0800781H1.03487L0.00195312 8.66H1.6247L2.01606 5.48787H6.17288L6.37275 3.42844H2.26835L2.4249 2.11594H2.64434C2.80787 2.11594 2.9714 2.11594 3.13494 2.11696C3.29847 2.11696 3.462 2.11799 3.62554 2.11799C3.81213 2.11901 4.00012 2.11901 4.18952 2.11901C4.75699 2.12004 5.33355 2.11901 5.90382 2.11184C5.96462 2.11184 6.01913 2.11184 6.06945 2.11287C6.11976 2.11389 6.16589 2.11491 6.20852 2.11594C6.23997 2.11696 6.27072 2.11799 6.30007 2.11799C6.31474 2.11799 6.32872 2.11799 6.3427 2.11799C6.34969 2.11799 6.35668 2.11799 6.36367 2.11799C6.38393 2.11799 6.4042 2.11696 6.42377 2.11594C6.43635 2.11491 6.44962 2.11389 6.46151 2.11287C6.47408 2.11184 6.48597 2.10979 6.49785 2.10774C6.50973 2.10569 6.52161 2.10364 6.53279 2.10057C6.55026 2.09647 6.56703 2.09237 6.58311 2.08623C6.65369 2.06164 6.71659 2.0186 6.77529 1.94586C6.92485 1.76041 6.94442 1.50528 6.97237 1.15282C6.98355 1.00836 6.99753 0.829054 7.02199 0.603644L7.0793 0.0800781Z" fill="#CCADCA"/>
<path d="M30.4196 7.89803C30.3959 7.81606 30.3777 7.75049 30.3553 7.68389L30.0115 6.65008C29.3818 4.75561 28.7312 2.79762 28.0889 0.872412C27.9254 0.382658 27.6515 0.0681089 27.3377 0.0107318C27.0176 -0.0486944 26.6919 0.165445 26.4431 0.596797C25.2488 2.66647 22.2612 7.90725 22.2325 7.9677L21.8174 8.68286L22.4848 8.70335C22.5575 8.70335 23.0683 8.70848 23.1452 8.70848C23.5631 8.70848 23.9084 8.42569 24.1942 7.85295C24.4528 7.37754 24.7463 6.83655 25.0328 6.35397C25.1565 6.14598 25.2844 5.92979 25.4081 5.71463L27.0029 2.94106C27.0071 2.9554 27.012 2.96975 27.0169 2.98409C27.1539 3.40417 27.2901 3.82426 27.4271 4.24536C27.8276 5.47795 28.242 6.75254 28.6578 8.00151C28.7312 8.2218 28.9262 8.60807 29.1931 8.6593C29.4259 8.70438 29.6523 8.69721 29.8927 8.68901C29.9856 8.68594 30.0821 8.68286 30.1799 8.68286H30.6503L30.4637 8.04967C30.4462 7.99024 30.4322 7.94106 30.4196 7.89803Z" fill="#CCADCA"/>
<path d="M46.5048 0.748598C46.2525 0.303926 45.8458 0.0785165 45.2622 0.0610985C44.1273 0.0262624 42.8763 0.0252378 41.3263 0.0580247C40.3143 0.0805657 39.6057 0.774213 39.4303 1.91663C39.178 3.56212 38.9984 5.22401 38.8558 6.63282C38.7691 7.48835 39.0892 8.19327 39.6909 8.47196C39.9558 8.59389 40.2312 8.66151 40.5093 8.6738C40.9517 8.69225 41.3989 8.68815 41.8315 8.68507C42.2033 8.682 42.5758 8.682 42.9476 8.68507C43.1433 8.68712 43.3418 8.68815 43.5416 8.68815C43.7883 8.68815 44.0364 8.6861 44.2817 8.67893C45.4111 8.64511 46.133 7.81212 46.3147 6.33261C46.488 4.92073 46.6236 3.77114 46.741 2.71274C46.8382 1.84184 46.7606 1.19839 46.5048 0.748598ZM45.1427 2.4279C45.012 3.6195 44.8723 4.8029 44.7025 6.21479C44.6717 6.46991 44.5997 6.61745 44.3216 6.61745H44.3202C43.8869 6.61745 43.4543 6.61745 43.0217 6.61745H42.4815C42.2998 6.61643 42.1174 6.61848 41.9357 6.6195C41.5268 6.62257 41.1047 6.62462 40.691 6.61335C40.5533 6.60925 40.4981 6.57954 40.4813 6.56725C40.4772 6.54368 40.4702 6.47093 40.489 6.31007C40.5547 5.75475 40.6253 5.18917 40.6931 4.64307C40.7777 3.96684 40.8643 3.26909 40.9433 2.57852C40.9831 2.22913 41.0768 2.11745 41.3291 2.11643L41.8553 2.1154C42.8735 2.11332 43.926 2.11028 44.961 2.12052C45.077 2.12155 45.1309 2.14102 45.1532 2.15229C45.1574 2.1861 45.1609 2.26499 45.1427 2.4279Z" fill="#CCADCA"/>
<path d="M7.72161 0.728711L7.72596 0.709961C7.71726 0.734961 7.71726 0.747461 7.72161 0.728711Z" fill="#CCADCA"/>
</g>
<g opacity="0.1">
<path d="M12.9024 12.2021C12.8982 12.0679 12.8982 11.9634 12.9024 11.8886C12.9059 11.8271 12.894 11.7195 12.8675 11.5669C12.8493 11.5003 12.8157 11.4162 12.7773 11.3384C12.7452 11.2677 12.7067 11.2031 12.6634 11.1457C12.5124 10.9439 12.3216 10.8414 12.0959 10.8414L10.2076 10.8722H9.07475L9.15511 10.158L8.22423 10.5658L8.19069 10.8722H7.0208L7.04596 10.5013H6.90409H6.74475H5.80269L5.80758 10.4992C5.82226 10.4931 5.83623 10.4859 5.84951 10.4808C5.88166 10.4675 5.91311 10.4562 5.94875 10.4429C5.98649 10.4296 6.02493 10.4152 6.06686 10.4009C6.08153 10.3957 6.09551 10.3906 6.11158 10.3855L6.30726 10.321C6.40441 10.2892 6.4715 10.158 6.46521 10.0115L6.44284 9.5105C6.43935 9.41522 6.43516 9.31685 6.43166 9.22054C6.42677 9.08427 6.42258 8.948 6.41978 8.81583C6.41629 8.66726 6.41349 8.51972 6.41139 8.37833C6.4093 8.24923 6.4093 8.11706 6.4086 7.99411C6.4086 7.87628 6.4086 7.75435 6.4093 7.6314C6.50085 7.50026 6.55606 7.33837 6.56864 7.16214C6.58541 6.93058 6.54767 6.71235 6.46031 6.53304C6.40091 6.40702 6.32054 6.30456 6.2269 6.23489L6.00536 6.14575C5.99348 6.1437 5.9816 6.14267 5.96972 6.14267C5.8579 6.1396 5.74748 6.18571 5.65383 6.27587C5.56717 6.35886 5.51476 6.45722 5.47842 6.53407C5.47492 6.52792 5.47143 6.52075 5.46794 6.5146C5.37638 6.34452 5.2464 6.23181 5.09195 6.18981C5.0626 6.18161 5.03325 6.17649 5.00319 6.17546L4.88788 6.18673C4.80681 6.20722 4.72924 6.25231 4.66075 6.3189C4.52867 6.44698 4.43852 6.6478 4.41056 6.87628C4.40427 6.92853 4.40008 6.98079 4.40008 7.03304L4.39239 7.01972C4.39519 6.96952 4.39519 6.91829 4.39239 6.86808C4.3861 6.74411 4.36584 6.60886 4.33578 6.5146L4.21069 6.32095C4.11914 6.19185 4.00033 6.11091 3.87384 6.09042C3.87104 6.09042 3.86895 6.0894 3.86615 6.0894C3.82003 6.08325 3.7725 6.0853 3.72708 6.09554C3.66069 6.10579 3.5936 6.12423 3.55166 6.14575L3.43565 6.28304C3.41609 6.30558 3.39722 6.33017 3.37975 6.35681C3.30077 6.47874 3.24766 6.6314 3.2253 6.79636C3.21901 6.84349 3.21551 6.89165 3.21481 6.93981L3.2239 6.99103C3.2246 7.05353 3.226 7.11194 3.2253 7.13243L3.29309 7.3978C3.31825 7.46235 3.3483 7.52177 3.38394 7.57505C3.37276 7.56481 3.36088 7.55456 3.3483 7.54431C3.29588 7.50333 3.23997 7.47157 3.18197 7.45005C3.03032 7.3937 2.86958 7.43673 2.74099 7.56583C2.71932 7.58735 2.69976 7.60989 2.68019 7.63448L2.63127 7.70415C2.53063 7.86296 2.47542 8.06481 2.47263 8.28919C2.47193 8.37218 2.47892 8.45517 2.49359 8.53509C2.41602 8.52382 2.33705 8.53612 2.26297 8.57198C2.12949 8.63345 2.01557 8.7646 1.94289 8.93981L1.89397 9.08837C1.86113 9.21952 1.85134 9.36091 1.86602 9.49923C1.8793 9.62935 1.91284 9.75026 1.96805 9.86911C2.05471 10.0576 2.18819 10.1898 2.34054 10.238C2.38108 10.2513 2.42231 10.2574 2.46354 10.2564L2.71303 10.5945C2.72981 10.6181 2.74658 10.6416 2.76475 10.6652C2.78292 10.6888 2.79969 10.7123 2.81716 10.7369L2.9178 10.8763C2.93946 10.906 2.96113 10.9357 2.98279 10.9654C3.00725 10.9992 3.03171 11.0341 3.05617 11.0679L3.50414 11.7011C3.58311 11.8169 3.69004 11.8814 3.80186 11.8824C3.85776 11.8824 3.91367 11.865 3.96399 11.8302C3.99824 11.8087 4.03038 11.781 4.05904 11.7472L4.06533 11.74C4.07162 11.7328 4.07791 11.7257 4.0842 11.7185L4.13451 11.6642C4.17085 11.6242 4.20789 11.5832 4.24493 11.5464C4.28197 11.5095 4.32111 11.4726 4.36304 11.4337L4.40287 11.3968C4.43642 11.365 4.46507 11.3384 4.49373 11.3138C4.52867 11.283 4.56571 11.2523 4.60904 11.2175C4.63979 11.1929 4.67194 11.1683 4.70408 11.1437L4.72016 11.1314C4.74042 11.115 4.76209 11.0986 4.78445 11.0832L4.8166 11.0607C4.85014 11.0371 4.88229 11.0136 4.91444 10.9931L4.92842 10.9839C4.96755 10.9593 5.00809 10.9347 5.04792 10.9101L5.13877 10.8548C5.18001 10.8291 5.22054 10.8046 5.26177 10.7789L5.43858 11.1949C5.44138 11.2011 5.44348 11.2062 5.44487 11.2103L5.44417 11.2615L5.33236 12.9798L5.33096 13.0105L4.93121 13.7994H6.55606L6.23948 13.071L6.26184 12.6929L6.53719 13.3814C6.53929 13.3865 6.54138 13.3916 6.54348 13.3968L6.55606 13.4285L6.55676 13.4275C6.5938 13.5095 6.64202 13.5822 6.70002 13.6437C6.82512 13.7769 6.98446 13.8435 7.17315 13.8435C7.25911 13.8435 7.34507 13.8292 7.42893 13.7994H8.32417C8.37728 13.824 8.43878 13.8394 8.51007 13.8394C8.65473 13.8394 8.7966 13.7759 8.93148 13.6509C9.05588 13.7789 9.21242 13.8435 9.39762 13.8435C9.48428 13.8435 9.57024 13.8292 9.6541 13.7994H9.70162H10.7115H11.2489L11.0609 13.1519V13.1498C11.0993 13.2759 11.1504 13.3886 11.2154 13.489C11.3258 13.658 11.527 13.8609 11.8611 13.8609C12.0694 13.8609 12.258 13.8609 12.4656 13.6652C12.5523 13.5873 12.6634 13.3537 12.799 12.9644L12.8682 12.6908L13.01 12.0443L12.9024 12.2021ZM11.8723 12.5556L11.873 12.5412H12.2203C12.2154 12.5484 12.2105 12.5546 12.2049 12.5597L12.1141 12.6498C12.0288 12.7195 11.9729 12.7349 11.9408 12.7349C11.924 12.7359 11.9072 12.7328 11.8904 12.7267C11.8856 12.7123 11.873 12.6632 11.8723 12.5556ZM9.7177 11.4787L9.71839 11.4818C9.72468 11.5074 9.72888 11.5259 9.73167 11.5382L9.72748 11.6068L9.62335 12.5556C9.61636 12.6212 9.61077 12.658 9.60797 12.6765C9.60658 12.6796 9.60378 12.6837 9.60099 12.6888C9.59679 12.6949 9.5926 12.7011 9.58771 12.7062L9.7177 11.4787ZM7.49253 11.4787L7.49323 11.4818C7.49952 11.5074 7.50371 11.5259 7.50651 11.5382L7.50231 11.6068L7.39818 12.5556C7.39119 12.6212 7.3856 12.658 7.38281 12.6765C7.38141 12.6796 7.37862 12.6837 7.37582 12.6888C7.37163 12.6949 7.36743 12.7011 7.36254 12.7062L7.49253 11.4787ZM3.4699 7.68058L3.50865 7.71704C3.50865 7.72746 3.51253 7.73267 3.51253 7.74308L3.4699 7.68058ZM3.70192 9.29022C3.70192 9.28714 3.70262 9.28407 3.70262 9.28099C3.78508 9.28099 3.86685 9.25743 3.94303 9.21235C4.07162 9.1355 4.17644 8.99411 4.24493 8.80456C4.27428 8.72157 4.29595 8.63243 4.30923 8.54022C4.33509 8.55968 4.36234 8.5771 4.3896 8.59247C4.49443 8.6519 4.60904 8.66829 4.72016 8.6396C4.76488 8.62731 4.80891 8.60784 4.85084 8.5812C4.92003 8.53714 4.98293 8.47464 5.03674 8.39677C5.04792 8.38038 5.0591 8.36399 5.06959 8.34657C5.16463 8.45005 5.27785 8.5105 5.39595 8.52075C5.46304 8.52587 5.53013 8.51358 5.59443 8.48489C5.59653 8.60681 5.59932 8.73181 5.60212 8.85886C5.60561 8.99821 5.6098 9.14062 5.6147 9.28407C5.6147 9.30046 5.61539 9.31583 5.61609 9.33222C5.60072 9.3394 5.58534 9.34554 5.56997 9.35272L5.50917 9.37935C5.4868 9.38858 5.46374 9.39882 5.44068 9.40907C5.42321 9.41624 5.40644 9.42546 5.38827 9.43468C5.38267 9.43776 5.37708 9.44083 5.37149 9.44288L5.27435 9.48899C5.25339 9.49923 5.23312 9.50948 5.21565 9.51972L5.02276 9.62935C5.00739 9.63755 4.99201 9.64575 4.97594 9.65599C4.92422 9.68776 4.87251 9.71952 4.82149 9.75128L4.73763 9.80251C4.6929 9.82915 4.64748 9.85681 4.60135 9.88653L4.58528 9.89677C4.54055 9.92546 4.50002 9.95415 4.45599 9.98591L4.42873 10.0054C4.39798 10.0269 4.36863 10.0494 4.34138 10.0699L4.3267 10.0812C4.29036 10.1089 4.25262 10.1376 4.21558 10.1673C4.16526 10.2072 4.12054 10.2451 4.0786 10.281C4.04087 10.3138 4.00522 10.3466 3.96259 10.3865L3.92276 10.4234C3.8955 10.449 3.86685 10.4757 3.8382 10.5033L3.8354 10.5003C3.81653 10.4736 3.79766 10.447 3.7781 10.4193L3.62225 10.2011C3.59639 10.1652 3.57123 10.1294 3.54537 10.0935C3.52231 10.0617 3.49925 10.03 3.47689 9.99923L3.42238 9.92444C3.44893 9.89985 3.47409 9.87218 3.49925 9.84452C3.61177 9.70312 3.68375 9.50538 3.70192 9.29022Z" fill="#CCADCA"/>
<path d="M22.5831 10.957L22.3015 10.874L22.2959 10.873C22.2127 10.8505 22.1289 10.8392 22.0443 10.8392C21.7123 10.8392 21.4314 10.9949 21.2092 11.3013C21.1679 11.1917 21.1078 11.0964 21.0317 11.0216C20.9073 10.8996 20.7521 10.8382 20.569 10.8382C20.4942 10.8382 20.4195 10.8494 20.3468 10.873H19.9331C19.9463 10.8085 19.9533 10.7398 19.9526 10.6712C19.9526 10.4806 19.9051 10.3085 19.8156 10.1783C19.7262 10.0482 19.6158 9.97853 19.4949 9.97853C19.3684 9.97751 19.2468 10.0492 19.1559 10.1783C19.0581 10.3136 19.0043 10.4939 19.0043 10.6845C19.0036 10.748 19.0099 10.8115 19.021 10.873H18.7066C18.6388 10.8474 18.5654 10.8341 18.4878 10.8341C18.3243 10.8341 18.1726 10.8884 18.0357 10.9949C17.9916 10.955 17.9448 10.9232 17.8952 10.8986C17.74 10.8208 17.5541 10.8167 17.3885 10.874H16.4059H16.3745L16.371 10.873C16.2878 10.8505 16.2039 10.8392 16.1194 10.8392C15.7734 10.8392 15.4827 11.0093 15.257 11.3453C15.2479 11.3587 15.2388 11.373 15.2304 11.3863L15.2619 10.4519L14.8244 10.5236L14.802 10.5205L14.5602 10.4509H14.4288C14.1032 10.4509 13.811 10.6455 13.5832 11.0134C13.3603 11.374 13.2471 11.8095 13.2471 12.3074C13.2471 12.7572 13.3407 13.1281 13.5266 13.414C13.7125 13.6998 13.9669 13.8505 14.2618 13.8505C14.3617 13.8505 14.461 13.8392 14.5602 13.8167C14.663 13.7921 14.7643 13.7603 14.8642 13.7193L15.1815 13.5718C15.3129 13.747 15.4799 13.8382 15.6707 13.8382C15.7266 13.8371 15.7832 13.8279 15.8391 13.8115C15.8517 13.8074 15.8636 13.8033 15.8755 13.7992L16.1529 13.7982H17.5164L18.4536 13.7992L18.4529 13.7982H18.9253H19.9058H20.9331L20.6256 14.1763L20.8255 14.5236C20.9003 14.6548 20.959 14.7367 21.0149 14.7921L21.0275 14.8033C21.0624 14.8351 21.0994 14.8617 21.1379 14.8832C21.1756 14.9037 21.2141 14.9222 21.2525 14.9376C21.3406 14.9775 21.4328 14.998 21.5258 14.999C21.7885 14.999 22.0275 14.8525 22.219 14.5738C22.4 14.3095 22.5132 13.9683 22.5545 13.5646L22.7453 11.8341L22.7641 11.6917L22.9996 11.083L22.5831 10.957ZM21.7941 12.497C21.785 12.5769 21.7787 12.623 21.7745 12.6476C21.7717 12.6537 21.7676 12.6609 21.762 12.6701C21.7557 12.6794 21.7487 12.6876 21.7417 12.6947C21.734 12.6435 21.7305 12.5902 21.7312 12.5369C21.7312 12.3279 21.7662 12.1589 21.8381 12.0205L21.8472 12.0042L21.7941 12.497ZM15.9195 12.0164L15.8636 12.4898C15.8524 12.583 15.8447 12.6312 15.8412 12.6527C15.8391 12.6568 15.8356 12.6619 15.8321 12.6691C15.8266 12.6763 15.8217 12.6835 15.8161 12.6896C15.8091 12.6394 15.8063 12.5882 15.807 12.5369C15.807 12.33 15.8426 12.1619 15.9153 12.0236L15.9195 12.0164ZM14.3212 11.6087C14.3694 11.539 14.417 11.5236 14.4701 11.5236C14.5483 11.5236 14.5763 11.5574 14.5882 11.5708L14.5917 11.5748L14.6036 11.5984C14.605 11.6005 14.607 11.6035 14.6091 11.6087H14.3212ZM14.3324 12.3197L14.3051 12.7736C14.2611 12.7726 14.2492 12.7531 14.2346 12.7224C14.1954 12.6414 14.1745 12.5011 14.1745 12.3167C14.1731 12.1927 14.1821 12.0697 14.201 11.9488L14.3324 12.3197ZM20.3 12.708C20.2902 12.7992 20.2776 12.8894 20.2615 12.9785L20.2475 13.0564L20.3454 12.1373C20.3496 12.0923 20.3559 12.0472 20.3649 12.0031L20.3719 11.9929L20.3768 11.9898L20.3 12.708Z" fill="#CCADCA"/>
<path d="M34.1469 11.0874L33.9128 10.9563C33.8639 10.9296 33.8241 10.9081 33.7905 10.8948C33.757 10.8815 33.7206 10.8682 33.6808 10.8569C33.6361 10.8436 33.5913 10.8364 33.5459 10.8354H33.4774C33.244 10.8354 33.0448 10.9327 32.8862 11.1243C32.8736 11.1397 32.861 11.1561 32.8492 11.1725C32.8163 11.1161 32.7779 11.0669 32.7331 11.0229C32.6094 10.8999 32.4536 10.8385 32.2705 10.8385C32.2209 10.8385 31.8176 10.8497 31.0608 10.8733L31.1055 11.0434C30.956 10.901 30.7805 10.8292 30.5821 10.8292C30.4416 10.8282 30.3018 10.8641 30.169 10.9337C30.0817 10.9819 29.9985 11.0444 29.9216 11.1202L29.9272 11.0649C29.981 10.9491 30.0097 10.8128 30.009 10.6725C30.009 10.4809 29.9615 10.3087 29.872 10.1786C29.7826 10.0485 29.6714 9.97882 29.5512 9.97882C29.4247 9.97779 29.3031 10.0495 29.2123 10.1786C29.2025 10.1919 29.1934 10.2063 29.1843 10.2206L28.396 10.5659L28.3625 10.8702H27.1241L27.2436 9.74316H26.1171L26.2855 10.3641C26.289 10.3794 26.2925 10.3907 26.2946 10.3999L26.2897 10.4757L26.2072 11.2319C26.1995 11.2206 26.1925 11.2094 26.1848 11.1991C26.0094 10.9532 25.7879 10.8292 25.5272 10.8292C25.3867 10.8282 25.247 10.8641 25.1142 10.9337C24.9835 11.0055 24.8626 11.1089 24.7571 11.2421C24.7515 11.2493 24.7459 11.2555 24.741 11.2626L24.806 10.1786L24.3524 10.5116L24.2811 10.4829C24.2071 10.4563 24.1309 10.4419 24.0547 10.4409C23.8388 10.4409 23.6494 10.5413 23.4928 10.738C23.4914 10.7401 23.4893 10.7421 23.4879 10.7442C23.4355 10.8139 23.3726 10.9614 23.3601 11.0792C23.3307 11.3497 23.3118 11.7975 23.3041 12.4204L23.1721 12.1182L23.0742 13.4778L23.4118 13.7411L23.5683 13.8067L23.5907 13.8149C23.6669 13.8374 23.7451 13.8497 23.8227 13.8497C24.0596 13.8497 24.2679 13.7421 24.4412 13.53L24.5481 13.3528C24.5705 13.3938 24.5942 13.4327 24.6201 13.4696C24.7962 13.7216 25.0233 13.8497 25.2945 13.8497C25.3958 13.8497 25.493 13.8323 25.5852 13.7975H27.0738H27.0982C27.173 13.8272 27.2555 13.8415 27.3435 13.8415C27.4302 13.8415 27.5162 13.8272 27.6 13.7964H28.2702L28.2695 13.7975H28.4953C28.5484 13.8221 28.6099 13.8374 28.6812 13.8374C28.7476 13.8374 28.8132 13.8241 28.8782 13.7975H29.9622L29.9356 13.7298C30.0586 13.8098 30.197 13.8497 30.3493 13.8497C30.4507 13.8497 30.5478 13.8323 30.6401 13.7975H32.8513C32.8806 13.8108 32.9093 13.821 32.9372 13.8292C33.0078 13.8497 33.0798 13.861 33.1518 13.863C33.388 13.863 33.5941 13.7534 33.764 13.5382C33.8017 13.4901 33.8373 13.4378 33.8688 13.3805L33.9072 13.3046C33.9946 13.1171 34.0407 12.8948 34.0393 12.6673C34.0393 12.568 34.0288 12.4696 34.0072 12.3764L34.1469 11.0874ZM30.3696 12.8005C30.3654 12.8016 30.3619 12.8005 30.3577 12.7995C30.3549 12.7964 30.3528 12.7923 30.3493 12.7882C30.3298 12.7555 30.3151 12.693 30.3088 12.611V12.529C30.3088 12.3098 30.3403 12.1417 30.4052 12.0137C30.4647 11.8969 30.5122 11.8866 30.552 11.8866C30.5548 11.8866 30.5583 11.8866 30.5604 11.8866L30.5667 11.8999C30.5737 11.9132 30.6051 11.9901 30.6051 12.2145C30.6051 12.401 30.5744 12.5516 30.5101 12.6735C30.4437 12.8005 30.3955 12.8005 30.3696 12.8005ZM27.6636 11.4788L27.6643 11.4819C27.6706 11.5075 27.6748 11.526 27.6776 11.5382L27.6734 11.6069L27.5693 12.5557C27.5623 12.6212 27.5574 12.6581 27.5539 12.6766C27.5525 12.6796 27.5497 12.6837 27.5469 12.6889C27.5427 12.695 27.5385 12.7012 27.5336 12.7063L27.6636 11.4788ZM25.3155 12.8005C25.3113 12.8016 25.3078 12.8005 25.3036 12.7995C25.3001 12.7964 25.298 12.7923 25.2959 12.7882C25.2756 12.7555 25.2616 12.693 25.2554 12.611V12.529C25.2554 12.3098 25.2868 12.1417 25.3518 12.0137C25.4112 11.8969 25.4587 11.8866 25.4986 11.8866C25.5021 11.8866 25.5049 11.8866 25.5069 11.8866L25.5132 11.8999C25.5202 11.9132 25.5517 11.9901 25.5517 12.2145C25.5517 12.401 25.5209 12.5516 25.4566 12.6735C25.3895 12.8005 25.3413 12.8005 25.3155 12.8005ZM23.8367 12.7637C23.8346 12.7678 23.8297 12.7739 23.8059 12.7739C23.7899 12.7739 23.7885 12.7719 23.7829 12.7637L23.7773 12.7555C23.7731 12.7473 23.7696 12.7391 23.7668 12.7298L23.7598 12.7114C23.7556 12.7012 23.7521 12.6899 23.7493 12.6786C23.7458 12.6673 23.743 12.655 23.7395 12.6417L23.7836 12.6909L23.822 12.7411L23.8367 12.7637ZM32 12.7083C31.9903 12.7995 31.9777 12.8897 31.9616 12.9788L31.9476 13.0567L32.0455 12.1376C32.0497 12.0925 32.056 12.0475 32.065 12.0034L32.072 11.9932L32.0769 11.9901L32 12.7083Z" fill="#CCADCA"/>
</g>
<path d="M1.75805 5.03428C1.61968 6.15723 1.49388 7.17464 1.36599 8.20641H0.370117C0.68041 5.62956 0.987209 3.08141 1.29401 0.532227H6.71645C6.57179 1.86317 6.77656 1.64596 5.90019 1.65825C4.81416 1.67362 3.72813 1.66235 2.64281 1.66235C2.49185 1.66235 2.3409 1.66235 2.16339 1.66235C2.07463 2.40723 1.99147 3.09985 1.89852 3.88059H6.0148C5.97357 4.30374 5.94142 4.63878 5.90298 5.03428H1.75805Z" fill="#CCADCA"/>
<path d="M8.04732 0.499023L9.03411 0.529761C8.89434 1.72751 8.75946 2.89964 8.61969 4.07074C8.53163 4.81255 8.43798 5.5523 8.34364 6.29206C8.27934 6.79615 8.45616 7.05333 8.76855 7.05845C9.97897 7.07689 11.1894 7.07689 12.3998 7.0564C12.7639 7.05025 12.9198 6.66808 12.9778 6.17423C13.1762 4.4898 13.381 2.8064 13.5837 1.123C13.6074 0.927302 13.6361 0.73263 13.6641 0.527712H14.6501C14.4496 2.21726 14.2525 3.87197 14.0554 5.52771C14.0247 5.78796 13.9939 6.04923 13.9583 6.30845C13.7661 7.68038 13.33 8.21931 12.3789 8.22751C11.1405 8.23775 9.90209 8.2521 8.66372 8.22341C7.54484 8.19779 7.15837 7.39861 7.37502 6.00415C7.64338 4.28079 7.80063 2.52054 8.00749 0.776687C8.01797 0.697794 8.02216 0.59431 8.04732 0.499023Z" fill="#CCADCA"/>
<path d="M22.0106 4.00772C21.8695 5.05793 21.78 6.02514 21.6004 6.95547C21.4557 7.70445 20.984 8.00465 20.5032 8.09072C19.9126 8.19625 19.313 8.21981 18.7176 8.22084C17.9824 8.22186 17.2423 8.22801 16.5127 8.11428C15.7174 7.99031 15.4679 7.40219 15.6084 6.25363C15.7705 4.93191 15.9396 3.61121 16.0906 2.28744C16.171 1.5774 16.4204 1.06613 16.8782 0.840716C17.2157 0.674733 17.5764 0.529241 17.9286 0.52002C19.32 0.484159 20.7114 0.504651 22.1036 0.5067C22.1714 0.5067 22.2391 0.496454 22.3062 0.507725C22.244 1.63272 22.244 1.66346 21.4921 1.66346C20.3229 1.66346 19.1544 1.66346 17.9852 1.66449C17.264 1.66551 17.1403 1.81715 17.0215 2.8151C16.888 3.93703 16.7538 5.05998 16.6189 6.18191C16.5407 6.83252 16.6392 7.05076 17.1032 7.06305C18.0767 7.08764 19.051 7.08867 20.0252 7.06408C20.5318 7.05178 20.6639 6.84482 20.7562 6.09277C20.817 5.59174 20.8743 5.09379 20.9274 4.58764C20.9805 4.0815 21.1007 4.00363 21.4068 4.00363C21.6004 4.00363 21.759 4.00772 22.0106 4.00772Z" fill="#CCADCA"/>
<path d="M30.1798 8.22755C29.8332 8.22755 29.5292 8.26546 29.2336 8.20808C29.1225 8.18657 28.9932 7.97243 28.9359 7.80132C28.3817 6.13534 27.8408 4.45911 27.2957 2.78595C27.2307 2.58616 27.1608 2.38841 27.0692 2.11894C26.4214 3.24599 25.7959 4.33308 25.1711 5.42017C24.7588 6.13739 24.3514 6.89558 23.9439 7.58308C23.6812 8.02571 23.4533 8.21628 23.0976 8.26443C23.0494 8.27058 22.6888 8.25521 22.4561 8.22857C22.5434 8.04722 22.6238 7.91915 22.6888 7.80644C24.0173 5.49907 25.3472 3.19271 26.6779 0.888411C27.0511 0.242919 27.5619 0.324886 27.8107 1.07079C28.5676 3.34025 29.323 5.60972 30.0771 7.88124C30.1065 7.96833 30.1302 8.05952 30.1798 8.22755Z" fill="#CCADCA"/>
<path d="M31.1113 8.22168C31.1512 7.88049 31.205 7.48295 31.2525 7.07106H32.1275C33.3533 7.07106 34.5791 7.07106 35.8049 7.07004C36.3877 7.06799 36.5422 6.87434 36.6442 6.04647C36.7986 4.79135 36.7329 4.67557 35.8594 4.67557C34.8984 4.67557 33.9375 4.68377 32.9759 4.66942C32.7425 4.66533 32.5021 4.62229 32.277 4.53213C31.7662 4.32824 31.5251 3.7934 31.5635 3.02291C31.6425 1.44094 32.1631 0.577211 33.2387 0.527006C34.809 0.453235 36.3828 0.507539 37.9525 0.507539C37.9979 1.60385 37.9622 1.66225 37.2739 1.66225C35.9789 1.66225 34.6832 1.66225 33.3875 1.66123C33.059 1.6602 32.7711 1.76164 32.6565 2.28315C32.4531 3.20938 32.609 3.50959 33.2827 3.51778C34.396 3.5311 35.5106 3.50959 36.6225 3.57926C37.5171 3.63459 37.8518 4.33028 37.6897 5.6141C37.6722 5.75447 37.6603 5.89688 37.6443 6.03725C37.4849 7.44914 36.9831 8.17762 35.9852 8.21246C35.0843 8.24319 33.6363 8.25139 32.5524 8.24627C31.7438 8.2432 31.1379 8.23397 31.1113 8.22168Z" fill="#CCADCA"/>
<path d="M42.3552 8.22849C41.743 8.22849 41.1301 8.24488 40.5179 8.22029C40.2691 8.21005 40.0217 8.14857 39.7841 8.03997C39.3431 7.83505 39.0936 7.36374 39.1614 6.6998C39.3201 5.13116 39.4948 3.56251 39.7317 2.0164C39.8777 1.06456 40.492 0.529721 41.3307 0.512303C42.6389 0.484639 43.9479 0.475418 45.2562 0.514352C46.2429 0.544065 46.5952 1.21312 46.4365 2.64038C46.303 3.84632 46.1591 5.05021 46.0116 6.25206C45.8551 7.52357 45.268 8.1957 44.2771 8.22542C43.6362 8.24386 42.996 8.22849 42.3552 8.22849ZM42.4803 7.06968C43.0932 7.06968 43.7054 7.06968 44.3183 7.06968C44.6852 7.0707 44.9389 6.84837 45.0053 6.29202C45.1569 5.0287 45.3072 3.76435 45.4463 2.49796C45.514 1.88218 45.3931 1.67009 44.9619 1.66599C43.7501 1.6537 42.539 1.65984 41.3272 1.66292C40.9428 1.66394 40.7045 1.91189 40.6367 2.50308C40.4941 3.74796 40.3299 4.98771 40.1831 6.23157C40.114 6.8207 40.2495 7.05226 40.6835 7.06456C41.2824 7.083 41.8821 7.06968 42.4803 7.06968Z" fill="#CCADCA"/>
<path d="M6.20837 6.79516C6.14617 6.66709 6.06091 6.59844 5.96237 6.59536C5.91206 6.59434 5.86314 6.61483 5.8212 6.65582C5.78067 6.69475 5.75411 6.74393 5.73175 6.79209C5.67654 6.90377 5.66606 7.05028 5.7038 7.17733C5.71288 7.20704 5.72406 7.23573 5.73804 7.26237C5.73245 7.27774 5.72686 7.29311 5.72127 7.30848C5.71218 7.33409 5.7038 7.35766 5.69471 7.3802C5.65977 7.46524 5.61644 7.54926 5.55494 7.65479C5.52279 7.71012 5.49484 7.74291 5.46549 7.76135C5.46199 7.7634 5.4585 7.76545 5.4557 7.7675C5.44662 7.77262 5.43683 7.77569 5.42705 7.77569C5.39909 7.77364 5.37393 7.75315 5.34249 7.70704C5.31803 7.67221 5.29846 7.62303 5.27749 7.5718C5.2726 7.5595 5.26771 7.54721 5.26212 7.53389C5.24884 7.50315 5.23696 7.47036 5.22648 7.43758C5.21529 7.39864 5.20481 7.35971 5.19433 7.31975C5.21529 7.28594 5.23346 7.25008 5.24884 7.21012C5.2698 7.15684 5.28169 7.09741 5.28308 7.03594C5.28448 6.94885 5.26421 6.86381 5.22648 6.79618C5.18105 6.71217 5.11745 6.65786 5.03639 6.63635C4.9658 6.61688 4.89242 6.63942 4.83302 6.69782C4.77082 6.75725 4.72819 6.85151 4.71561 6.95909C4.71072 7.00008 4.70583 7.05336 4.71561 7.10868C4.7247 7.15377 4.73658 7.19782 4.75195 7.23881L4.75545 7.24905C4.77292 7.29926 4.79808 7.34332 4.82882 7.37713C4.82393 7.42118 4.81625 7.46422 4.80576 7.5052C4.78829 7.57487 4.76872 7.64352 4.74776 7.71627L4.74077 7.73983C4.72749 7.78696 4.70722 7.82897 4.68276 7.86381C4.67368 7.87815 4.6625 7.88942 4.64992 7.89762C4.64433 7.90172 4.63804 7.90377 4.63245 7.90582C4.61148 7.91094 4.58982 7.90684 4.57025 7.89454C4.5353 7.87508 4.50036 7.84332 4.45563 7.78901C4.40741 7.72959 4.36269 7.66504 4.32215 7.59434C4.25087 7.47446 4.19356 7.3761 4.14185 7.28594C4.11878 7.24598 4.09502 7.20397 4.07266 7.16299C4.06777 7.15479 4.06357 7.14659 4.05868 7.1384C4.06777 7.10561 4.07476 7.07282 4.08035 7.03799C4.09712 6.92836 4.08244 6.8136 4.03911 6.72036C3.99439 6.61995 3.92171 6.55438 3.83994 6.54106C3.78333 6.53184 3.73651 6.55643 3.70576 6.5759C3.69388 6.58409 3.6827 6.59127 3.67221 6.59946L3.67012 6.60049C3.64566 6.61791 3.62329 6.64147 3.60442 6.67016C3.56599 6.73061 3.53943 6.80541 3.52965 6.88635C3.51916 6.96319 3.52895 7.03286 3.53873 7.08409C3.55481 7.17016 3.58975 7.24598 3.63867 7.29926C3.67012 7.33409 3.70646 7.35971 3.7442 7.37508C3.74629 7.38532 3.74839 7.39454 3.74979 7.40479C3.75188 7.41811 3.75468 7.43245 3.75747 7.44577C3.76656 7.497 3.77565 7.54516 3.78193 7.59332C3.79591 7.69987 3.80639 7.78901 3.81338 7.87815C3.82736 8.05541 3.82946 8.2009 3.81897 8.33512C3.81688 8.37713 3.80919 8.41811 3.79661 8.45602C3.78124 8.49905 3.76516 8.5134 3.75468 8.51954L3.75328 8.52057C3.72882 8.53491 3.69877 8.53799 3.66173 8.52877C3.64845 8.52569 3.63378 8.51954 3.6184 8.51442C3.60442 8.5093 3.59045 8.50418 3.57507 8.49905C3.51427 8.48061 3.46954 8.46012 3.43111 8.43348C3.39826 8.41094 3.36751 8.38225 3.34026 8.34741C3.34165 8.27877 3.33257 8.21114 3.3144 8.14864C3.30252 8.10868 3.28784 8.07077 3.27037 8.03594C3.2543 7.997 3.23123 7.96524 3.20468 7.9427C3.17463 7.91913 3.14248 7.90069 3.10963 7.8884C3.04324 7.86278 2.97266 7.88123 2.91605 7.93758C2.83079 8.02364 2.78396 8.14762 2.78257 8.29516C2.78117 8.39762 2.80563 8.49803 2.85385 8.58512C2.89019 8.65172 2.94261 8.6968 3.0055 8.71627C3.03695 8.72549 3.0684 8.72856 3.10055 8.72446C3.11033 8.74905 3.12012 8.77262 3.1278 8.79618C3.13759 8.8259 3.14597 8.85664 3.15366 8.88737C3.15715 8.90069 3.16065 8.91401 3.16414 8.92733C3.16554 8.93348 3.16694 8.93963 3.16764 8.9468C3.16973 8.96114 3.17183 8.97446 3.17393 8.98881C3.17812 9.01647 3.18231 9.04516 3.18721 9.07487C3.19699 9.12815 3.20048 9.16606 3.19769 9.19885C3.19559 9.22959 3.18441 9.25725 3.16834 9.27672C3.15506 9.29209 3.14108 9.30438 3.12501 9.3136C3.11732 9.31873 3.10963 9.32282 3.10195 9.32795C3.09426 9.33307 3.08587 9.33717 3.07749 9.34024C3.0055 9.34127 2.9454 9.33922 2.88949 9.33409C2.82869 9.32795 2.76789 9.31565 2.70849 9.29516C2.70639 9.28491 2.70429 9.27364 2.7015 9.26237C2.68263 9.18655 2.64699 9.11893 2.59667 9.06258C2.52539 8.98266 2.44082 8.96012 2.35766 9.00008C2.29127 9.03082 2.23466 9.09741 2.20112 9.18758C2.17386 9.26135 2.16338 9.34536 2.17176 9.42836C2.17805 9.49086 2.19483 9.54823 2.22348 9.61073C2.26611 9.70397 2.3311 9.76852 2.40588 9.79209C2.4583 9.80848 2.51281 9.80028 2.56173 9.76955L2.66516 9.90889L2.7001 9.95602L2.75531 10.0308L2.821 10.121L2.87551 10.1958C2.88949 10.2152 2.90347 10.2337 2.91745 10.2521C2.93701 10.2788 2.95728 10.3054 2.97685 10.3331C2.99782 10.3618 3.01878 10.3915 3.03975 10.4202L3.08308 10.4806L3.1299 10.5452C3.15226 10.5759 3.17393 10.6056 3.19629 10.6363C3.22145 10.6712 3.24591 10.706 3.27107 10.7409L3.32069 10.8105C3.33606 10.832 3.35074 10.8525 3.36541 10.873C3.38638 10.9017 3.40665 10.9304 3.42761 10.9591C3.44578 10.9847 3.46395 11.0103 3.48212 11.0359C3.4961 11.0554 3.50938 11.0749 3.52336 11.0943C3.54362 11.123 3.56389 11.1517 3.58416 11.1804C3.60792 11.2142 3.63168 11.248 3.65544 11.2818C3.66732 11.2993 3.6792 11.3167 3.69178 11.3331L3.72253 11.3771C3.77355 11.4509 3.82876 11.4243 3.84483 11.414C3.85322 11.4089 3.8616 11.4017 3.86929 11.3925L3.87418 11.3874C3.88397 11.3761 3.89375 11.3648 3.90354 11.3546C3.91961 11.3372 3.93568 11.3197 3.95176 11.3023C3.99089 11.2593 4.03143 11.2152 4.07126 11.1753C4.11249 11.1333 4.15443 11.0943 4.19915 11.0523L4.23829 11.0154C4.27533 10.9806 4.30678 10.9519 4.33893 10.9243C4.37596 10.8925 4.4165 10.8587 4.46192 10.8218C4.49547 10.7952 4.52971 10.7685 4.56326 10.7429L4.57863 10.7316C4.6017 10.7132 4.62685 10.6947 4.65201 10.6773L4.67997 10.6579C4.71841 10.6302 4.75475 10.6046 4.79248 10.581L4.80786 10.5708C4.85049 10.5431 4.89452 10.5165 4.93715 10.4909L4.99515 10.455L5.02101 10.4396C5.07203 10.4079 5.12304 10.3771 5.17406 10.3454C5.18385 10.3392 5.19433 10.3341 5.20551 10.3279C5.2125 10.3238 5.21879 10.3208 5.22578 10.3167C5.25653 10.2993 5.28798 10.2818 5.31873 10.2634L5.36205 10.2388L5.39979 10.2173C5.41237 10.2101 5.42495 10.2029 5.43683 10.1978C5.45291 10.1896 5.46898 10.1825 5.48505 10.1753L5.53327 10.1527C5.54306 10.1476 5.55214 10.1435 5.56193 10.1384C5.57311 10.1322 5.58429 10.1271 5.59408 10.122C5.61364 10.1128 5.63391 10.1046 5.65348 10.0964L5.68842 10.081C5.6989 10.0769 5.70869 10.0718 5.71917 10.0677C5.73664 10.0595 5.75342 10.0523 5.77019 10.0452C5.80443 10.0318 5.83868 10.0185 5.87641 10.0052C5.91555 9.99086 5.95539 9.97651 5.99871 9.96114C6.01479 9.95602 6.03086 9.94987 6.04763 9.94475L6.15386 9.90991L6.14687 9.75315C6.14547 9.73061 6.14478 9.70909 6.14408 9.68655C6.14268 9.64454 6.14058 9.60356 6.13919 9.56258C6.13499 9.45909 6.1301 9.35151 6.12661 9.24598C6.12171 9.10664 6.11752 8.96832 6.11403 8.83307C6.11053 8.68143 6.10774 8.53184 6.10564 8.3884C6.10354 8.25623 6.10354 8.122 6.10284 7.997C6.10215 7.872 6.10284 7.74393 6.10354 7.61586C6.10354 7.56463 6.10424 7.5134 6.10494 7.46217C6.10494 7.44373 6.10564 7.42426 6.10564 7.40582C6.13569 7.38225 6.16295 7.35254 6.18811 7.31975C6.23283 7.26032 6.25869 7.19168 6.26428 7.11688C6.26987 6.99188 6.2517 6.8843 6.20837 6.79516ZM5.90157 7.45295C5.90087 7.5052 5.90018 7.55745 5.90018 7.61073C5.89948 7.74086 5.89948 7.86995 5.89948 7.99598C5.89948 8.12303 5.90018 8.25827 5.90227 8.3925C5.90437 8.53799 5.90716 8.6886 5.91066 8.84127C5.91415 8.97754 5.91835 9.11791 5.92324 9.2593C5.92673 9.36586 5.93162 9.47446 5.93582 9.57897C5.93722 9.61176 5.93861 9.64557 5.94001 9.67836C5.89948 9.6927 5.86174 9.70602 5.8247 9.71934C5.78556 9.73368 5.75062 9.747 5.71428 9.76135C5.69471 9.76954 5.67584 9.77774 5.65767 9.78594C5.64789 9.79004 5.6388 9.79414 5.62902 9.79823C5.61784 9.80336 5.60665 9.80848 5.59547 9.81258C5.57451 9.8218 5.55354 9.83102 5.53258 9.84024C5.5186 9.84639 5.50532 9.85356 5.49274 9.85971C5.48435 9.86381 5.47667 9.86791 5.46828 9.872L5.42216 9.89352C5.40538 9.90172 5.38861 9.90889 5.37254 9.91709C5.35576 9.92528 5.34039 9.93348 5.32711 9.94168L5.28798 9.96422L5.24465 9.98881L5.1517 10.0411L5.13353 10.0513C5.12095 10.0585 5.10837 10.0646 5.09579 10.0728C5.04477 10.1046 4.99306 10.1353 4.94204 10.1671L4.91618 10.1825L4.85818 10.2183C4.81485 10.245 4.77012 10.2716 4.72609 10.3003L4.71002 10.3105C4.66949 10.3372 4.62965 10.3648 4.59121 10.3925L4.56396 10.412C4.5367 10.4314 4.51015 10.4519 4.48499 10.4704L4.46961 10.4816C4.43537 10.5083 4.39973 10.5349 4.36478 10.5636C4.31726 10.6015 4.27533 10.6363 4.23619 10.6702C4.20125 10.6999 4.1684 10.7306 4.12927 10.7675C4.11669 10.7798 4.10341 10.7911 4.09083 10.8034C4.0468 10.8443 4.00068 10.8874 3.95665 10.9325C3.91402 10.9755 3.87209 11.0216 3.83155 11.0657L3.80849 11.0913L3.79312 11.0697C3.76936 11.0359 3.74559 11.0021 3.72113 10.9683C3.70087 10.9396 3.6806 10.9109 3.66033 10.8822L3.6198 10.8249C3.60163 10.7982 3.58346 10.7726 3.56459 10.747C3.54362 10.7173 3.52266 10.6886 3.50169 10.6589C3.48702 10.6384 3.47164 10.6179 3.45697 10.5964L3.40805 10.5277C3.38289 10.4929 3.35773 10.457 3.33257 10.4222C3.31021 10.3915 3.28784 10.3607 3.26548 10.33L3.21935 10.2665L3.17672 10.207C3.15576 10.1773 3.13409 10.1476 3.11243 10.1179C3.09216 10.0902 3.07189 10.0626 3.05163 10.0359L3.01039 9.97959C2.99222 9.955 2.97405 9.93041 2.95588 9.90582L2.88949 9.81565C2.87062 9.79004 2.85245 9.76545 2.83358 9.73983L2.79864 9.6927L2.73085 9.60151C2.77907 9.61381 2.82729 9.62303 2.87551 9.62713C2.93632 9.63225 3.00061 9.6343 3.07818 9.63327C3.11662 9.63327 3.15017 9.61381 3.17253 9.60151C3.18301 9.59536 3.1928 9.58922 3.20328 9.58307C3.23752 9.56258 3.26897 9.53389 3.29693 9.50008C3.35144 9.43348 3.38638 9.33819 3.39477 9.23471C3.40245 9.1425 3.38987 9.06053 3.37869 8.99905C3.3745 8.97754 3.3717 8.955 3.36821 8.93041C3.36611 8.91504 3.36332 8.89864 3.36122 8.88327C3.35843 8.86278 3.35423 8.84229 3.34864 8.8218C3.34515 8.8095 3.34235 8.79721 3.33956 8.78594C3.32977 8.747 3.31859 8.70807 3.30601 8.67016C3.31859 8.68041 3.33117 8.68963 3.34375 8.69885C3.41224 8.747 3.48143 8.77159 3.53314 8.78696C3.54362 8.79004 3.5555 8.79413 3.56739 8.79926C3.58625 8.80643 3.60512 8.8136 3.62679 8.81873C3.70157 8.83717 3.76726 8.82897 3.82736 8.79311C3.88956 8.75623 3.93778 8.6886 3.97272 8.59332C3.99579 8.52774 4.00976 8.45602 4.01675 8.36688C4.02863 8.21012 4.02654 8.04414 4.01116 7.84434C4.00277 7.73983 3.99019 7.6343 3.97692 7.53696C3.97202 7.497 3.96504 7.45909 3.95875 7.42221C3.96853 7.43963 3.97831 7.45704 3.9881 7.47446C4.04051 7.56565 4.09852 7.66504 4.1698 7.78594C4.21802 7.86893 4.27044 7.94577 4.32774 8.01545C4.36967 8.06565 4.42698 8.12918 4.49896 8.16913C4.55208 8.19987 4.61008 8.20909 4.66669 8.19475C4.68835 8.1886 4.70932 8.17938 4.72889 8.16709C4.76313 8.14454 4.79458 8.11278 4.82114 8.07385C4.86517 8.01135 4.90011 7.93655 4.92387 7.85356L4.93086 7.83102C4.95182 7.75827 4.97349 7.68348 4.99236 7.60561C5.00354 7.56155 5.01193 7.51647 5.01891 7.47139C5.0266 7.49905 5.03429 7.52774 5.04268 7.55541C5.05665 7.60151 5.07273 7.64557 5.0909 7.68758C5.09579 7.69885 5.10068 7.71012 5.10487 7.72241C5.13003 7.78491 5.15869 7.85561 5.20132 7.91709C5.26771 8.0134 5.33759 8.0636 5.41517 8.06975C5.45151 8.0718 5.48855 8.0636 5.52279 8.04516C5.53048 8.04106 5.53817 8.03696 5.54516 8.03184C5.62133 7.98368 5.67375 7.90377 5.70659 7.84741C5.77508 7.73164 5.8254 7.63123 5.86593 7.53389C5.87851 7.50418 5.88899 7.47446 5.89878 7.44577C5.90018 7.44168 5.90157 7.43655 5.90367 7.43245C5.90227 7.43758 5.90227 7.44577 5.90157 7.45295Z" fill="#CCADCA"/>
<path d="M5.5459 13.3456L5.606 13.2278C5.62906 13.1755 5.64024 13.1069 5.64024 13.0218L5.75276 11.2882L5.75416 11.2052C5.75486 11.1622 5.75066 11.1181 5.74228 11.0761C5.73179 11.0321 5.71782 10.9901 5.70035 10.9521H6.70391L6.67386 11.3978C6.64381 11.3015 6.60048 11.2349 6.54387 11.197C6.48726 11.1591 6.4048 11.1396 6.29717 11.1407H6.04558L5.99457 11.9839H6.18326H6.31185L6.39571 11.944C6.43135 11.9204 6.45581 11.8989 6.46909 11.8815C6.48656 11.8558 6.50194 11.8271 6.51522 11.7964L6.48237 12.3548C6.45232 12.2821 6.41738 12.2329 6.37754 12.2083C6.33771 12.1837 6.27271 12.1714 6.18326 12.1714H5.98269L5.92887 13.0228V13.0966C5.92887 13.1581 5.93446 13.2052 5.94565 13.2411L5.99107 13.3456H5.5459Z" fill="#CCADCA"/>
<path d="M7.6526 13.0793L7.56874 13.1972C7.4695 13.3252 7.33742 13.3898 7.17249 13.3898C7.04949 13.3898 6.95235 13.3519 6.88036 13.2761C6.80908 13.2002 6.77344 13.0988 6.77344 12.9697C6.77344 12.9257 6.77414 12.8898 6.77623 12.8611C6.77763 12.8324 6.78322 12.7668 6.79231 12.6644L6.90482 11.6644L6.91321 11.525C6.91321 11.4759 6.90063 11.4093 6.87547 11.3242H7.19695L7.06277 12.5865L7.04809 12.7392L7.039 12.8611C7.039 13.0711 7.12706 13.1757 7.30317 13.1757C7.36817 13.1757 7.42407 13.1623 7.4709 13.1347C7.51982 13.1039 7.56385 13.0589 7.60019 13.0015C7.63164 12.9523 7.654 12.9052 7.66728 12.8621C7.68056 12.8191 7.69244 12.7402 7.70432 12.6265L7.80985 11.6654L7.81893 11.5261C7.81893 11.483 7.80705 11.4164 7.78399 11.3252H8.09987L7.91817 13.0322L7.90629 13.1767C7.90629 13.2207 7.92026 13.2771 7.94822 13.3468H7.62325L7.6526 13.0793Z" fill="#CCADCA"/>
<path d="M8.77187 13.262C8.68451 13.344 8.59715 13.3839 8.5098 13.3839C8.43851 13.3839 8.38051 13.3563 8.33718 13.3009C8.29385 13.2456 8.27148 13.1718 8.27148 13.0786L8.29245 12.8296L8.43082 11.5151H8.31062L8.36024 11.3276H8.45459L8.49931 10.9167L8.77047 10.7979L8.71107 11.3265H8.97174L8.92352 11.514H8.6901L8.54544 12.8593L8.53356 13.0079C8.53356 13.1093 8.565 13.1606 8.6286 13.1606C8.68241 13.1606 8.73902 13.1124 8.79842 13.0161L8.77187 13.262Z" fill="#CCADCA"/>
<path d="M9.87721 13.0793L9.79405 13.1972C9.69481 13.3252 9.56272 13.3898 9.39779 13.3898C9.27479 13.3898 9.17765 13.3519 9.10567 13.2761C9.03439 13.2002 8.99875 13.0988 8.99805 12.9697C8.99805 12.9257 8.99875 12.8898 9.00084 12.8611C9.00224 12.8324 9.00783 12.7668 9.01692 12.6644L9.12943 11.6644L9.13852 11.525C9.13852 11.4759 9.12594 11.4093 9.10008 11.3242H9.42156L9.28737 12.5865L9.2727 12.7392L9.26361 12.8611C9.26361 13.0711 9.35167 13.1757 9.52778 13.1757C9.59278 13.1757 9.64868 13.1623 9.69551 13.1347C9.74443 13.1039 9.78846 13.0589 9.8248 13.0015C9.85625 12.9523 9.87861 12.9052 9.89189 12.8621C9.90517 12.8181 9.91705 12.7402 9.92893 12.6265L10.0345 11.6654L10.0435 11.5261C10.0435 11.483 10.0317 11.4164 10.0086 11.3252H10.3245L10.1428 13.0322L10.1309 13.1767C10.1309 13.2207 10.1449 13.2771 10.1728 13.3468H9.84856L9.87721 13.0793Z" fill="#CCADCA"/>
<path d="M10.3955 13.3454C10.4311 13.287 10.4542 13.2409 10.4654 13.206C10.4766 13.1712 10.4864 13.1128 10.4968 13.0319L10.6492 11.661L10.6555 11.5216C10.6555 11.4806 10.6464 11.4161 10.6282 11.329H10.9441L10.9113 11.6169L11.0189 11.4776L11.1202 11.3905L11.2244 11.3341C11.2684 11.3187 11.3131 11.3116 11.3585 11.3126L11.3019 11.8321C11.2782 11.748 11.253 11.6907 11.2278 11.662C11.202 11.6333 11.1691 11.6179 11.1293 11.6179C11.058 11.6179 11 11.6548 10.9553 11.7296C10.9106 11.8034 10.8805 11.914 10.8644 12.0595L10.7568 13.0329L10.7477 13.1907C10.747 13.2132 10.7491 13.2347 10.754 13.2562L10.7806 13.3485L10.3955 13.3454Z" fill="#CCADCA"/>
<path d="M12.5941 12.0871H11.6115L11.5724 12.3443L11.5633 12.541C11.5633 12.9724 11.6891 13.1875 11.9414 13.1875C12.0448 13.1875 12.1566 13.1363 12.2782 13.0349L12.3796 12.9345C12.4103 12.9037 12.439 12.8668 12.4627 12.8248L12.3796 13.1435L12.2992 13.2172C12.158 13.3422 12.012 13.4047 11.8617 13.4047C11.6807 13.4047 11.5402 13.3279 11.4403 13.1732C11.3397 13.0185 11.29 12.8064 11.29 12.5359C11.29 12.1896 11.3683 11.8955 11.5242 11.6537C11.68 11.4119 11.8708 11.291 12.0972 11.291C12.244 11.291 12.3635 11.3525 12.4564 11.4765C12.5487 11.6004 12.5948 11.7623 12.5948 11.9631L12.5941 12.0871ZM11.7988 11.6025C11.7653 11.6425 11.7366 11.6896 11.7121 11.7418L11.6437 11.9427H12.2335C12.2635 11.9427 12.2859 11.9273 12.302 11.8945C12.3237 11.8689 12.3348 11.8259 12.3348 11.7675C12.3348 11.6711 12.3111 11.5933 12.2635 11.5318C12.216 11.4703 12.1524 11.4396 12.0728 11.4396C11.9714 11.4416 11.8799 11.4949 11.7988 11.6025Z" fill="#CCADCA"/>
<path d="M14.9352 10.9607L14.917 11.4843C14.8975 11.4238 14.8737 11.3664 14.8458 11.3142C14.8276 11.2763 14.8052 11.2425 14.7801 11.2138C14.6983 11.1175 14.5956 11.0693 14.4705 11.0693C14.2895 11.0693 14.1441 11.183 14.0323 11.4095C13.9212 11.6359 13.8653 11.9382 13.8653 12.3162C13.8653 12.6011 13.9044 12.8244 13.9827 12.9853C14.0609 13.1461 14.1707 13.2271 14.3118 13.2271C14.367 13.2271 14.4111 13.2199 14.4432 13.2066C14.4754 13.1923 14.5257 13.1605 14.5949 13.1093L14.6396 12.3798L14.6424 12.305C14.6424 12.2435 14.6382 12.2015 14.6305 12.1779L14.5886 12.0601H15.0177C14.9939 12.1103 14.9729 12.1636 14.9534 12.2179C14.9401 12.2701 14.931 12.3244 14.9268 12.3798L14.8849 13.0652L14.8842 13.1195C14.8835 13.1564 14.8884 13.1933 14.8989 13.2271L14.7829 13.2814C14.6934 13.3173 14.6033 13.347 14.5117 13.3685C14.4292 13.388 14.3454 13.3972 14.2615 13.3972C14.0491 13.3972 13.8785 13.2988 13.7492 13.1011C13.62 12.9033 13.5557 12.639 13.5557 12.307C13.5557 11.9238 13.6409 11.5939 13.8114 11.3173C13.982 11.0416 14.1874 10.9033 14.4278 10.9033H14.5292L14.6368 10.9341L14.7591 10.9689L14.8276 10.9781L14.9352 10.9607Z" fill="#CCADCA"/>
<path d="M16.5945 11.4016C16.5847 11.4282 16.5777 11.4456 16.5735 11.4538C16.5624 11.4794 16.5526 11.5051 16.5435 11.5327L16.5106 11.7551L16.3611 13.1096V13.2674C16.3632 13.2766 16.3653 13.2858 16.3681 13.296C16.373 13.3135 16.38 13.3309 16.3883 13.3462H16.1235L16.1088 13.2069C16.1095 13.1587 16.113 13.1096 16.1207 13.0624L16.076 13.1321L16.0459 13.171C15.9942 13.2387 15.9348 13.2919 15.8705 13.3278C15.8397 13.3442 15.8076 13.3575 15.7754 13.3667C15.7412 13.378 15.7063 13.3831 15.6713 13.3842C15.5364 13.3842 15.4288 13.3135 15.3484 13.1721C15.2681 13.0307 15.2282 12.8391 15.2275 12.5983C15.2275 12.2223 15.3107 11.9108 15.477 11.6639C15.6434 11.4169 15.8579 11.293 16.1193 11.293C16.185 11.293 16.2507 11.3022 16.3157 11.3196L16.4911 11.3719L16.5945 11.4016ZM16.0585 12.9784C16.0941 12.92 16.1172 12.8698 16.1277 12.8278C16.1382 12.7858 16.1521 12.6997 16.1675 12.5717L16.2577 11.8001L16.2653 11.6608C16.2653 11.501 16.2017 11.421 16.0746 11.421C15.9194 11.421 15.7845 11.5307 15.6692 11.7489C15.5539 11.9671 15.4966 12.2305 15.4966 12.5389C15.4966 12.7397 15.5225 12.8934 15.5735 12.9999C15.6245 13.1065 15.6993 13.1598 15.7978 13.1588C15.8929 13.1577 15.9795 13.0973 16.0585 12.9784Z" fill="#CCADCA"/>
<path d="M16.6299 13.3455C16.6411 13.3281 16.6508 13.3096 16.6599 13.2891C16.676 13.2594 16.6893 13.2266 16.7005 13.1928C16.7096 13.1641 16.7186 13.1067 16.7284 13.0227L16.8815 11.6651L16.8927 11.5074C16.8927 11.4694 16.8815 11.41 16.8598 11.3281H17.1785L17.1547 11.5555L17.2589 11.4377C17.3693 11.3393 17.4958 11.2881 17.6251 11.2891C17.6831 11.2881 17.7404 11.3014 17.7949 11.3281C17.8466 11.3547 17.8843 11.3854 17.9081 11.4223C17.9319 11.4592 17.9584 11.5248 17.9885 11.6211L18.0751 11.5012C18.1939 11.3598 18.3323 11.2891 18.4888 11.2891C18.6 11.2891 18.6901 11.327 18.76 11.4028C18.8313 11.4735 18.8669 11.5688 18.8669 11.6887L18.8523 11.9346L18.7334 13.0217L18.7244 13.1662C18.7244 13.2102 18.7425 13.2697 18.7782 13.3455H18.4239L18.4756 13.0002L18.507 12.7512L18.5832 12.0576L18.6042 11.8352C18.6042 11.7348 18.5825 11.6549 18.5406 11.5944C18.4979 11.534 18.4427 11.5033 18.3756 11.5033C18.2666 11.5033 18.1765 11.5473 18.1052 11.6354C18.0339 11.7235 17.9892 11.8496 17.9717 12.0145L17.8613 13.0319L17.8522 13.1764L17.8613 13.2553L17.8997 13.3475H17.5552L17.6299 12.7973L17.7096 12.0903L17.7327 11.8178C17.7327 11.6088 17.6537 11.5053 17.4951 11.5053C17.3798 11.5053 17.2868 11.5535 17.2155 11.6487C17.1841 11.6856 17.1589 11.7328 17.1414 11.786C17.1254 11.8352 17.1114 11.9151 17.0995 12.0258L16.9877 13.034L16.9793 13.1733C16.9786 13.2 16.9807 13.2266 16.9856 13.2522L17.0184 13.3485L16.6299 13.3455Z" fill="#CCADCA"/>
<path d="M18.9775 13.3456C19.0432 13.2523 19.0817 13.1478 19.0935 13.031L19.2438 11.6591L19.2543 11.5023C19.255 11.4757 19.2529 11.4491 19.248 11.4234C19.2403 11.3907 19.2305 11.3579 19.2186 11.3271H19.5317L19.3528 13.03L19.3382 13.1827C19.3382 13.2236 19.3507 13.278 19.3766 13.3446L18.9775 13.3456ZM19.3137 10.6857C19.3137 10.6191 19.3319 10.5597 19.3689 10.5085C19.4024 10.4593 19.4479 10.4316 19.4954 10.4316C19.5331 10.4316 19.5674 10.4542 19.5981 10.4993C19.6289 10.5443 19.6443 10.6017 19.6443 10.6724C19.6456 10.739 19.6268 10.8025 19.5939 10.8466C19.5772 10.8691 19.5583 10.8866 19.5373 10.8989C19.5136 10.9111 19.4884 10.9173 19.4625 10.9163C19.422 10.9173 19.3836 10.8927 19.357 10.8486C19.3284 10.8056 19.313 10.7472 19.3137 10.6857Z" fill="#CCADCA"/>
<path d="M19.5791 13.3453C19.6147 13.2818 19.6385 13.2326 19.649 13.1988C19.6595 13.165 19.67 13.1066 19.6804 13.0215L19.8335 11.664L19.8412 11.5062C19.8412 11.4621 19.8314 11.4027 19.8111 11.3269H20.1298L20.1032 11.5625L20.1836 11.4703C20.2947 11.3515 20.424 11.291 20.5708 11.291C20.6917 11.291 20.7888 11.3269 20.8615 11.3986C20.9342 11.4703 20.9705 11.5707 20.9705 11.7019L20.9538 11.9252L20.8336 13.0297L20.8245 13.1742C20.8245 13.2183 20.8266 13.2459 20.8308 13.2572L20.8664 13.3443H20.5177L20.5624 13.0912C20.5813 12.9877 20.5959 12.8832 20.6071 12.7767L20.6847 12.0564L20.7029 11.8248C20.7029 11.6179 20.6211 11.5154 20.4583 11.5154H20.3779L20.2947 11.5461L20.2207 11.5994C20.2011 11.6138 20.1829 11.6343 20.1668 11.6568C20.1326 11.6988 20.1053 11.7511 20.0865 11.8095C20.0683 11.8668 20.0536 11.9539 20.0417 12.0687L19.9397 13.0297L19.9285 13.1783C19.9285 13.2101 19.9404 13.2654 19.9642 13.3443L19.5791 13.3453Z" fill="#CCADCA"/>
<path d="M21.0615 14.2315L21.2998 13.9385C21.2998 14.2008 21.3809 14.332 21.5437 14.332C21.6451 14.332 21.7366 14.2705 21.8191 14.1485C21.9016 14.0266 21.954 13.876 21.9756 13.6988L22.0462 13.0615L21.9742 13.1701C21.861 13.3125 21.7345 13.3832 21.5948 13.3832C21.4613 13.3832 21.3529 13.3115 21.2705 13.169C21.188 13.0266 21.1468 12.836 21.1468 12.5973C21.1468 12.2192 21.2306 11.9067 21.3984 11.6608C21.5661 11.4149 21.7806 11.292 22.0427 11.292C22.1084 11.292 22.1741 11.3012 22.2391 11.3186L22.4173 11.3709L22.5186 11.4016L22.4683 11.5328L22.4383 11.7551L22.2468 13.4928C22.2153 13.8043 22.1322 14.0584 21.9987 14.2531C21.8652 14.4477 21.7066 14.5451 21.5242 14.5451C21.4606 14.544 21.3977 14.5297 21.3369 14.501C21.3012 14.4867 21.2719 14.4723 21.2488 14.46C21.2265 14.4477 21.2055 14.4324 21.1852 14.4139C21.1566 14.3863 21.1153 14.3248 21.0615 14.2315ZM21.9896 12.9785C22.0273 12.9139 22.0511 12.8637 22.0609 12.8279C22.0707 12.791 22.084 12.7059 22.0993 12.5717L22.1818 11.7992L22.1937 11.6598C22.1937 11.5 22.1301 11.419 22.0029 11.419C21.8421 11.419 21.7052 11.5287 21.592 11.7469C21.4787 11.9651 21.4221 12.2285 21.4221 12.5369C21.4221 12.7377 21.448 12.8914 21.499 12.9979C21.55 13.1045 21.6255 13.1578 21.7247 13.1568C21.8219 13.1578 21.9099 13.0973 21.9896 12.9785Z" fill="#CCADCA"/>
<path d="M23.4004 13.2192L23.4304 12.7161C23.4423 12.7684 23.4528 12.8104 23.4619 12.8442C23.4696 12.8749 23.4794 12.9046 23.4898 12.9333C23.5073 12.9856 23.5304 13.0348 23.5583 13.0768C23.624 13.1782 23.7065 13.2284 23.8057 13.2284C23.905 13.2284 23.9867 13.1823 24.0517 13.0911C24.116 12.9999 24.1489 12.8852 24.1489 12.7489C24.1489 12.6557 24.1272 12.5686 24.0832 12.4876L24.0384 12.418L23.9818 12.3442L23.8477 12.1915C23.7386 12.0696 23.6597 11.9589 23.6121 11.8606C23.5695 11.7643 23.5465 11.6526 23.5465 11.5378C23.5465 11.3606 23.5961 11.21 23.6953 11.085C23.7945 10.96 23.9148 10.8975 24.0559 10.8975C24.1069 10.8985 24.158 10.9077 24.2076 10.9272L24.3418 10.9805H24.39C24.404 10.9805 24.4249 10.9702 24.4529 10.9497L24.42 11.4784C24.3739 11.2018 24.267 11.0634 24.0999 11.0634C24.0238 11.0634 23.9609 11.0973 23.9099 11.1659C23.8588 11.2346 23.8337 11.3237 23.8337 11.4343C23.8337 11.5102 23.8533 11.586 23.8924 11.6608C23.9315 11.7356 23.9958 11.8247 24.0853 11.9272L24.2174 12.0706C24.2914 12.1546 24.3459 12.2407 24.3823 12.3278C24.4186 12.4159 24.4368 12.5173 24.4361 12.6198C24.4361 12.835 24.3767 13.0184 24.2572 13.171C24.1377 13.3237 23.9937 13.3995 23.8253 13.3995C23.768 13.3995 23.7114 13.3903 23.6555 13.3739L23.5304 13.3216L23.4004 13.2192Z" fill="#CCADCA"/>
<path d="M24.6602 12.3539C24.6902 12.0517 24.7887 11.7966 24.9565 11.5896C25.0347 11.4912 25.1242 11.4134 25.2213 11.3601C25.3199 11.3078 25.4233 11.2822 25.5281 11.2832C25.7077 11.2832 25.8559 11.3652 25.9719 11.5281C26.0879 11.691 26.1466 11.9021 26.1466 12.1613C26.1466 12.4933 26.0628 12.7822 25.895 13.0281C25.7273 13.274 25.5274 13.397 25.2947 13.397C25.106 13.397 24.953 13.3129 24.8363 13.1459C24.7189 12.9789 24.6609 12.7576 24.6609 12.4841L24.6602 12.3539ZM24.946 12.5291V12.6336C24.9579 12.8263 24.997 12.9769 25.0634 13.0875C25.1298 13.1982 25.2137 13.2535 25.315 13.2535C25.4659 13.2535 25.5945 13.1521 25.7008 12.9502C25.807 12.7484 25.8601 12.5025 25.8601 12.2146C25.8601 11.9615 25.8286 11.7689 25.7651 11.6388C25.7056 11.5025 25.6169 11.4338 25.4981 11.4338C25.3394 11.4338 25.2081 11.5373 25.1032 11.7443C24.9984 11.9502 24.946 12.2115 24.946 12.5291Z" fill="#CCADCA"/>
<path d="M26.2275 13.3458C26.2597 13.2905 26.2807 13.2464 26.2904 13.2147C26.3002 13.1829 26.3121 13.1184 26.3268 13.0231L26.5972 10.5333L26.607 10.3848C26.607 10.3602 26.6049 10.3366 26.6007 10.313C26.593 10.2731 26.584 10.2352 26.5735 10.1973H26.8831L26.5826 13.0313L26.5735 13.1757C26.5735 13.2219 26.5833 13.2792 26.6035 13.3458H26.2275Z" fill="#CCADCA"/>
<path d="M27.8238 13.0793L27.7406 13.1972C27.6414 13.3252 27.5093 13.3898 27.3444 13.3898C27.2214 13.3898 27.1242 13.3519 27.0522 13.2761C26.981 13.2002 26.9453 13.0988 26.9453 12.9697C26.9453 12.9257 26.946 12.8898 26.9481 12.8611C26.9502 12.8324 26.9551 12.7668 26.9642 12.6644L27.076 11.6644L27.0851 11.525C27.0851 11.4759 27.0725 11.4093 27.0466 11.3242H27.3681L27.2346 12.5865L27.22 12.7392L27.2109 12.8611C27.2109 13.0711 27.2989 13.1757 27.475 13.1757C27.54 13.1757 27.596 13.1623 27.6428 13.1347C27.6917 13.1039 27.7357 13.0589 27.7721 13.0015C27.8035 12.9523 27.8259 12.9052 27.8392 12.8621C27.8524 12.8191 27.8643 12.7402 27.8762 12.6265L27.9817 11.6654L27.9908 11.5261C27.9908 11.483 27.9789 11.4164 27.9559 11.3252H28.2717L28.09 13.0322L28.0782 13.1767C28.0782 13.2207 28.0921 13.2771 28.1201 13.3468H27.7951L27.8238 13.0793Z" fill="#CCADCA"/>
<path d="M28.9437 13.262C28.8564 13.344 28.769 13.3839 28.6817 13.3839C28.6104 13.3839 28.5524 13.3563 28.5091 13.3009C28.4657 13.2456 28.4434 13.1718 28.4434 13.0786L28.4643 12.8296L28.6027 11.5151H28.4825L28.5328 11.3276H28.6272L28.6726 10.9167L28.9437 10.7979L28.8843 11.3265H29.145L29.0968 11.514H28.8634L28.7187 12.8593L28.7068 13.0079C28.7068 13.1093 28.7383 13.1606 28.8019 13.1606C28.8557 13.1606 28.9123 13.1124 28.9717 13.0161L28.9437 13.262Z" fill="#CCADCA"/>
<path d="M29.0332 13.3456C29.0989 13.2523 29.1373 13.1478 29.1492 13.031L29.2995 11.6591L29.31 11.5023C29.3106 11.4757 29.3086 11.4491 29.3044 11.4234C29.2967 11.3907 29.2869 11.3579 29.275 11.3271H29.5881L29.4092 13.03L29.3945 13.1827C29.3945 13.2236 29.4071 13.278 29.4329 13.3446L29.0332 13.3456ZM29.3694 10.6857C29.3694 10.6191 29.3875 10.5597 29.4246 10.5085C29.4581 10.4593 29.5035 10.4316 29.5511 10.4316C29.5888 10.4316 29.623 10.4542 29.6538 10.4993C29.6845 10.5443 29.6999 10.6017 29.6999 10.6714C29.7013 10.738 29.6824 10.8015 29.6496 10.8456C29.6328 10.8681 29.614 10.8855 29.593 10.8978C29.5692 10.9101 29.5441 10.9163 29.5189 10.9152C29.4784 10.9163 29.4399 10.8917 29.4134 10.8476C29.384 10.8056 29.3687 10.7472 29.3694 10.6857Z" fill="#CCADCA"/>
<path d="M29.7148 12.3539C29.7449 12.0517 29.8434 11.7966 30.0112 11.5896C30.0894 11.4912 30.1789 11.4134 30.276 11.3601C30.3746 11.3078 30.478 11.2822 30.5828 11.2832C30.7624 11.2832 30.9106 11.3652 31.0266 11.5281C31.1433 11.691 31.2013 11.9021 31.2013 12.1613C31.2013 12.4933 31.1175 12.7822 30.9497 13.0281C30.782 13.274 30.5821 13.397 30.3494 13.397C30.1607 13.397 30.0077 13.3129 29.891 13.1459C29.7735 12.9789 29.7155 12.7576 29.7155 12.4841L29.7148 12.3539ZM30.0007 12.5291V12.6336C30.0126 12.8263 30.0517 12.9769 30.1181 13.0875C30.1845 13.1982 30.2683 13.2535 30.3697 13.2535C30.5206 13.2535 30.6492 13.1521 30.7554 12.9502C30.8617 12.7484 30.9148 12.5025 30.9148 12.2146C30.9148 11.9615 30.8833 11.7689 30.8197 11.6388C30.7603 11.5025 30.6716 11.4338 30.5528 11.4338C30.3941 11.4338 30.2627 11.5373 30.1579 11.7443C30.0531 11.9502 30.0007 12.2115 30.0007 12.5291Z" fill="#CCADCA"/>
<path d="M31.2793 13.3453C31.3149 13.2818 31.338 13.2326 31.3492 13.1988C31.3604 13.165 31.3708 13.1066 31.3806 13.0215L31.5337 11.664L31.5414 11.5062C31.5414 11.4621 31.5316 11.4027 31.5113 11.3269H31.83L31.8034 11.5625L31.8838 11.4703C31.9949 11.3515 32.1242 11.291 32.271 11.291C32.3919 11.291 32.489 11.3269 32.5617 11.3986C32.6344 11.4703 32.6707 11.5707 32.6707 11.7019L32.654 11.9252L32.5337 13.0297L32.5247 13.1742C32.5247 13.2183 32.5268 13.2459 32.531 13.2572L32.5666 13.3443H32.2172L32.2619 13.0912C32.2808 12.9877 32.2954 12.8832 32.3066 12.7767L32.3842 12.0564L32.4024 11.8248C32.4024 11.6179 32.3206 11.5154 32.1578 11.5154H32.0774L31.9942 11.5461L31.9195 11.5994C31.8999 11.6138 31.8817 11.6343 31.8656 11.6568C31.8314 11.6988 31.8041 11.7511 31.7853 11.8095C31.7671 11.8668 31.7524 11.9539 31.7405 12.0687L31.6385 13.0297L31.6273 13.1783C31.6273 13.2101 31.6392 13.2654 31.663 13.3443L31.2793 13.3453Z" fill="#CCADCA"/>
<path d="M32.7773 13.2533L32.8277 12.7686C32.8752 12.9377 32.9255 13.0586 32.9779 13.1313C33.0303 13.2041 33.0953 13.241 33.1729 13.2399C33.2547 13.2399 33.3197 13.201 33.3693 13.1242C33.4189 13.0473 33.4441 12.952 33.4434 12.8383C33.4434 12.7655 33.4308 12.7041 33.4049 12.6549C33.3895 12.6262 33.3714 12.6016 33.3511 12.5811L33.226 12.4674C33.1226 12.3803 33.0471 12.2942 32.9996 12.2102C32.9521 12.1262 32.9283 12.034 32.9283 11.9346C32.9283 11.7512 32.9793 11.5975 33.082 11.4735C33.1841 11.3496 33.3162 11.2881 33.4769 11.2881H33.5454C33.5712 11.2891 33.5964 11.2932 33.6216 11.3014C33.6523 11.3096 33.6796 11.3198 33.7033 11.3301C33.7271 11.3403 33.7599 11.3567 33.8019 11.3803L33.7571 11.7953C33.7292 11.6959 33.6991 11.619 33.6677 11.5637C33.616 11.4858 33.5447 11.4438 33.4713 11.4459C33.4014 11.4438 33.3336 11.4817 33.2819 11.5504C33.2302 11.616 33.2016 11.7123 33.2029 11.8127C33.2029 11.868 33.2162 11.9213 33.24 11.9633C33.2644 12.0084 33.3106 12.0586 33.3784 12.1139L33.4615 12.1836C33.5629 12.2686 33.6327 12.3444 33.6712 12.4131C33.7096 12.4817 33.7292 12.5668 33.7292 12.6682C33.7292 12.8783 33.6733 13.0535 33.5608 13.1969C33.4482 13.3393 33.312 13.411 33.1512 13.411C33.0981 13.409 33.045 13.4008 32.9933 13.3844C32.9311 13.367 32.8591 13.3239 32.7773 13.2533Z" fill="#CCADCA"/>
</svg>
