<svg width="47" height="32" viewBox="0 0 47 32" fill="none" xmlns="http://www.w3.org/2000/svg">
<path fill-rule="evenodd" clip-rule="evenodd" d="M16.3769 1C20.4159 1.95 21.6644 4.35 22.4722 6.85C23.28 9.3 23.1331 11.8 22.3988 14.3C22.2519 14.8 21.8847 15.1 21.1503 15.2C16.1566 15.75 11.2363 15.7 6.53625 14.25C4.48 13.6 2.64407 12.75 1.90969 11.2C1.24875 9.65 1.76282 8.15 3.45188 7.1C5.94875 5.5 8.51907 3.95 10.7222 2.15C11.4566 1.5 12.705 1.3 13.88 1H16.3769ZM17.6253 12.15C14.8347 10.6 12.2644 8.95 9.84094 7.1C11.3097 9.65 14.0269 11.25 17.6253 12.15Z" fill="#CCADCA"/>
<path fill-rule="evenodd" clip-rule="evenodd" d="M1.46895 20.7C3.37832 17.7 7.41738 17 11.6033 16.5C14.6877 16.15 17.8455 16.3 20.9299 16.75C21.6643 16.85 22.1049 17.1 22.2518 17.6C23.133 21.15 22.9861 24.65 20.5627 27.95C19.6814 29.2 18.433 30.25 16.3768 30.7C14.1736 31.15 11.9705 30.8 10.4283 29.7C8.00488 28 5.72832 26.2 3.01113 24.65C2.12988 24.15 1.90957 23.35 1.39551 22.7V20.7H1.46895ZM10.2814 25.25C13.2189 24.9 17.258 22 17.8455 19.8C15.4955 21.85 13.0721 23.7 10.2814 25.25Z" fill="#CCADCA"/>
<path fill-rule="evenodd" clip-rule="evenodd" d="M30.403 30.9995C25.9967 29.6995 24.9686 26.9995 24.2342 24.1995C23.7202 22.0495 23.9405 19.8495 24.6014 17.6995C24.7483 17.2495 25.1155 16.9495 25.7764 16.8495C30.7702 16.2995 35.6905 16.3495 40.3905 17.7495C41.7123 18.1495 42.9608 18.6495 43.9155 19.4495C45.6045 20.8495 45.7514 22.6495 44.2827 24.2495C43.2545 25.3495 41.7858 26.1495 40.2436 26.8495C39.7295 27.0995 39.2889 27.3495 38.9217 27.6995C37.5264 29.2495 35.7639 30.4995 33.1202 30.9995H30.403ZM29.1545 19.7995C32.0186 21.3495 34.7358 23.0495 37.1592 24.9495C35.6905 22.3495 32.8998 20.6995 29.1545 19.7995Z" fill="#CCADCA"/>
<path fill-rule="evenodd" clip-rule="evenodd" d="M24.2349 10.45C24.3084 8.4 24.8224 6.1 26.5115 3.95C29.0818 0.650002 33.7818 0.150002 37.4537 2.9C39.2896 4.3 41.1256 5.65 43.2552 6.9C45.1646 8 45.9724 9.5 45.3849 11.25C44.9443 12.65 43.549 13.5 41.7865 14.15C38.1881 15.5 34.2959 15.8 30.2568 15.65C28.8615 15.6 27.4662 15.5 26.0709 15.3C25.1896 15.2 24.8224 14.9 24.6756 14.3C24.3818 13.1 24.1615 11.95 24.2349 10.45ZM29.449 11.45C29.3756 11.65 29.5224 11.7 29.7427 11.65C31.8724 9.85 34.149 8.2 36.7193 6.7C33.3412 7.55 30.9177 9.15 29.449 11.45Z" fill="#CCADCA"/>
</svg>
