<svg width="48" height="32" viewBox="0 0 48 32" fill="none" xmlns="http://www.w3.org/2000/svg">
<g clip-path="url(#clip0_6_1483)">
<path d="M43.7259 17.522L45.7683 3.43733L47.6601 13.0787L46.1463 0H27.1587L23.4141 17.522L28.0281 31.9833L46.6761 31.774L48.0003 17.8573L46.1847 30.1813L43.7259 17.5213V17.522ZM32.4159 9.138C31.5843 8.84467 30.1845 8.09 30.1845 6.66467C30.1845 5.24 31.2057 4.02467 31.8111 3.60467C32.4165 3.186 33.9669 2.22133 36.7287 2.22133C39.4899 2.22133 41.4189 3.228 41.4189 3.228L39.7167 5.95267C39.7167 5.95267 39.4137 5.826 39.0735 5.65933C38.7333 5.53267 37.6743 5.114 36.2367 5.07267C34.7613 5.03 34.4967 5.70067 34.4967 5.826C34.4589 5.95267 34.3827 6.37133 36.1227 6.62333C37.8255 6.87467 39.0735 7.294 39.6411 7.54533C40.2081 7.83867 40.9647 8.71867 40.9647 9.64133C40.9647 10.5633 40.7757 11.276 39.9057 12.24C39.0357 13.204 37.5225 14.0847 34.1187 14.1267C30.7143 14.1687 28.7475 13.0367 28.7475 13.0367C28.7475 13.0367 30.7143 10.144 30.7521 10.144C30.7521 10.144 31.1679 10.396 31.8867 10.7307C32.6055 11.0667 34.1943 11.3173 34.6857 11.3173C35.1777 11.3173 36.3879 11.276 36.6147 10.5213C36.8043 9.76667 33.2487 9.43133 32.4165 9.138H32.4159ZM28.5579 31.2293L24.1707 17.6053L42.9693 17.522L45.6171 31.0193L28.5579 31.2293Z" fill="white"/>
<path d="M42.2508 25.3606H40.662L40.284 23.8939H36.2364L36.501 25.3606L34.9122 25.3186L38.4306 19.9119H33.891L29.9574 25.8639L30.5628 27.8759L37.0686 27.9179L37.4844 29.5112H41.5704L41.229 27.8759H42.8556L42.2508 25.3606ZM26.553 28.1686L26.175 30.1386L20.1228 23.3052L22.8084 2.13724L25.4562 6.79057L25.683 5.74191L22.8462 0.753906L3.1392 0.96324L0 23.2632L8.3592 30.6412L26.7426 30.8506L27.0072 29.5512L26.553 28.1686ZM9.0024 4.19124L9.0402 4.14924H15.546L13.806 18.9879H9.3426L10.7046 7.96391H8.5104L9.0024 4.19057V4.19124ZM8.6244 29.8032L1.1724 23.2632H19.1016L25.116 30.0552L8.6244 29.8039V29.8032Z" fill="white"/>
<path d="M15.3948 25.9892L11.196 24.2705L10.4778 25.9892L6.24121 26.3245L10.8936 27.7498L12.066 29.4685L15.5082 28.6718L20.4258 29.5105L18.2316 27.7078L20.388 26.3245L15.3948 25.9892Z" fill="white"/>
</g>
<defs>
<clipPath id="clip0_6_1483">
<rect width="48" height="32" fill="white"/>
</clipPath>
</defs>
</svg>
