<svg width="47" height="32" viewBox="0 0 47 32" fill="none" xmlns="http://www.w3.org/2000/svg">
<path d="M2.09267 0.439453H45.0768C45.9429 0.439453 46.6451 0.849631 46.6451 1.35561V30.8122C46.6451 31.3182 45.9429 31.7283 45.0768 31.7283H2.09267C1.22655 31.7283 0.524414 31.3182 0.524414 30.8122V1.35561C0.524414 0.849631 1.22655 0.439453 2.09267 0.439453ZM11.2764 26.5882H24.9956C29.1122 26.569 32.2189 26.0423 34.3159 25.0082C36.4128 23.9742 37.4613 22.4279 37.4613 20.3693C37.4613 19.2342 36.9893 18.2723 36.0453 17.4835C35.1013 16.6947 33.7471 16.156 31.9829 15.8675C33.546 15.5019 34.7298 14.9344 35.5346 14.1648C36.3393 13.3953 36.7417 12.467 36.7417 11.38C36.7417 9.49464 35.6081 8.05656 33.3409 7.06576C31.0737 6.07497 27.7658 5.57958 23.4171 5.57958H11.2764V26.5882ZM19.4244 17.6567H25.1349C27.936 17.6663 29.3366 18.5464 29.3366 20.2972C29.3366 21.0571 28.9419 21.6463 28.1527 22.0647C27.3634 22.4832 26.2337 22.6924 24.7635 22.6924H19.4244V17.6567ZM19.4244 14.338V9.48984H23.4171C25.2433 9.48984 26.5664 9.68463 27.3866 10.0742C28.2068 10.4638 28.617 11.1011 28.617 11.9861C28.617 12.7556 28.2378 13.3376 27.4795 13.732C26.7212 14.1264 25.4522 14.3284 23.6725 14.338H19.4244Z" fill="#CCADCA"/>
</svg>
