<svg width="48" height="32" viewBox="0 0 48 32" fill="none" xmlns="http://www.w3.org/2000/svg">
<path d="M26.394 3.15431C26.1872 2.92625 26.0092 2.94066 25.8364 2.94066C22.1407 2.94066 18.4451 2.94219 14.7494 2.9411C13.4581 2.94066 12.2908 3.37975 11.2049 4.06458C9.03579 5.43317 7.57222 7.32974 6.8464 9.92753C5.74041 13.8856 4.51285 17.8083 3.27233 21.7233C2.09018 25.454 4.29923 28.4371 7.78668 28.1796C9.65992 28.0411 11.5505 28.1658 13.433 28.1486C14.019 28.1431 14.5998 28.1355 15.1859 27.9546C18.2082 27.0222 20.0802 24.8725 21.0864 21.8562C21.8267 19.6361 22.4705 17.3799 23.1191 15.1279C23.3658 14.2718 23.716 13.4406 23.8347 12.5529C23.4767 12.3119 23.1199 12.4213 22.7835 12.4192C20.9358 12.4069 19.0878 12.3991 17.2401 12.4211C16.5854 12.429 15.8155 12.152 15.3045 12.5579C14.8026 12.9565 14.8131 13.7919 14.6124 14.4398C14.1889 15.808 13.7805 17.1813 13.3537 18.5923C14.3787 18.8149 15.3533 18.5287 16.3204 18.7955C16.0331 19.7385 15.7567 20.594 15.5173 21.4608C15.4309 21.7731 15.3409 21.9855 14.98 21.9835C13.139 21.9746 11.2978 21.9796 9.33478 21.9796C9.73085 20.6512 10.0863 19.448 10.4485 18.2472C11.2812 15.4864 12.1152 12.7263 12.9526 9.96707C13.2104 9.11752 13.2162 9.1173 14.1008 9.11403C14.9028 9.11097 15.7046 9.11337 16.5066 9.11315C18.9818 9.11315 21.4572 9.11883 23.9326 9.10529C24.2067 9.10376 24.5519 9.26192 24.6946 8.77434C25.2493 6.87733 25.8357 4.99081 26.394 3.15431ZM29.822 28.1245C31.1801 28.1425 32.5807 28.3712 33.8871 28.0348C37.2813 27.161 39.7094 25.0361 40.8133 21.4868C41.99 17.7032 43.1192 13.9033 44.256 10.1062C44.5447 9.14199 44.7895 8.17863 44.8349 7.14231C44.9611 4.26512 42.6436 2.46881 40.4691 2.5278C38.4494 2.58241 36.4274 2.5361 34.4064 2.54243C34.0256 2.54352 33.6473 2.54374 33.2674 2.64903C29.818 3.60497 27.4558 5.77962 26.3431 9.35629C25.8726 10.8688 25.421 12.3881 24.9699 13.9072C24.1596 16.6359 23.2973 19.3499 22.564 22.101C21.6049 25.7 23.9713 28.2161 26.6877 28.13C27.7316 28.097 28.7771 28.1245 29.822 28.1245ZM4.96082 7.10758C6.55766 3.84941 8.98955 1.62167 12.3494 0.499935C12.6923 0.385467 13.1319 0.539911 13.3859 0.146484H41.632C41.6943 0.3077 41.8358 0.305734 41.9697 0.337627C44.6872 0.981396 46.4175 2.70692 47.1827 5.5046C47.3262 6.02866 47.2331 6.59728 47.4879 7.09469C47.3605 8.49647 47.1461 9.87117 46.6993 11.2162C46.1346 12.9177 45.7099 14.6692 45.168 16.3796C44.3451 18.977 43.7262 21.6447 42.7143 24.177C41.1384 27.0987 38.9105 29.2308 35.8531 30.3615C34.7962 30.7523 33.7168 30.9559 32.5882 30.9543C24.1234 30.9423 15.6583 30.9133 7.19372 30.9663C4.22349 30.9851 0.843162 28.8251 0.374068 24.9293C0.343938 24.6787 0.266942 24.4345 0.211914 24.1872C0.250412 22.4706 0.721599 20.857 1.22752 19.2398C2.49043 15.202 3.59622 11.1113 4.96082 7.10758Z" fill="#CCADCA"/>
<path d="M38.3082 9.14967C37.193 12.8816 36.1408 16.4321 35.0658 19.9753C34.8691 20.6233 34.8909 21.4772 34.3774 21.8549C33.8652 22.2315 33.0948 21.9637 32.4385 21.9752C31.2952 21.9956 30.1516 21.9809 28.915 21.9809C29.4944 20.0105 30.0376 18.1471 30.5906 16.2868C31.2061 14.2168 31.8323 12.1505 32.4502 10.0813C32.7251 9.16059 32.7211 9.15403 33.6828 9.15098C35.175 9.14617 36.6674 9.14967 38.3082 9.14967Z" fill="#CCADCA"/>
</svg>
