<svg width="47" height="32" viewBox="0 0 47 32" fill="none" xmlns="http://www.w3.org/2000/svg">
<path d="M37.7075 18.3074C37.6546 18.4809 37.8133 18.5503 38.0253 18.4462L39.2973 17.8548C39.5088 17.7507 39.668 17.507 39.6151 17.3331L38.9266 14.3772C38.8737 14.2037 38.8202 14.2037 38.7679 14.3772L38.1846 16.5335C38.1846 16.6839 38.1047 16.9395 38.0494 17.1184C38.04 17.1454 38.033 17.1712 38.0253 17.1943L37.7075 18.307V18.3074Z" fill="#EEEEEE"/>
<path fill-rule="evenodd" clip-rule="evenodd" d="M42.7701 3.68864C39.5994 3.13346 22.4697 0.21953 22.4697 0.21953C22.4697 0.21953 19.5087 -0.300952 16.0195 0.705313C13.8305 1.32815 11.6475 1.96006 9.47064 2.60102C8.2706 2.95247 7.07014 3.30331 5.86927 3.65355C1.11052 5.04151 -0.157306 6.84584 0.0530185 8.68488C0.215169 10.0921 0.656381 16.1555 0.925456 19.8556V19.8606C1.00771 20.9914 1.07409 21.9013 1.11111 22.389C1.26973 24.5056 2.11573 26.067 4.65314 26.7603C6.53021 27.2846 14.3763 29.1148 19.8136 30.3828H19.8153C21.5773 30.7938 23.0854 31.1454 24.0565 31.3748C28.021 32.3117 30.7176 31.8953 33.0435 30.6808C36.8288 28.6656 40.6175 26.6535 44.4104 24.644C46.0496 23.7765 46.2076 22.4931 46.4191 20.2377C46.5719 18.6411 46.7228 14.0289 46.8362 10.6095C46.8803 9.27476 46.9179 8.1216 46.9479 7.40102C47.0536 4.8337 45.9432 4.24343 42.7707 3.68825L42.7701 3.68864ZM3.81713 10.623C3.81713 10.623 3.81713 9.96372 4.92927 9.97413C5.05441 9.97259 5.19364 9.9803 5.35051 9.99881C6.03024 10.1345 6.77637 10.3026 7.50546 10.4676C8.07944 10.5968 8.64462 10.7244 9.15633 10.8312C9.15633 10.8312 10.4253 11.317 10.584 12.011L10.9541 18.9846L11.4828 24.5704C11.4828 25.3665 10.2344 25.2856 9.94887 25.267C9.9317 25.2657 9.91445 25.2648 9.89717 25.2643C9.33317 25.1163 8.60291 24.9582 7.87676 24.8009C7.24108 24.6637 6.60776 24.5264 6.09076 24.3969C5.93911 24.3474 5.79559 24.2878 5.66247 24.2191L5.66717 24.2238C4.92692 23.8764 4.76888 23.391 4.76888 23.2518V23.1824C4.65432 21.2728 4.31709 16.9979 4.05977 13.7309V13.727C3.96224 12.4844 3.87588 11.3879 3.81713 10.623ZM18.6415 20.7986V20.7982C18.4911 20.6109 18.3431 20.4227 18.1968 20.2338C17.8795 19.8174 17.8267 19.2622 18.1439 18.9846C18.4083 18.7417 19.0957 18.1866 19.6773 17.7355L23.3251 14.8559C23.9067 14.4048 23.6417 13.919 22.8492 13.7455L18.5669 12.8433C18.1016 12.7485 17.6857 12.6737 17.3525 12.6779C17.0529 12.6749 16.8156 12.7288 16.664 12.8784C16.4055 13.104 16.2099 13.2994 16.0001 13.5084C15.8239 13.6842 15.637 13.8708 15.395 14.0925L14.8662 14.5787C14.5055 14.8863 14.0202 15.3409 13.5808 15.7526C13.3775 15.9427 13.1836 16.1247 13.0168 16.2785L12.0122 17.1807C11.6415 17.493 11.4834 17.9441 11.5357 18.3604C11.5492 18.2934 11.5668 18.2243 11.5921 18.155C11.5827 18.4379 11.6661 18.7209 11.8524 18.9496L17.2985 26.2702C17.7215 26.8952 18.1974 27.2765 19.4652 27.5541L23.4308 28.491C24.2768 28.6644 24.5941 28.4216 24.2239 27.9011L19.5187 21.934C19.2825 21.6032 18.9417 21.1745 18.6421 20.7986H18.6415ZM15.8538 4.62666C15.8826 4.67177 15.902 4.71765 15.9132 4.76546C15.9132 4.74734 15.9267 4.73037 15.9402 4.71302C15.9531 4.69529 15.966 4.67833 15.966 4.66059C15.966 4.0017 14.0631 3.44652 11.7372 3.44652C11.0851 3.44652 10.4659 3.49047 9.91244 3.56796C8.43664 3.74724 7.40147 4.18367 7.40147 4.69529L7.40323 4.72536L7.40147 4.73076C7.40147 4.7562 7.40911 4.78242 7.42203 4.81018C7.43554 4.85336 7.45846 4.89577 7.48842 4.93741L7.49782 4.95514L7.50722 4.97365L7.51309 4.96902C7.95196 5.50107 9.63632 5.90975 11.6315 5.90975C13.6278 5.90975 15.3122 5.50107 15.7498 4.96825L15.7551 4.97365C15.808 4.90425 15.8609 4.83486 15.8609 4.73037L15.8591 4.72575C15.8621 4.69268 15.8603 4.65951 15.8538 4.62666ZM23.4737 5.90936C21.1472 5.90936 19.2443 5.35418 19.2443 4.69529C19.2443 4.00131 21.1472 3.44613 23.4743 3.48083C25.799 3.48083 27.7031 4.03601 27.7031 4.69529C27.7031 5.35457 25.7996 5.90975 23.4737 5.90975V5.90936ZM35.3165 5.87543C33.0441 5.87543 31.1929 5.35495 31.1929 4.69606C31.1929 4.03678 33.0435 3.4816 35.3171 3.5163C37.5902 3.5163 39.4402 4.03678 39.4402 4.69606C39.4402 5.35534 37.5896 5.87543 35.3165 5.87543ZM43.8018 21.0901C43.8547 21.1248 43.8547 21.1595 43.8547 21.1942C43.8723 21.2902 43.9099 21.4055 43.9487 21.5261C44.0215 21.7578 44.1014 22.0081 44.0668 22.1681C43.8705 22.5224 43.5832 22.6677 43.1638 22.8805L43.0598 22.9334L42.571 23.184C42.242 23.3544 41.9118 23.5248 41.6286 23.6636C41.0993 23.8371 41.047 23.5595 41.047 23.5595C40.8036 22.5022 40.5382 21.4471 40.2509 20.3946L36.807 22.064C36.4363 23.3509 36.0656 24.811 35.6943 26.3408C35.6943 26.3408 35.5885 26.7583 35.0574 27.0367C34.7361 27.1901 34.4958 27.312 34.3172 27.4022C34.1727 27.475 34.0699 27.5271 33.9982 27.5583C33.8519 27.6065 33.7303 27.6709 33.6004 27.7411C33.5417 27.7719 33.4812 27.8043 33.4154 27.8363L33.3396 27.8745C33.1633 27.9643 33.0124 28.0406 32.7797 28.0102C32.4613 27.9408 32.5147 27.5583 32.567 27.4191V27.3844L32.832 26.6191L36.3828 14.5524L36.807 13.2655C36.8282 13.1791 36.8687 13.045 36.9163 12.8877C36.9821 12.6656 37.0632 12.3969 37.1249 12.1528C37.1249 12.1528 37.3898 11.4569 38.3439 11.0745L38.6618 10.9704C38.9261 10.901 39.1917 10.7965 39.4566 10.6924C39.4837 10.6924 39.5224 10.6747 39.5624 10.6569C39.6029 10.64 39.6417 10.6222 39.6681 10.6222C39.6988 10.6204 39.729 10.6161 39.758 10.6095C39.8144 10.5968 39.8732 10.5895 39.9331 10.5875C40.2509 10.5528 40.6751 10.623 40.8872 10.7961C40.993 10.8663 40.993 10.9357 40.993 11.0051L41.1522 11.5271C41.2579 11.77 41.3114 12.0137 41.3637 12.2569C41.3872 12.3657 41.4224 12.4809 41.4571 12.6004C41.5017 12.7489 41.5464 12.9027 41.5763 13.0569C41.6028 13.1614 41.6292 13.274 41.6557 13.3873C41.6821 13.5003 41.7085 13.6129 41.7344 13.7174C41.7344 13.7698 41.7479 13.8137 41.7614 13.8565C41.7749 13.9001 41.7884 13.9441 41.7884 13.9961L43.8018 21.0901Z" fill="#EEEEEE"/>
<path fill-rule="evenodd" clip-rule="evenodd" d="M42.9299 5.59719C45.4145 4.76442 45.2553 4.17454 42.7707 3.68876L22.4691 0.254348C20.2483 -0.162038 18.8219 -0.162038 15.2798 0.983022L6.02729 3.65444C2.64329 4.62562 0.793252 5.52741 3.27896 6.01319L24.2674 10.142C26.7519 10.6277 30.0825 9.96847 32.3032 9.20548L42.9299 5.59681V5.59719ZM15.9132 4.76442C15.9018 4.71695 15.8821 4.6705 15.8544 4.62601C15.8603 4.65878 15.8626 4.69155 15.8597 4.72471L15.8609 4.73011C15.8609 4.8342 15.808 4.9036 15.7551 4.973L15.7504 4.9676C15.3121 5.50003 13.6278 5.90871 11.632 5.90871C9.6363 5.90871 7.95194 5.50042 7.51366 4.96837L7.50779 4.973C7.50148 4.96088 7.49501 4.9488 7.4884 4.93676C7.45888 4.89613 7.43642 4.85345 7.42143 4.80953C7.4091 4.78367 7.40238 4.75681 7.40145 4.72972L7.40321 4.72471C7.40222 4.7147 7.40163 4.70467 7.40145 4.69464C7.40145 4.18302 8.43604 3.74659 9.91243 3.56654C10.4647 3.48943 11.0845 3.44587 11.7372 3.44587C14.0625 3.44587 15.966 4.00105 15.966 4.66032C15.966 4.67767 15.9525 4.69502 15.9396 4.71237C15.925 4.7282 15.9159 4.74599 15.9132 4.76442ZM19.2443 4.69464C19.2443 5.35391 21.1478 5.90909 23.4743 5.90909C25.799 5.90909 27.7037 5.35391 27.7037 4.69464C27.7037 4.03536 25.8002 3.48018 23.4737 3.48018C21.1478 3.44548 19.2443 4.00066 19.2443 4.69464ZM31.1929 4.69541C31.1929 5.35468 33.0435 5.87478 35.3171 5.87478C37.5901 5.87478 39.4402 5.3543 39.4402 4.69541C39.4402 4.03613 37.5896 3.51565 35.3165 3.51565C33.0441 3.48095 31.1929 4.03613 31.1929 4.69541Z" fill="white"/>
<path fill-rule="evenodd" clip-rule="evenodd" d="M24.0023 31.3753C26.4874 31.8263 28.4961 30.8548 28.4961 29.2239V14.4789C28.4961 12.848 26.5397 11.4258 24.0546 10.9747L3.48975 6.74143C1.00463 6.2915 0 7.08919 0 8.72003L1.11038 22.8756C1.11038 24.5061 2.11441 26.31 4.59954 26.7615L24.0023 31.3753ZM3.807 10.6277C3.807 10.6277 3.807 9.96841 4.91972 9.97882C5.04428 9.97767 5.1841 9.98499 5.34038 10.0035C6.063 10.1515 6.78093 10.3081 7.49533 10.4723C8.0699 10.6019 8.63449 10.7287 9.1462 10.8363C9.1462 10.8363 10.4152 11.3221 10.5738 12.016L10.9451 18.9893L11.4727 24.5755C11.4727 25.3716 10.2249 25.2906 9.93874 25.2721C9.91348 25.2702 9.89526 25.2687 9.88645 25.2687C9.32304 25.121 8.59336 24.9633 7.86721 24.806C7.23154 24.6688 6.59821 24.5315 6.08063 24.4012C5.92922 24.3518 5.78591 24.2924 5.65293 24.2238L5.65763 24.2285C4.91738 23.8815 4.75875 23.3957 4.75875 23.2569V23.1875C4.64419 21.2775 4.30638 17.0026 4.05023 13.7352C3.95211 12.491 3.86575 11.3934 3.80759 10.6277H3.807ZM19.5085 21.938C19.2735 21.6075 18.9316 21.1792 18.632 20.8037C18.4604 20.5882 18.3018 20.3904 18.1872 20.2381C17.87 19.8225 17.8171 19.2669 18.1332 18.9897C18.3982 18.7464 19.0855 18.1916 19.6666 17.7406L23.3149 14.8609C23.8966 14.4099 23.6322 13.9241 22.8391 13.7506L18.5562 12.8484C18.0921 12.7532 17.6755 12.6788 17.3418 12.6826C17.0428 12.6795 16.806 12.7335 16.6539 12.8831C16.3954 13.109 16.2003 13.3045 15.9906 13.5131C15.8132 13.6893 15.6263 13.8755 15.3855 14.0976L14.8567 14.5834C14.4948 14.8918 14.0107 15.3456 13.5707 15.7569C13.3674 15.9478 13.1729 16.1294 13.0061 16.2836L12.0015 17.1854C11.6313 17.4977 11.4727 17.9488 11.5256 18.3651C11.539 18.296 11.558 18.2274 11.5826 18.1596C11.5726 18.443 11.6566 18.726 11.8428 18.9546L17.2884 26.2753C17.7108 26.8999 18.1867 27.2816 19.4562 27.5588L23.4207 28.4956C24.2667 28.6691 24.5839 28.4262 24.2138 27.9058L19.5091 21.9387L19.5085 21.938Z" fill="#DBDBDB"/>
<path d="M38.0121 18.4336L39.2811 17.8438C39.4926 17.7397 39.6512 17.4968 39.5983 17.3233L38.9109 14.3743C38.8581 14.2008 38.8052 14.2008 38.7523 14.3743L38.1707 16.5256C38.1707 16.6759 38.0908 16.9304 38.0356 17.1089L38.0121 17.1845L37.6948 18.2948C37.6419 18.4683 37.8006 18.5377 38.0121 18.4336Z" fill="#DBDBDB"/>
<path fill-rule="evenodd" clip-rule="evenodd" d="M44.4097 24.6448C46.3132 23.4651 46.4183 21.9383 46.4183 20.2381L47 7.40182C47 5.66688 47 5.04231 44.9913 5.94447L33.2542 10.2124C30.6634 11.1146 29.9766 12.7447 29.9766 14.4453L29.6064 28.774C29.6064 30.4738 30.4524 31.5838 33.0433 30.6816L44.4097 24.6452V24.6448ZM43.7752 21.0708C43.8281 21.1055 43.8281 21.1398 43.8281 21.1742C43.9338 21.4518 44.0924 21.9028 44.0396 22.1804C43.8445 22.534 43.5572 22.6789 43.1383 22.8914L43.0349 22.9442L42.5473 23.1944C42.2183 23.364 41.8893 23.5337 41.6073 23.6721C41.0786 23.8456 41.0257 23.568 41.0257 23.568C40.7831 22.5134 40.5187 21.461 40.2326 20.4112L36.7969 22.0767C36.4267 23.3606 36.0566 24.8171 35.6865 26.3439C35.6865 26.3439 35.5807 26.7603 35.052 27.0379C34.7312 27.1909 34.4909 27.3124 34.3129 27.4022C34.1684 27.4755 34.0656 27.5267 33.9945 27.5584C33.8482 27.6062 33.7278 27.6705 33.5967 27.7396C33.5367 27.7727 33.4754 27.8049 33.4129 27.8359L33.3377 27.8737C33.1614 27.9632 33.0104 28.0395 32.7778 28.0091C32.4611 27.94 32.5146 27.558 32.5669 27.4192V27.3845L32.8312 26.6215L36.3733 14.5822L36.744 13.264C36.7657 13.178 36.8063 13.0442 36.8527 12.8873C36.9191 12.6652 36.999 12.3977 37.0612 12.154C37.0612 12.154 37.325 11.46 38.2768 11.0784L38.594 10.9743C38.8584 10.9049 39.1228 10.8008 39.3871 10.6967C39.4136 10.6967 39.4529 10.6793 39.4929 10.662C39.5334 10.6442 39.5722 10.6273 39.5986 10.6273C39.6289 10.6253 39.6587 10.6209 39.6874 10.6142C39.7441 10.6016 39.8032 10.5943 39.863 10.5926C40.1797 10.5579 40.6033 10.6273 40.8148 10.8008C40.9205 10.8702 40.9205 10.9396 40.9205 11.009L41.0791 11.5294C41.1849 11.7723 41.2378 12.0152 41.2906 12.2581C41.3141 12.3661 41.3482 12.4817 41.3835 12.6009C41.4269 12.7485 41.4722 12.9024 41.5021 13.0562C41.5292 13.1603 41.555 13.2729 41.5815 13.3854C41.6079 13.498 41.6343 13.611 41.6602 13.7155C41.6602 13.7671 41.6737 13.8103 41.6872 13.8539C41.7001 13.8971 41.7136 13.9406 41.7136 13.9927L43.7758 21.0704L43.7752 21.0708Z" fill="#DBDBDB"/>
</svg>
