<svg width="47" height="25" viewBox="0 0 47 25" fill="none" xmlns="http://www.w3.org/2000/svg">
<path d="M46.7745 0V22.5C46.7753 23.8794 46.0383 24.9987 45.1283 25H1.66961C1.23262 24.9994 0.813693 24.7357 0.504977 24.2668C0.196261 23.798 0.0234375 23.1624 0.0234375 22.5V5.5C0.0234375 4.83755 0.196261 4.202 0.504977 3.73316C0.813693 3.26432 1.23262 3.00059 1.66961 3H44.4699L46.7745 0ZM7.54618 9.81432L7.41975 9.81415C7.10219 9.80866 6.78789 9.91173 6.50021 10.1157C6.2127 10.3289 5.97287 10.6655 5.81054 11.0837H5.78961V10.0363H4.37899V21.1139H5.86273V17.2259H5.88335C6.0572 17.6185 6.29711 17.9336 6.57823 18.1384C6.86693 18.3469 7.18322 18.4528 7.50299 18.4479C7.86308 18.4605 8.21982 18.3407 8.54271 18.0987C8.83268 17.8738 9.08608 17.554 9.28458 17.1625C9.48707 16.759 9.63772 16.3014 9.72868 15.8136C9.82691 15.2978 9.87615 14.7635 9.87495 14.2267C9.87635 13.661 9.82716 13.0977 9.72868 12.5521C9.63963 12.0447 9.4871 11.5679 9.27937 11.1478C9.07543 10.7436 8.81492 10.413 8.51658 10.1797C8.17599 9.92457 7.79952 9.79909 7.41975 9.81415L7.54618 9.81432ZM28.4756 9.81433L28.3491 9.81415C28.0316 9.80867 27.7173 9.91174 27.4296 10.1157C27.1421 10.3289 26.9023 10.6655 26.74 11.0837H26.7191V10.0363H25.3085V21.1139H26.7918V17.2259H26.8127C26.9866 17.6185 27.2265 17.9336 27.5076 18.1384C27.7963 18.347 28.1126 18.4528 28.4324 18.4479C28.7924 18.4605 29.1492 18.3407 29.472 18.0987C29.762 17.8738 30.0155 17.554 30.214 17.1625C30.4165 16.759 30.5671 16.3014 30.6581 15.8136C30.7563 15.2978 30.8055 14.7635 30.8043 14.2267C30.8057 13.661 30.7565 13.0977 30.6581 12.5521C30.569 12.0447 30.4165 11.5679 30.2088 11.1478C30.0048 10.7436 29.7443 10.413 29.446 10.1797C29.1054 9.92458 28.7289 9.7991 28.3491 9.81415L28.4756 9.81433ZM33.0726 10.0363H31.5888V15.0827C31.5861 15.549 31.6158 16.0144 31.6776 16.4712C31.727 16.8559 31.8323 17.2191 31.9858 17.5344C32.1424 17.8372 32.35 18.0702 32.5867 18.2088C32.8992 18.3827 33.231 18.4635 33.5637 18.4469C33.8819 18.4453 34.1959 18.3369 34.4833 18.1296C34.7907 17.9068 35.0458 17.5469 35.2145 17.0981H35.2456V18.2407H36.6567V10.0363H35.1729V14.3366C35.173 15.1723 35.0825 15.7727 34.9012 16.1377C34.72 16.5028 34.4274 16.6853 34.0234 16.6853C33.6682 16.6851 33.4209 16.5185 33.2816 16.1854C33.1422 15.8523 33.0726 15.3471 33.0726 14.6698V10.0363ZM15.7274 9.81474C15.4274 9.81488 15.1281 9.86007 14.834 9.94965C14.5524 10.0308 14.2819 10.1834 14.0339 10.4009C13.799 10.6098 13.5988 10.8975 13.4488 11.242C13.2859 11.638 13.1957 12.0927 13.1876 12.5592H14.6711L14.6714 12.5598C14.6991 12.1154 14.7966 11.798 14.9639 11.6075C15.1313 11.4171 15.3612 11.3219 15.6535 11.3219C15.7777 11.3211 15.9017 11.3344 16.0245 11.3616C16.1315 11.3838 16.2346 11.4377 16.3279 11.5203C16.4159 11.6012 16.488 11.7162 16.5368 11.8535C16.5945 12.0336 16.6215 12.2328 16.6152 12.4328C16.6306 12.6331 16.5798 12.8321 16.4793 12.9644C16.3622 13.1001 16.2267 13.1949 16.0826 13.2421C15.8936 13.311 15.7015 13.3588 15.5079 13.3849C15.2919 13.4164 15.0724 13.4587 14.8496 13.5119C14.626 13.5651 14.4045 13.6366 14.1861 13.7261C13.9771 13.8089 13.7791 13.9458 13.6009 14.1308C13.4259 14.318 13.2827 14.5654 13.183 14.8528C13.0667 15.2099 13.011 15.6054 13.021 16.0033C13.0148 16.3795 13.0629 16.7533 13.162 17.0983C13.2511 17.3956 13.3854 17.6567 13.5539 17.86C13.7274 18.0659 13.9264 18.217 14.1391 18.3044C14.3739 18.402 14.6165 18.45 14.86 18.4472C15.1929 18.4474 15.5239 18.3726 15.8423 18.225C16.1604 18.0791 16.4483 17.8113 16.6783 17.4474C16.685 17.5833 16.6972 17.7185 16.7148 17.8521C16.732 17.9839 16.7547 18.1139 16.7827 18.2413H18.2874C18.218 18.0449 18.1719 17.8319 18.1508 17.6121L18.1412 17.4795C18.1127 17.1267 18.0987 16.7716 18.0993 16.4163V12.1474C18.0993 11.6502 18.0262 11.2509 17.8799 10.9493C17.733 10.6471 17.5392 10.4045 17.3157 10.2432C17.0749 10.0692 16.8174 9.95401 16.5529 9.902C16.2793 9.84445 16.0035 9.8153 15.7274 9.81474ZM39.8954 9.81367C39.608 9.81294 39.3211 9.85278 39.0386 9.93266C38.7741 10.0042 38.5197 10.1438 38.2863 10.3454C38.0648 10.539 37.8796 10.815 37.7481 11.1473C37.6026 11.5444 37.5321 11.9947 37.5443 12.4486C37.5375 12.7672 37.5881 13.0826 37.6906 13.361C37.7874 13.6085 37.9195 13.82 38.0773 13.98C38.2468 14.1508 38.4315 14.2844 38.6258 14.3767C38.8312 14.4774 39.042 14.5646 39.258 14.6384C39.6783 14.7623 40.0921 14.932 40.4963 15.1462C40.7923 15.3156 40.9403 15.5696 40.9403 15.908C40.9449 16.0855 40.9119 16.2606 40.8462 16.4078C40.7845 16.5388 40.7041 16.6473 40.6111 16.7251C40.513 16.8068 40.4073 16.8656 40.2977 16.8996C40.1895 16.9357 40.0792 16.9543 39.9685 16.9552C39.8258 16.956 39.6836 16.9294 39.5453 16.8759C39.4163 16.8278 39.2941 16.7444 39.1848 16.63C39.0796 16.5177 38.9921 16.3713 38.9288 16.2014C38.8597 16.0096 38.8253 15.7935 38.8293 15.575H37.4186C37.42 16.0572 37.5046 16.5305 37.6642 16.9476C37.8085 17.3044 38.0052 17.6058 38.2389 17.8284C38.4845 18.058 38.7552 18.2192 39.0383 18.3045C39.3407 18.4001 39.6489 18.448 39.9578 18.4473C40.2613 18.4476 40.5641 18.4024 40.8617 18.3124C41.1416 18.2322 41.4091 18.0734 41.6506 17.8442C42.157 17.3662 42.4529 16.51 42.4239 15.6067C42.4312 15.2728 42.3808 14.9418 42.2775 14.6466C42.1813 14.3898 42.0494 14.1678 41.8909 13.996C41.7228 13.8155 41.5379 13.6738 41.3424 13.5755C41.1349 13.469 40.9238 13.3789 40.7102 13.3057C40.5014 13.2316 40.2959 13.1629 40.0936 13.0994C39.9117 13.044 39.732 12.9725 39.5556 12.8851C39.4165 12.8203 39.2871 12.7152 39.1744 12.5757C39.0784 12.4544 39.0245 12.2731 39.0281 12.0837C39.023 11.938 39.0527 11.7944 39.1117 11.6791C39.1668 11.5793 39.2366 11.5005 39.3154 11.4491C39.4002 11.3943 39.4901 11.3595 39.5818 11.3459C39.6721 11.3307 39.7628 11.3228 39.8536 11.3223C40.0923 11.3135 40.329 11.3925 40.5432 11.5524C40.7384 11.7058 40.8464 11.9994 40.8671 12.4331H42.2778C42.2627 11.9869 42.1747 11.5533 42.0218 11.1713C41.8844 10.8461 41.7005 10.572 41.4836 10.3695C41.2566 10.1622 41.0072 10.0171 40.747 9.94104C40.4666 9.85555 40.1814 9.81288 39.8954 9.81367ZM21.0245 7.57665H19.5406V10.0363H18.642V11.5439H19.5403V16.3841C19.5306 16.7292 19.5772 17.0726 19.6761 17.3838C19.7608 17.6286 19.8894 17.8322 20.0471 17.971C20.2151 18.1144 20.3994 18.2086 20.5904 18.2487C20.8067 18.2975 21.0252 18.3214 21.2438 18.3201C21.39 18.3199 21.5398 18.3146 21.6931 18.3042C21.8332 18.2956 21.9727 18.2744 22.1111 18.2408V16.4955C22.0386 16.5173 21.9653 16.533 21.8917 16.5427C21.815 16.5532 21.7349 16.5585 21.6514 16.5585C21.4006 16.5584 21.2334 16.4949 21.1498 16.368C21.0662 16.2412 21.0244 15.9873 21.0244 15.6064V11.5439H22.1111L22.1112 10.0363H21.0245V7.57665ZM12.1845 6.91038H10.7007V18.2409H12.1845V6.91038ZM24.2427 10.0363H22.7589V18.2409H24.2427V10.0363ZM16.6149 14.2263V15.0675C16.6128 15.237 16.604 15.4065 16.5888 15.5749C16.5693 15.7958 16.5213 16.0087 16.4477 16.2017C16.3615 16.4224 16.2392 16.6056 16.0924 16.7333C15.9321 16.8816 15.7057 16.9557 15.4133 16.9554C15.2976 16.956 15.1821 16.9402 15.0684 16.9083C14.9648 16.8811 14.8656 16.8246 14.7759 16.7416C14.6918 16.6617 14.6233 16.5495 14.5773 16.4163C14.5255 16.2589 14.5003 16.0843 14.5041 15.9085C14.4997 15.7274 14.5248 15.5475 14.5773 15.3848C14.6241 15.2506 14.6902 15.134 14.7706 15.0436C14.8564 14.9495 14.9517 14.8771 15.0528 14.8294C15.1606 14.7766 15.2705 14.7341 15.3819 14.7024C15.5003 14.6709 15.6187 14.6445 15.7372 14.6231C15.8556 14.6017 15.9688 14.5753 16.0768 14.5438C16.1794 14.5141 16.2806 14.4743 16.3798 14.4246C16.4663 14.3836 16.5463 14.3161 16.6149 14.2263ZM28.0252 11.5123C28.2358 11.502 28.444 11.5817 28.6261 11.7423C28.7887 11.8943 28.9263 12.1006 29.0283 12.3454C29.1359 12.6059 29.212 12.8934 29.253 13.1945C29.2983 13.5126 29.3211 13.8371 29.321 14.1625C29.3211 14.4875 29.3001 14.8118 29.2583 15.1305C29.222 15.4262 29.1493 15.7088 29.044 15.9637C28.9433 16.2012 28.8073 16.3995 28.6469 16.5429C28.0876 16.9909 27.3959 16.7435 27.0277 15.9636C26.922 15.7082 26.8477 15.4259 26.8083 15.1304C26.7629 14.8124 26.7401 14.4878 26.7404 14.1624C26.7399 13.8321 26.7608 13.5026 26.803 13.1785C26.8398 12.8807 26.9124 12.5956 27.0172 12.3375C27.1174 12.0953 27.2532 11.8916 27.414 11.7423C27.5995 11.5804 27.8113 11.5007 28.0252 11.5123ZM7.09545 11.512C7.306 11.5018 7.51421 11.5815 7.69629 11.7421C7.85891 11.8941 7.99651 12.1004 8.09862 12.3452C8.20619 12.6057 8.28226 12.8932 8.32327 13.1942C8.36855 13.5123 8.39131 13.8368 8.39118 14.1623C8.39136 14.4873 8.37036 14.8115 8.32848 15.1303C8.29225 15.426 8.21957 15.7086 8.11425 15.9634C8.01366 16.2008 7.87779 16.3992 7.71753 16.5427C7.15808 16.9912 6.46605 16.7437 6.09789 15.9633C5.99222 15.7079 5.91787 15.4257 5.87845 15.1302C5.83307 14.8121 5.8103 14.4876 5.81053 14.1621C5.81001 13.8319 5.83101 13.5023 5.87323 13.1783C5.91001 12.8804 5.98263 12.5953 6.08746 12.3373C6.1876 12.0951 6.3234 11.8914 6.48419 11.7421C6.66972 11.5802 6.88151 11.5005 7.09545 11.512ZM24.2427 6.91038H22.7589V8.76675H24.2427V6.91038Z" fill="#CCADCA"/>
</svg>
