<svg width="48" height="48" viewBox="0 0 48 48" fill="none" xmlns="http://www.w3.org/2000/svg">
<g clip-path="url(#clip0_6_1283)">
<path d="M18.3604 37.162C17.5851 37.162 16.9541 36.531 16.9541 35.7557C16.9541 34.979 16.3246 34.3495 15.5479 34.3495C14.7711 34.3495 14.1416 34.979 14.1416 35.7557C14.1416 37.5945 15.3245 39.1611 16.9691 39.7375V40.9688C16.9691 41.7455 17.5986 42.375 18.3754 42.375C19.1521 42.375 19.7816 41.7455 19.7816 40.9688V39.7273C21.4105 39.1428 22.5791 37.5835 22.5791 35.7557C22.5791 33.4296 20.6865 31.537 18.3604 31.537C17.5851 31.537 16.9541 30.906 16.9541 30.1307C16.9541 29.3551 17.5851 28.7245 18.3604 28.7245C19.1356 28.7245 19.7666 29.3551 19.7666 30.1307C19.7666 30.9075 20.3961 31.537 21.1729 31.537C21.9496 31.537 22.5791 30.9075 22.5791 30.1307C22.5791 28.303 21.4105 26.7436 19.7816 26.1588V24.0938C19.7816 23.317 19.1521 22.6875 18.3754 22.6875C17.5986 22.6875 16.9691 23.317 16.9691 24.0938V26.1486C15.3245 26.725 14.1416 28.2916 14.1416 30.1307C14.1416 32.4569 16.0342 34.3495 18.3604 34.3495C19.1356 34.3495 19.7666 34.9801 19.7666 35.7557C19.7666 36.531 19.1356 37.162 18.3604 37.162Z" fill="white"/>
<path d="M5.73193 45.7035C8.65833 47.2701 12.676 48 18.375 48C23.012 48 26.502 47.5195 29.2134 46.4978C29.9879 47.4155 31.1455 48 32.4375 48H43.7812C46.1074 48 48 46.1074 48 43.7812C48 42.7017 47.5917 41.7158 46.9222 40.9688C47.592 40.2217 48 39.2358 48 38.1562C48 37.0767 47.5917 36.0908 46.9222 35.3438C47.592 34.5967 48 33.6108 48 32.5312C48 31.4517 47.5917 30.4658 46.9222 29.7188C47.592 28.9717 48 27.9858 48 26.9062C48 24.5801 46.1074 22.6875 43.7812 22.6875H32.4375C32.3005 22.6875 32.165 22.6945 32.0314 22.7076C30.62 20.9982 28.9662 19.5648 27.1439 18.4655C27.8115 17.7191 28.2188 16.7344 28.2188 15.6562C28.2188 13.9757 27.2307 12.5219 25.805 11.844L28.1495 4.65491C28.2891 4.22644 28.2151 3.75732 27.9507 3.39294C27.6859 3.0282 27.2629 2.8125 26.8125 2.8125H22.3521C21.7712 1.17554 20.2083 0 18.375 0C16.5414 0 14.9777 1.17554 14.3972 2.8125H9.9375C9.48706 2.8125 9.06409 3.0282 8.79932 3.39294C8.53491 3.75732 8.46094 4.22644 8.60046 4.65491L10.945 11.844C9.51929 12.5219 8.53125 13.9757 8.53125 15.6562C8.53125 16.7351 8.93884 17.7206 9.60754 18.4673C3.96533 21.8727 0 28.3403 0 35.3438C0 40.1818 1.92847 43.667 5.73193 45.7035ZM45.1875 32.5312C45.1875 33.3065 44.5565 33.9375 43.7812 33.9375H32.4375C31.6622 33.9375 31.0312 33.3065 31.0312 32.5312C31.0312 31.756 31.6622 31.125 32.4375 31.125H43.7812C44.5565 31.125 45.1875 31.756 45.1875 32.5312ZM45.1875 38.1562C45.1875 38.9315 44.5565 39.5625 43.7812 39.5625H32.4375C31.6622 39.5625 31.0312 38.9315 31.0312 38.1562C31.0312 37.381 31.6622 36.75 32.4375 36.75H43.7812C44.5565 36.75 45.1875 37.381 45.1875 38.1562ZM43.7812 45.1875H32.4375C31.6622 45.1875 31.0312 44.5565 31.0312 43.7812C31.0312 43.006 31.6622 42.375 32.4375 42.375H43.7812C44.5565 42.375 45.1875 43.006 45.1875 43.7812C45.1875 44.5565 44.5565 45.1875 43.7812 45.1875ZM45.1875 26.9062C45.1875 27.6815 44.5565 28.3125 43.7812 28.3125H32.4375C31.6622 28.3125 31.0312 27.6815 31.0312 26.9062C31.0312 26.131 31.6622 25.5 32.4375 25.5H43.7812C44.5565 25.5 45.1875 26.131 45.1875 26.9062ZM23.9597 17.0625H12.7907C12.7782 17.0621 12.7657 17.0625 12.7533 17.0625H12.75C11.9747 17.0625 11.3438 16.4315 11.3438 15.6562C11.3438 14.8825 11.9722 14.2526 12.7456 14.2504H12.7496C12.7529 14.2504 12.7562 14.25 12.7595 14.25H23.9901C23.9934 14.25 23.9971 14.2504 24.0004 14.2504H24.0044C24.7778 14.2526 25.4062 14.8825 25.4062 15.6562C25.4062 16.4315 24.7753 17.0625 24 17.0625H23.9956C23.9839 17.0625 23.9718 17.0621 23.9597 17.0625ZM15.5625 5.625C16.3392 5.625 16.9688 4.99548 16.9688 4.21875C16.9688 3.44348 17.5997 2.8125 18.375 2.8125C19.1503 2.8125 19.7812 3.44348 19.7812 4.21875V7.03125C19.7812 7.80798 20.4108 8.4375 21.1875 8.4375C21.9642 8.4375 22.5938 7.80798 22.5938 7.03125V5.625H24.8749L22.9794 11.4375H13.7706L11.8751 5.625H15.5625ZM13.0243 19.875H23.7202C25.8497 20.7645 27.7906 22.1653 29.4093 23.9733C28.6732 24.7332 28.2188 25.7673 28.2188 26.9062C28.2188 27.9858 28.6271 28.9717 29.2965 29.7188C28.6271 30.4658 28.2188 31.4517 28.2188 32.5312C28.2188 33.6108 28.6271 34.5967 29.2965 35.3438C28.6271 36.0908 28.2188 37.0767 28.2188 38.1562C28.2188 39.2358 28.6271 40.2217 29.2965 40.9688C28.6271 41.7158 28.2188 42.7017 28.2188 43.7812C28.2188 43.8102 28.2202 43.8387 28.2209 43.8673C25.842 44.7656 22.6736 45.1875 18.375 45.1875C13.1572 45.1875 9.5614 44.5635 7.05945 43.2239C4.16199 41.6726 2.8125 39.1688 2.8125 35.3438C2.8125 28.7109 6.99902 22.3901 13.0243 19.875Z" fill="white"/>
</g>
<defs>
<clipPath id="clip0_6_1283">
<rect width="48" height="48" fill="white"/>
</clipPath>
</defs>
</svg>
