<svg width="48" height="48" viewBox="0 0 48 48" fill="none" xmlns="http://www.w3.org/2000/svg">
<path d="M25.4041 30.4862C24.5077 30.1694 23.5199 29.7894 22.9894 29.3732C22.9636 29.353 22.9214 29.2576 22.9198 29.1109C22.9217 28.7916 23.1021 28.4354 23.4349 28.3351C24.0175 28.1585 24.5704 28.2745 24.9332 28.5432C25.506 29.0647 26.3929 29.0251 26.9166 28.4536C27.4396 27.8827 27.4024 26.9971 26.8349 26.4718C26.8255 26.4635 26.8264 26.4678 26.8367 26.4567C26.5215 26.166 25.9687 25.8146 25.2516 25.6059V25.4873C25.2516 24.7107 24.622 24.0811 23.8454 24.0811C23.088 24.0811 22.4391 24.6859 22.4391 25.5014V25.6909C19.9045 26.612 19.3202 30.0843 21.2536 31.6002C22.1357 32.2919 23.3964 32.7728 24.4666 33.1515C25.0406 33.3545 25.2556 33.7578 25.1713 34.2597C25.101 34.6783 24.7404 35.3883 23.8359 35.3943C22.8963 35.4011 22.6765 35.3658 21.9911 34.9174C21.341 34.4923 20.4696 34.6743 20.0444 35.3244C19.6282 35.9605 19.7848 36.8487 20.4511 37.2848C21.1986 37.7741 21.7907 38.0165 22.439 38.1301V38.2653C22.439 39.042 23.0686 39.6716 23.8453 39.6716C24.6027 39.6716 25.2515 39.0667 25.2515 38.2513V37.9711C28.68 36.7321 29.0886 31.7886 25.4041 30.4862Z" fill="white"/>
<path d="M45.2739 23.4251C45.5174 23.1468 45.6288 22.7974 45.6223 22.4707C45.5316 18.3304 43.8331 14.6204 40.193 12.6737C37.961 11.4806 35.3553 11.1235 32.8273 11.173C32.8368 11.173 32.6955 11.3495 36.0091 6.91434C38.219 4.25671 36.4629 0.226964 33.0402 0.0104957C32.7418 -0.00834806 32.4536 -0.0230668 32.1018 0.165558C31.9667 0.238121 31.8391 0.335996 31.7362 0.447277C31.7192 0.465183 30.2032 2.04609 27.6164 2.85421C26.4126 0.896527 24.3885 0.200808 24.2878 0.167246C23.9947 0.0695582 23.6724 0.0675894 23.355 0.182433C22.1851 0.604027 20.853 1.58071 20.0699 2.85412C18.6752 2.41846 17.0595 1.53421 16.0072 0.504464C15.8274 0.321933 15.6652 0.170152 15.3574 0.0704019C15.2401 0.0322457 15.0787 0.00121444 14.9228 0.00121444C11.3367 0.00121444 9.40049 4.17553 11.6772 6.91434L14.859 11.173C13.4381 11.1452 12.0093 11.2456 10.6332 11.5448C5.00596 12.7666 2.18334 17.0105 2.06379 22.4707C2.0475 23.2471 2.66334 23.8903 3.43978 23.9072C4.22025 23.9228 4.85934 23.3083 4.87621 22.5319C4.92243 20.4094 5.49196 17.5016 7.94268 15.7027C9.97725 14.2088 12.7488 13.8918 15.2503 13.9947C5.96287 26.7824 6.19134 26.4674 6.17409 26.4924C1.85559 32.7726 4.02356 41.4008 10.7327 44.8766C11.0698 45.051 11.2437 45.1308 11.6819 45.3258C19.7242 48.8911 27.9673 48.8917 36.0136 45.3217C36.2471 45.2182 36.4918 45.1078 36.7217 44.9947C43.3702 41.7255 45.7511 33.4009 41.8947 27.0832C41.5395 26.4991 42.1916 27.4271 32.4359 13.9947C34.9369 13.8918 37.7087 14.2087 39.7435 15.7027C42.1942 17.5016 42.7638 20.4094 42.81 22.5319C42.838 23.82 44.4367 24.3841 45.2739 23.4251ZM39.3574 28.3303C42.5961 33.352 40.6545 40.105 35.2312 42.5894C27.6655 46.0552 20.0239 46.0585 12.4552 42.5894C7.00734 40.0938 5.10374 33.3316 8.32903 28.3304C8.49806 28.0687 7.7114 29.1612 18.4782 14.3366C19.4016 14.4876 20.3675 14.6857 21.3745 14.9308C21.0241 16.2824 20.3667 17.6053 19.2497 18.4429C18.3595 19.1104 18.5659 20.489 19.5913 20.8801C19.7259 20.9315 19.8984 20.9743 20.0945 20.9743C20.6175 20.9743 20.928 20.7157 21.2737 20.4228C22.4944 19.3891 23.3239 18.0025 23.8433 16.4761C24.3663 18.0125 25.1988 19.3946 26.4129 20.4228C26.7688 20.7243 27.0728 20.9743 27.5922 20.9743C27.7543 20.9743 27.9285 20.9437 28.0944 20.8805C29.1232 20.4883 29.3251 19.1089 28.4369 18.4429C27.3209 17.6061 26.6623 16.2819 26.3121 14.9308C26.3534 14.9308 27.4911 14.6174 29.2084 14.3366C40.0309 29.2382 39.1911 28.0728 39.3574 28.3303ZM13.9063 5.199C13.8192 5.08275 13.4946 4.75406 13.5149 4.18181C13.5406 3.57225 13.9378 3.06646 14.4485 2.89021C15.8572 4.11487 17.7296 5.15259 19.7737 5.69531C19.9477 5.74246 20.5812 5.90296 20.7459 5.90296C21.3984 5.94862 21.9794 5.53987 22.1773 4.94606C22.3955 4.2914 22.844 3.73912 23.4176 3.32175C23.7063 3.11175 23.8385 3.06131 23.8385 3.05193C23.8438 3.04893 23.8422 3.04875 23.8478 3.05193C23.9279 3.072 24.3575 3.37265 24.5943 3.58593C25.369 4.28512 25.4557 4.89131 25.6072 5.17143C25.7307 5.39934 25.9171 5.59593 26.166 5.73281C26.6411 5.99428 27.0335 5.91506 27.5622 5.78287C29.7947 5.22478 31.6928 4.23337 33.2378 2.89021C34.0561 3.17287 34.4789 4.23646 33.9135 5.02856C33.8297 5.1449 33.9106 5.02434 33.6379 5.3894C33.3402 5.7869 31.9109 7.70081 29.0614 11.5147C27.3217 11.7823 25.5336 12.1951 23.8432 12.6724C22.1664 12.1988 20.3762 11.7841 18.6253 11.5148C18.6159 11.5133 18.5493 11.4133 13.9063 5.199Z" fill="white"/>
</svg>
