<svg width="48" height="48" viewBox="0 0 48 48" fill="none" xmlns="http://www.w3.org/2000/svg">
<path d="M39.2816 40.4571H1.27347C0.587755 40.4571 0 39.8694 0 39.1837V31.151C0 30.8571 0.0979592 30.5633 0.391837 30.2694L3.03673 27.6245V1.27347C3.03673 0.587755 3.52653 0 4.21224 0H36.2449C36.9306 0 37.5184 0.587755 37.5184 1.27347V27.8204L40.1633 30.3673C40.3592 30.5633 40.5551 30.9551 40.5551 31.249V39.2816C40.5551 39.9673 39.9673 40.4571 39.2816 40.4571ZM2.44898 38.0082H38.0082V31.7388L35.3633 29.0939C35.1673 28.898 34.9714 28.5061 34.9714 28.2122V2.44898H5.48571V28.2122C5.48571 28.5061 5.38775 28.8 5.09388 29.0939L2.44898 31.7388V38.0082ZM16.2612 28.5061H8.22857C7.54286 28.5061 6.9551 27.9184 6.9551 27.2327V15.2816C6.9551 14.5959 7.54286 14.0082 8.22857 14.0082H16.2612C16.9469 14.0082 17.5347 14.5959 17.5347 15.2816V27.3306C17.4367 27.9184 16.9469 28.5061 16.2612 28.5061ZM9.50204 26.0571H15.0857V16.4571H9.50204V26.0571ZM24.2939 28.5061H16.2612C15.5755 28.5061 14.9878 27.9184 14.9878 27.2327V15.2816C14.9878 14.5959 15.5755 14.0082 16.2612 14.0082H24.2939C24.9796 14.0082 25.5673 14.5959 25.5673 15.2816V27.3306C25.4694 27.9184 24.9796 28.5061 24.2939 28.5061ZM17.4367 26.0571H23.0204V16.4571H17.4367V26.0571ZM32.2286 28.5061H24.1959C23.5102 28.5061 22.9224 27.9184 22.9224 27.2327V15.2816C22.9224 14.5959 23.5102 14.0082 24.1959 14.0082H32.2286C32.9143 14.0082 33.502 14.5959 33.502 15.2816V27.3306C33.502 27.9184 32.9143 28.5061 32.2286 28.5061ZM25.4694 26.0571H31.0531V16.4571H25.4694V26.0571ZM32.2286 12.4408H8.22857C7.54286 12.4408 6.9551 11.8531 6.9551 11.1673V5.19184C6.9551 4.50612 7.54286 3.91837 8.22857 3.91837H32.2286C32.9143 3.91837 33.502 4.50612 33.502 5.19184V11.1673C33.502 11.951 32.9143 12.4408 32.2286 12.4408ZM9.50204 9.99184H31.0531V6.46531H9.50204V9.99184ZM36.5388 46.2367V40.4571C35.0694 40.4571 35.1673 40.4571 34.0898 40.4571V45.0612H5.48571V40.4571C4.21224 40.4571 5.19184 40.4571 3.03673 40.4571V46.2367C3.03673 46.9225 3.62449 47.5102 4.3102 47.5102H35.2653C35.951 47.5102 36.5388 46.9225 36.5388 46.2367ZM44.2776 25.4694H36.2449C35.5592 25.4694 34.9714 24.8816 34.9714 24.1959V18.2204C34.9714 17.5347 35.5592 16.9469 36.2449 16.9469H44.2776C46.0408 16.9469 47.5102 18.4163 47.5102 20.1796V22.1388C47.5102 24 46.0408 25.4694 44.2776 25.4694ZM37.5184 23.0204H44.2776C44.6694 23.0204 45.0612 22.6286 45.0612 22.2367V20.2776C45.0612 19.8857 44.6694 19.4939 44.2776 19.4939H37.5184V23.0204ZM43.298 10.4816C42.2204 10.4816 41.1429 10.0898 40.3592 9.30612C39.5755 8.52245 39.0857 7.4449 39.0857 6.36735V6.17143C39.0857 5.09388 39.5755 4.01633 40.3592 3.23265C41.1429 2.44898 42.2204 2.05714 43.3959 2.05714C45.649 2.05714 47.5102 3.91837 47.5102 6.17143C47.5102 7.34694 47.1184 8.32653 46.3347 9.20816C45.551 9.99184 44.4735 10.4816 43.298 10.4816ZM43.298 4.50612C42.8082 4.50612 42.4163 4.70204 42.0245 4.99592C41.7306 5.2898 41.5347 5.77959 41.4367 6.26939C41.4367 6.75918 41.6327 7.24898 42.0245 7.54286C42.3184 7.83673 42.8082 8.03265 43.298 8.03265C43.7878 8.03265 44.1796 7.83673 44.5714 7.4449C44.8653 7.15102 45.0612 6.75918 45.0612 6.26939C45.0612 5.2898 44.2776 4.50612 43.298 4.50612ZM44.4735 17.0449V10.3837C44.0816 10.5796 42.2204 10.6776 42.0245 10.3837V17.0449H44.4735Z" fill="white"/>
</svg>
