<svg width="48" height="48" viewBox="0 0 48 48" fill="none" xmlns="http://www.w3.org/2000/svg">
<g clip-path="url(#clip0_6_1250)">
<path d="M44.2 27.5749C46.3 27.5749 48 29.3111 48 31.4558V44.1196C48 46.2643 46.3 48.0005 44.2 48.0005H3.8C1.7 48.0005 0 46.2643 0 44.1196V31.4558C0 29.3111 1.7 27.5749 3.8 27.5749H5.6C1.5 16.9537 6.9 4.80047 17.8 1.12387C33.5 -4.18676 48.6 11.643 42.4 27.5749H44.2ZM45.1 31.4558C45.1 30.9452 44.7 30.5366 44.2 30.5366H3.8C3.3 30.5366 2.9 30.9452 2.9 31.4558V44.1196C2.9 44.6303 3.3 45.0388 3.8 45.0388H44.2C44.7 45.0388 45.1 44.6303 45.1 44.1196V31.4558ZM40.3 15.5239C39.4 12.3579 37.4 9.39621 35.8 7.8643L35.6 12.6643C35.5 14.0941 36.7 15.3196 38.1 15.4217L40.3 15.5239ZM33 5.71962C29.4 3.37068 25.1 2.55366 20.9 3.37068L27.8 10.9281C29.4 12.6643 29.3 15.4217 27.6 17.0558L23.9 20.426C29.9 20.6303 31.7 24.9196 31.1 27.5749H39.3C40.6 24.7154 41.1 21.6515 40.8 18.4856L38 18.3834C35 18.2813 32.6 15.7281 32.8 12.5622L33 5.71962ZM17.8 4.1877C14.8 5.31111 11.5 7.8643 9.5 11.2345L16.2 18.6898C17.5 20.1196 18.2 22.06 18.1 24.1026V27.5749H28C28.7 26.6558 29.2 23.592 22.6 23.2856C20.5 23.1834 19.5 20.5281 21.1 19.0983L25.6 14.9111C26.2 14.4005 26.2 13.4813 25.7 12.8686L17.8 4.1877ZM8.2 14.0941C6.6 18.4856 6.8 23.2856 8.7 27.5749H15.2L15.3 24.0005C15.4 22.7749 14.9 21.6515 14.1 20.7324L8.2 14.0941ZM14.4 40.9537H10.9V33.192C10.9 31.2515 8 31.2515 8 33.192V42.3834C8 43.2005 8.6 43.8132 9.4 43.8132H14.3C16.3 43.8132 16.3 40.9537 14.4 40.9537ZM17.1 33.192V42.3834C17.1 44.3239 20 44.3239 20 42.3834V33.192C20 31.2515 17.1 31.2515 17.1 33.192ZM27.6 32.7834C27.3 33.9069 26.1 37.4813 26.1 37.4813L24.7 32.7834C24.1 30.9451 21.4 31.8643 22 33.7026L24.8 42.8941C25.2 44.2217 27.1 44.2217 27.5 42.8941L30.3 33.7026C30.9 31.7622 28.1 30.9451 27.6 32.7834ZM38.5 34.6217C40.4 34.6217 40.4 31.66 38.5 31.66H33.6C32.8 31.66 32.2 32.2728 32.2 33.0898V42.2813C32.2 43.0983 32.8 43.7111 33.6 43.7111H38.5C40.4 43.7111 40.4 40.7494 38.5 40.7494H35V39.1154H37.1C39 39.1154 39 36.1537 37.1 36.1537H35V34.5196L38.5 34.6217Z" fill="white"/>
</g>
<defs>
<clipPath id="clip0_6_1250">
<rect width="48" height="48" fill="white"/>
</clipPath>
</defs>
</svg>
