<svg width="48" height="48" viewBox="0 0 48 48" fill="none" xmlns="http://www.w3.org/2000/svg">
<g clip-path="url(#clip0_6_1260)">
<path d="M12.5756 41.8138C12.2876 41.8138 11.9996 41.7071 11.7116 41.6005C11.1356 41.3871 10.7516 40.8538 10.5596 40.3205V40.2138L0.191626 11.9471C-0.288374 10.6671 0.287626 9.28046 1.34363 8.74712L20.4476 0.107124C21.5996 -0.42621 22.8476 0.21379 23.3276 1.38712L33.5996 29.8671C34.0796 31.1471 33.5036 32.5338 32.4476 33.0671L13.3436 41.6005C13.0556 41.8138 12.8636 41.8138 12.5756 41.8138ZM2.49563 11.2005L12.6716 39.0405L31.2956 30.6138L21.1196 2.77379L2.49563 11.2005ZM37.2476 47.5738C37.0556 47.5738 36.8636 47.5738 36.5756 47.4671L15.5516 40.6405C14.8796 40.4271 14.5916 39.6805 14.6876 39.0405C14.8796 38.2938 15.5516 37.9738 16.1276 38.0805L36.9596 44.8005L44.9276 16.0005L36.0956 13.3338C35.4236 13.1205 35.0396 12.3738 35.2316 11.7338C35.4236 10.9871 36.0956 10.5605 36.6716 10.7738L45.7916 13.5471C46.9436 13.9738 47.6156 15.3605 47.2316 16.5338L39.3596 45.8671C39.0716 46.9338 38.2076 47.5738 37.2476 47.5738ZM35.5196 38.5071H19.8716C19.1996 38.5071 18.6236 37.8671 18.6236 37.1205C18.6236 36.3738 19.1996 35.7338 19.8716 35.7338H35.3276V5.76046H23.8076C23.1356 5.76046 22.5596 5.12046 22.5596 4.37379C22.5596 3.62712 23.1356 2.98712 23.8076 2.98712H35.5196C36.7676 2.98712 37.7276 4.05379 37.7276 5.44046V36.0538C37.7276 37.4405 36.7676 38.5071 35.5196 38.5071ZM17.9516 30.0805L18.1436 29.8671C18.5276 29.5471 19.1996 29.0138 19.7756 28.6938C20.3516 28.4805 21.2156 28.2671 21.6956 28.2671H21.9836C22.6556 28.1605 23.0396 27.4138 22.9436 26.7738C22.8476 26.1338 22.2716 25.6005 21.5996 25.7071H21.4076C20.8316 25.8138 19.7756 25.9205 18.9116 26.3471C18.0476 26.7738 17.2796 27.4138 16.7996 27.8405L16.6076 27.9471C16.0316 28.3738 15.9356 29.2271 16.3196 29.7605C16.5116 30.0805 16.8956 30.2938 17.2796 30.2938C17.4716 30.4005 17.6636 30.2938 17.9516 30.0805ZM14.9756 27.4138C14.8796 27.4138 14.8796 27.4138 14.7836 27.4138C13.0556 27.3071 11.7116 26.2405 11.0396 24.3205C10.2716 22.0805 11.4236 19.7338 12.4796 17.7071C12.9596 16.7471 13.5356 15.4671 13.5356 15.0405C13.5356 14.5071 13.8236 13.9738 14.3036 13.6538C14.7836 13.4405 15.3596 13.5471 15.6476 14.0805C15.9356 14.5071 17.1836 14.9338 18.1436 15.1471C20.1596 15.7871 22.4636 16.5338 23.3276 18.7738C23.9996 20.6938 23.8076 22.5071 22.5596 23.8938C21.8876 24.7471 20.1596 25.6005 18.7196 25.6005C17.6636 26.7738 16.0316 27.4138 14.9756 27.4138ZM15.4556 16.9605C15.1676 17.6005 14.8796 18.2405 14.4956 18.9871C13.7276 20.4805 12.8636 22.2938 13.2476 23.2538C13.6316 24.2138 14.1116 24.6405 14.9756 24.7471C15.4556 24.7471 16.7996 24.1071 16.9916 23.5738C17.2796 22.9338 17.9516 22.6138 18.5276 22.9338C19.0076 23.1471 20.3516 22.5071 20.7356 22.1871C21.3116 21.4405 21.4076 20.8005 21.0236 19.8405C20.6396 18.7738 18.8156 18.2405 17.3756 17.7071C16.7036 17.3871 16.0316 17.1738 15.4556 16.9605Z" fill="white"/>
</g>
<defs>
<clipPath id="clip0_6_1260">
<rect width="48" height="48" fill="white"/>
</clipPath>
</defs>
</svg>
