<svg width="48" height="48" viewBox="0 0 48 48" fill="none" xmlns="http://www.w3.org/2000/svg">
<path d="M4.128 39.7867C3.456 39.7867 2.88 39.1467 2.88 38.4V14.4C2.88 12.48 4.32 10.88 6.048 10.88H9.024C9.696 10.88 10.272 11.52 10.272 12.2667C10.272 13.0133 9.696 13.6533 9.024 13.6533H6.144C5.76 13.6533 5.376 14.08 5.376 14.5067V38.5067C5.376 39.2533 4.8 39.7867 4.128 39.7867ZM44.544 38.1867V14.4C44.544 12.48 43.104 10.88 41.376 10.88H37.44C36.768 10.88 36.192 11.52 36.192 12.2667C36.192 13.0133 36.768 13.6533 37.44 13.6533H41.376C41.76 13.6533 42.144 14.08 42.144 14.5067V38.2933C43.104 38.1867 43.68 38.2933 44.544 38.1867ZM35.712 33.0667V2.45333C35.712 1.06667 34.752 0 33.6 0H12.96C11.712 0 10.752 1.06667 10.752 2.45333V33.0667C10.752 33.7067 10.944 34.3467 11.424 34.7733C11.808 35.2 12.384 35.52 12.96 35.52H33.6C34.752 35.4133 35.712 34.3467 35.712 33.0667ZM13.152 2.66667H33.312V32.7467H13.152V2.66667ZM25.632 12.6933C25.824 12.5867 25.92 12.48 26.016 12.48C26.688 12.2667 27.072 11.6267 26.88 10.88C26.688 10.1333 26.112 9.70667 25.44 9.92C25.152 10.0267 24.864 10.1333 24.576 10.3467C24.192 10.56 23.616 10.88 23.232 10.88C22.944 10.88 22.272 10.56 21.888 10.3467C21.504 10.1333 21.312 10.0267 21.024 9.92C20.352 9.70667 19.68 10.24 19.584 10.88C19.392 11.6267 19.776 12.2667 20.448 12.48C20.544 12.48 20.64 12.5867 20.832 12.6933C21.504 13.0133 22.368 13.5467 23.232 13.5467C24.192 13.5467 25.056 13.0133 25.632 12.6933ZM24.384 25.8133C24.48 25.28 25.536 24.4267 26.304 23.7867C27.936 22.2933 29.856 20.5867 29.856 18.24C29.856 16.2133 28.992 14.6133 27.456 13.76C27.456 13.76 27.36 13.76 27.36 13.6533C26.4 13.2267 25.44 13.5467 24.576 14.4C23.904 15.04 22.848 15.04 22.176 14.4C21.216 13.5467 20.256 13.3333 19.392 13.6533C19.392 13.6533 19.296 13.6533 19.296 13.76C17.664 14.6133 16.896 16.2133 16.896 18.24C16.896 20.5867 18.816 22.2933 20.448 23.7867C21.216 24.5333 22.176 25.3867 22.368 25.8133C22.56 26.3467 22.944 26.7733 23.52 26.7733C23.808 26.6667 24.288 26.3467 24.384 25.8133ZM20.544 16.4267C22.176 17.92 24.48 17.92 26.016 16.4267C26.208 16.32 26.304 16.1067 26.496 16.1067C27.168 16.5333 27.456 17.1733 27.456 18.1333C27.456 19.2 26.016 20.5867 24.768 21.5467C24.192 22.08 23.712 22.5067 23.232 23.04C22.752 22.5067 22.272 22.08 21.696 21.5467C20.544 20.48 19.008 19.2 19.008 18.1333C19.008 17.1733 19.296 16.5333 19.968 16.1067C20.16 16.1067 20.352 16.32 20.544 16.4267ZM42.432 47.4667H5.088C2.304 47.4667 0 44.9067 0 41.8133V39.68C0 38.9333 0.576 38.2933 1.248 38.2933H46.368C47.04 38.2933 47.616 38.9333 47.616 39.68V41.8133C47.52 44.9067 45.216 47.4667 42.432 47.4667ZM2.4 40.8533V41.7067C2.4 43.4133 3.648 44.6933 5.088 44.6933H42.336C43.104 44.6933 43.776 44.3733 44.256 43.84C44.736 43.3067 45.024 42.4533 45.024 41.7067V40.8533H2.4ZM27.936 42.88C27.936 42.1333 27.36 41.4933 26.688 41.4933H20.832C20.16 41.4933 19.584 42.1333 19.584 42.88C19.584 43.6267 20.16 44.2667 20.832 44.2667H26.688C27.36 44.16 27.936 43.6267 27.936 42.88Z" fill="white"/>
</svg>
