<svg width="48" height="48" viewBox="0 0 48 48" fill="none" xmlns="http://www.w3.org/2000/svg">
<path d="M23.808 47.4C10.464 47.4 1.056 39.72 0 32.64C0 32.52 0 32.52 0 32.4V21.36C0 21.24 0 21 0.096 20.88C1.632 14.88 7.104 9.96 14.688 7.68C15.36 7.44 15.936 8.04 16.128 8.76C16.32 9.6 15.84 10.32 15.264 10.56C8.64 12.36 3.744 16.56 2.4 21.48V32.16C3.36 38.04 12.096 44.4 23.808 44.4C35.616 44.4 43.968 38.04 45.12 32.16V21.48C43.872 16.68 38.976 12.48 32.352 10.44C31.68 10.2 31.296 9.48 31.488 8.64C31.68 7.8 32.256 7.32 32.928 7.56C40.704 9.84 46.176 14.76 47.52 20.88C47.52 21 47.52 21.12 47.52 21.24V32.28C47.52 32.4 47.52 32.52 47.52 32.64C46.176 39.84 36.96 47.4 23.808 47.4ZM23.712 35.04C12.576 35.04 3.936 29.28 3.936 21.84C3.936 21 4.512 20.28 5.184 20.28C5.856 20.28 6.432 21 6.432 21.84C6.432 27.36 14.4 32.04 23.808 32.04C33.216 32.04 41.184 27.36 41.184 21.84C41.184 21 41.76 20.28 42.432 20.28C43.104 20.28 43.68 21 43.68 21.84C43.584 29.28 34.848 35.04 23.712 35.04ZM37.44 26.4C38.304 25.08 38.688 23.76 38.688 22.32C38.688 17.52 33.792 13.56 26.784 12.6C26.112 12.48 25.536 13.08 25.44 13.92C25.344 14.76 25.824 15.48 26.496 15.6C32.064 16.32 36.192 19.2 36.192 22.32C36.192 23.04 36 23.76 35.52 24.48C35.136 25.08 35.136 26.04 35.712 26.64C35.904 26.88 36.192 27 36.48 27C36.864 26.88 37.152 26.76 37.44 26.4ZM12.48 27.24C12.96 26.64 12.864 25.68 12.384 25.08C11.616 24.12 11.232 23.16 11.232 22.2C11.232 19.08 15.36 16.2 20.928 15.48C21.6 15.36 22.08 14.64 21.984 13.8C21.888 12.96 21.312 12.36 20.64 12.48C13.632 13.44 8.736 17.4 8.736 22.2C8.736 24 9.408 25.68 10.752 27.24C10.944 27.48 11.232 27.6 11.52 27.6C11.904 27.72 12.288 27.48 12.48 27.24ZM26.88 28.68V18.84C26.88 18.48 26.784 18.12 26.496 17.76L24.576 15.24C24.384 15 24 14.76 23.712 14.76C23.424 14.76 23.04 14.88 22.848 15.24L20.928 17.76C20.736 18 20.544 18.48 20.544 18.84V28.68C20.544 29.52 21.12 30.24 21.792 30.24C22.464 30.24 23.04 29.52 23.04 28.68V19.44L23.808 18.48L24.576 19.44V28.68C24.576 29.52 25.152 30.24 25.824 30.24C26.496 30.24 26.88 29.52 26.88 28.68ZM24.96 17.52V2.76C24.96 1.92 24.384 1.2 23.712 1.2C23.04 1.2 22.464 1.92 22.464 2.76V17.52C22.464 18.36 23.04 19.08 23.712 19.08C24.384 19.08 24.96 18.36 24.96 17.52ZM26.88 1.56C26.88 0.72 26.4 0 25.728 0H21.792C21.12 0 20.544 0.72 20.544 1.56C20.544 2.4 21.12 3.12 21.792 3.12H25.728C26.4 3 26.88 2.4 26.88 1.56ZM31.776 6.48C31.776 5.64 31.2 4.92 30.528 4.92H16.896C16.224 4.92 15.648 5.64 15.648 6.48C15.648 7.32 16.224 8.04 16.896 8.04H30.624C31.296 7.92 31.776 7.32 31.776 6.48ZM18.144 8.88V3.96C18.144 3.12 17.568 2.4 16.896 2.4C16.224 2.4 15.648 3.12 15.648 3.96V8.88C15.648 9.72 16.224 10.44 16.896 10.44C17.568 10.44 18.144 9.72 18.144 8.88ZM31.776 8.88V3.96C31.776 3.12 31.2 2.4 30.528 2.4C29.856 2.4 29.28 3.12 29.28 3.96V8.88C29.28 9.72 29.856 10.44 30.528 10.44C31.2 10.44 31.776 9.72 31.776 8.88Z" fill="white"/>
</svg>
