<svg width="22" height="22" viewBox="0 0 22 22" fill="none" xmlns="http://www.w3.org/2000/svg">
<path d="M10.6816 2.5C13.4316 2.5 13.8066 2.5 14.9316 2.5C15.9316 2.5 16.4316 2.75 16.8066 2.875C17.3066 3.125 17.6816 3.25 18.0566 3.625C18.4316 4 18.6816 4.375 18.8066 4.875C18.9316 5.25 19.0566 5.75 19.1816 6.75C19.1816 7.875 19.1816 8.125 19.1816 11C19.1816 13.875 19.1816 14.125 19.1816 15.25C19.1816 16.25 18.9316 16.75 18.8066 17.125C18.5566 17.625 18.4316 18 18.0566 18.375C17.6816 18.75 17.3066 19 16.8066 19.125C16.4316 19.25 15.9316 19.375 14.9316 19.5C13.8066 19.5 13.5566 19.5 10.6816 19.5C7.80664 19.5 7.55664 19.5 6.43164 19.5C5.43164 19.5 4.93164 19.25 4.55664 19.125C4.05664 18.875 3.68164 18.75 3.30664 18.375C2.93164 18 2.68164 17.625 2.55664 17.125C2.43164 16.75 2.30664 16.25 2.18164 15.25C2.18164 14.125 2.18164 13.875 2.18164 11C2.18164 8.125 2.18164 7.875 2.18164 6.75C2.18164 5.75 2.43164 5.25 2.55664 4.875C2.80664 4.375 2.93164 4 3.30664 3.625C3.68164 3.25 4.05664 3 4.55664 2.875C4.93164 2.75 5.43164 2.625 6.43164 2.5C7.55664 2.5 7.93164 2.5 10.6816 2.5ZM10.6816 0.625C7.80664 0.625 7.55664 0.625 6.43164 0.625C5.30664 0.625 4.55664 0.875001 3.93164 1.125C3.30664 1.375 2.68164 1.75 2.05664 2.375C1.43164 3 1.18164 3.5 0.806641 4.25C0.556641 4.875 0.431641 5.625 0.306641 6.75C0.306641 7.875 0.306641 8.25 0.306641 11C0.306641 13.875 0.306641 14.125 0.306641 15.25C0.306641 16.375 0.556641 17.125 0.806641 17.75C1.05664 18.375 1.43164 19 2.05664 19.625C2.68164 20.25 3.18164 20.5 3.93164 20.875C4.55664 21.125 5.30664 21.25 6.43164 21.375C7.55664 21.375 7.93164 21.375 10.6816 21.375C13.4316 21.375 13.8066 21.375 14.9316 21.375C16.0566 21.375 16.8066 21.125 17.4316 20.875C18.0566 20.625 18.6816 20.25 19.3066 19.625C19.9316 19 20.1816 18.5 20.5566 17.75C20.8066 17.125 20.9316 16.375 21.0566 15.25C21.0566 14.125 21.0566 13.75 21.0566 11C21.0566 8.25 21.0566 7.875 21.0566 6.75C21.0566 5.625 20.8066 4.875 20.5566 4.25C20.3066 3.625 19.9316 3 19.3066 2.375C18.6816 1.75 18.1816 1.5 17.4316 1.125C16.8066 0.875001 16.0566 0.75 14.9316 0.625C13.8066 0.625 13.5566 0.625 10.6816 0.625Z" fill="white"/>
<path d="M10.6816 5.625C7.68164 5.625 5.30664 8 5.30664 11C5.30664 14 7.68164 16.375 10.6816 16.375C13.6816 16.375 16.0566 14 16.0566 11C16.0566 8 13.6816 5.625 10.6816 5.625ZM10.6816 14.5C8.80664 14.5 7.18164 13 7.18164 11C7.18164 9.125 8.68164 7.5 10.6816 7.5C12.5566 7.5 14.1816 9 14.1816 11C14.1816 12.875 12.5566 14.5 10.6816 14.5Z" fill="white"/>
<path d="M16.1816 6.75C16.872 6.75 17.4316 6.19036 17.4316 5.5C17.4316 4.80964 16.872 4.25 16.1816 4.25C15.4913 4.25 14.9316 4.80964 14.9316 5.5C14.9316 6.19036 15.4913 6.75 16.1816 6.75Z" fill="white"/>
</svg>
