<svg width="38" height="24" viewBox="0 0 38 24" fill="none" xmlns="http://www.w3.org/2000/svg">
<path fill-rule="evenodd" clip-rule="evenodd" d="M19.25 20.8211C17.2641 22.5349 14.6879 23.5695 11.873 23.5695C5.59184 23.5695 0.5 18.4186 0.5 12.0645C0.5 5.71052 5.59184 0.55957 11.873 0.55957C14.6879 0.55957 17.2641 1.59416 19.25 3.30796C21.236 1.59416 23.8121 0.55957 26.6271 0.55957C32.9082 0.55957 38 5.71052 38 12.0645C38 18.4186 32.9082 23.5695 26.6271 23.5695C23.8121 23.5695 21.236 22.5349 19.25 20.8211Z" fill="#ED0006"/>
<path fill-rule="evenodd" clip-rule="evenodd" d="M19.25 20.8211C21.6953 18.7109 23.2459 15.5709 23.2459 12.0645C23.2459 8.55819 21.6953 5.41818 19.25 3.30796C21.236 1.59416 23.8121 0.55957 26.6271 0.55957C32.9082 0.55957 38 5.71052 38 12.0645C38 18.4186 32.9082 23.5695 26.6271 23.5695C23.8121 23.5695 21.236 22.5349 19.25 20.8211Z" fill="#F9A000"/>
<path fill-rule="evenodd" clip-rule="evenodd" d="M19.2502 3.30762C21.6955 5.41784 23.2461 8.55783 23.2461 12.0642C23.2461 15.5705 21.6955 18.7105 19.2502 20.8207C16.8049 18.7105 15.2544 15.5705 15.2544 12.0642C15.2544 8.55783 16.8049 5.41784 19.2502 3.30762Z" fill="#FF5E00"/>
</svg>
