<svg width="45" height="21" viewBox="0 0 45 21" fill="none" xmlns="http://www.w3.org/2000/svg">
<path fill-rule="evenodd" clip-rule="evenodd" d="M0 1.57775C0 0.834539 0.630482 0.226562 1.4012 0.226562H43.5986C44.3694 0.226562 44.9999 0.834539 44.9999 1.57775V18.8753C44.9999 19.6186 44.3694 20.2266 43.5986 20.2266H1.4012C0.630482 20.2266 0 19.6186 0 18.8753V1.57775Z" fill="#F0A929"/>
<path fill-rule="evenodd" clip-rule="evenodd" d="M0 2.19043H44.9999V18.2629H0V2.19043Z" fill="white"/>
<path fill-rule="evenodd" clip-rule="evenodd" d="M38.1449 6.36426C36.086 6.36426 34.4077 7.9829 34.4077 9.96825C34.4077 11.9529 36.086 13.5717 38.1449 13.5717C40.2033 13.5717 41.8817 11.9529 41.8817 9.96825C41.8817 7.9829 40.2033 6.36426 38.1449 6.36426Z" fill="#E21C2A"/>
<path fill-rule="evenodd" clip-rule="evenodd" d="M7.32498 6.36426C5.26596 6.36426 3.5874 7.9829 3.5874 9.96825C3.5874 11.9529 5.26596 13.5717 7.32498 13.5717C9.38307 13.5717 11.0617 11.9529 11.0617 9.96825C11.0617 7.9829 9.38307 6.36426 7.32498 6.36426Z" fill="#E21C2A"/>
<path fill-rule="evenodd" clip-rule="evenodd" d="M37.8429 3.1934C34.3834 3.11675 32.7569 5.25592 30.3964 7.89437L28.1696 10.3829L31.6958 14.4535C32.5358 15.7043 30.9325 16.9456 29.9377 15.8011L26.6776 12.0509L23.5008 15.6022C22.4891 16.7327 20.904 15.4698 21.762 14.2308L25.2107 10.3636L22.9513 7.76448L24.4047 6.02874L26.7025 8.69043L28.6832 6.46864C29.6551 5.37928 30.6463 3.9357 31.9309 3.1934H0V17.261H7.46556C10.9256 17.261 12.4962 15.2661 14.7928 12.5761L16.9597 10.038L13.3365 6.04737C12.4675 4.81551 14.0404 3.53927 15.0624 4.66119L18.4109 8.33808L21.5029 4.71687C22.4869 3.5637 24.1016 4.79159 23.2736 6.04948L19.9181 9.99274L22.2392 12.541L20.7768 14.211L18.4664 11.6983L16.5396 13.963C15.5939 15.0737 14.6366 16.4903 13.3698 17.261H44.9999V3.1934H37.8429ZM13.237 9.96905C13.237 13.1051 10.5852 15.6626 7.33322 15.6626C4.0804 15.6626 1.4286 13.1051 1.4286 9.96905C1.4286 6.83246 4.0804 4.27526 7.33322 4.27526C10.5852 4.27526 13.237 6.83246 13.237 9.96905ZM38.1362 15.6626C34.884 15.6626 32.2316 13.1051 32.2316 9.96905C32.2316 6.83246 34.884 4.27526 38.1362 4.27526C41.3886 4.27526 44.0404 6.83246 44.0404 9.96905C44.0404 13.1051 41.3886 15.6626 38.1362 15.6626Z" fill="#E21C2A"/>
</svg>
