<?xml version="1.0" standalone="no"?>
<!DOCTYPE svg PUBLIC "-//W3C//DTD SVG 20010904//EN"
 "http://www.w3.org/TR/2001/REC-SVG-20010904/DTD/svg10.dtd">
<svg version="1.0" xmlns="http://www.w3.org/2000/svg"
 width="366.000000pt" height="120.000000pt" viewBox="0 0 366.000000 120.000000"
 preserveAspectRatio="xMidYMid meet">

<g transform="translate(0.000000,120.000000) scale(0.100000,-0.100000)"
fill="#000000" stroke="none">
<path d="M2540 1183 c-39 -14 -40 -25 -40 -433 0 -430 1 -440 55 -440 55 0 55
-4 55 440 l0 409 -22 15 c-24 17 -25 17 -48 9z"/>
<path d="M1702 1114 c-27 -18 -29 -55 -4 -77 24 -22 55 -21 75 1 22 25 21 48
-3 72 -24 24 -38 25 -68 4z"/>
<path d="M218 877 c-54 -16 -126 -68 -158 -114 -46 -68 -49 -90 -50 -415 l0
-308 25 -16 c30 -20 63 -10 76 23 5 13 9 90 9 169 0 80 3 144 8 142 76 -39
110 -50 165 -50 125 -2 224 58 277 167 49 100 26 241 -53 323 -72 76 -195 108
-299 79z m168 -117 c82 -40 122 -140 90 -225 -59 -152 -265 -162 -341 -15 -26
50 -17 137 19 185 54 71 151 93 232 55z"/>
<path d="M835 870 c-110 -43 -175 -133 -183 -254 -8 -136 58 -238 184 -286 75
-28 168 -25 235 8 55 27 55 27 62 2 6 -23 53 -37 76 -23 13 9 16 37 19 173 3
202 -7 240 -82 315 -83 83 -200 107 -311 65z m212 -117 c13 -9 35 -36 50 -60
35 -60 31 -153 -9 -205 -72 -95 -229 -91 -297 7 -60 88 -36 202 56 262 52 34
144 32 200 -4z"/>
<path d="M1479 874 c-62 -19 -132 -83 -165 -149 -25 -52 -26 -63 -28 -218 -1
-179 4 -197 54 -197 15 0 32 6 38 13 6 6 12 81 14 167 3 149 4 157 31 203 30
51 75 80 140 90 22 3 45 11 53 18 17 14 18 61 2 77 -16 16 -82 14 -139 -4z"/>
<path d="M1696 874 c-24 -23 -24 -525 0 -548 21 -21 57 -20 77 2 15 16 17 50
17 275 0 277 -2 287 -55 287 -13 0 -31 -7 -39 -16z"/>
<path d="M2045 865 c-77 -31 -144 -101 -168 -175 -14 -44 -17 -97 -17 -351 l0
-299 26 -17 c24 -15 29 -15 53 -2 l26 15 3 162 c1 89 4 162 7 162 2 0 22 -9
43 -20 116 -60 267 -36 354 57 54 58 73 110 73 203 0 102 -19 145 -94 212 -87
78 -197 98 -306 53z m188 -101 c76 -38 111 -100 105 -180 -13 -158 -189 -225
-308 -118 -67 61 -78 155 -27 233 47 71 157 102 230 65z"/>
<path d="M3190 871 c-5 -11 -10 -52 -10 -91 0 -58 4 -76 23 -101 29 -40 30
-111 2 -163 l-20 -37 26 -47 c31 -57 103 -108 164 -118 40 -6 100 3 150 22 16
6 17 0 13 -64 -4 -80 -25 -113 -87 -139 -56 -24 -130 4 -161 61 -28 54 -100
37 -100 -24 0 -36 59 -103 113 -129 62 -30 153 -29 215 3 58 29 85 58 111 116
19 42 21 64 21 372 0 354 -1 358 -54 358 -49 0 -54 -21 -58 -217 l-3 -183 -32
-31 c-24 -25 -42 -33 -82 -37 -49 -4 -53 -3 -91 36 l-40 40 0 174 c0 141 -3
178 -16 196 -20 28 -69 30 -84 3z"/>
<path d="M2670 835 c-16 -42 -12 -131 6 -149 20 -21 64 -21 64 -1 0 8 -5 15
-10 15 -6 0 -9 10 -7 23 2 12 2 16 0 10 -11 -33 -23 -7 -23 51 0 70 -14 93
-30 51z"/>
<path d="M2990 601 c0 -11 -14 -31 -30 -45 -26 -21 -28 -26 -14 -34 9 -5 16
-13 16 -18 1 -20 27 -46 39 -39 9 6 10 1 5 -19 -6 -24 -5 -25 13 -14 46 28 39
145 -10 176 -16 10 -19 9 -19 -7z"/>
<path d="M2675 520 c-14 -15 -17 -32 -13 -91 3 -65 6 -74 36 -100 42 -37 107
-40 155 -6 41 28 46 54 12 69 -25 11 -37 58 -15 58 6 0 10 6 10 14 0 12 -6 12
-29 3 -35 -13 -61 -4 -61 22 0 47 -62 67 -95 31z"/>
<path d="M2910 370 c-9 -6 -10 -10 -3 -10 6 0 15 5 18 10 8 12 4 12 -15 0z"/>
</g>
</svg>
