<?xml version="1.0" standalone="no"?>
<!DOCTYPE svg PUBLIC "-//W3C//DTD SVG 20010904//EN"
 "http://www.w3.org/TR/2001/REC-SVG-20010904/DTD/svg10.dtd">
<svg version="1.0" xmlns="http://www.w3.org/2000/svg"
 width="1249.000000pt" height="293.000000pt" viewBox="0 0 1249.000000 293.000000"
 preserveAspectRatio="xMidYMid meet">

<g transform="translate(0.000000,293.000000) scale(0.100000,-0.100000)"
fill="#000000" stroke="none">
<path d="M9760 2787 l0 -147 180 0 180 0 0 63 c0 80 -13 123 -47 160 -45 47
-74 56 -197 63 l-116 7 0 -146z"/>
<path d="M11505 2918 c-3 -8 -4 -370 -3 -804 3 -779 3 -790 24 -834 50 -105
93 -121 347 -128 l197 -5 0 137 0 136 -70 0 c-74 0 -123 17 -134 45 -3 9 -6
194 -6 411 l0 394 34 0 c46 0 85 16 120 48 39 37 56 81 56 147 l0 55 -104 0
-105 0 -3 143 c-3 136 -4 146 -30 184 -38 57 -79 73 -208 80 -91 5 -110 3
-115 -9z"/>
<path d="M7985 2529 c-110 -27 -254 -100 -316 -160 -32 -31 -63 -75 -85 -123
-57 -120 -64 -223 -64 -968 l0 -628 110 0 c126 0 171 15 212 72 23 32 23 38
26 316 2 155 6 282 10 282 4 -1 19 -18 34 -40 63 -90 172 -140 324 -148 199
-9 339 63 453 234 194 289 160 821 -65 1034 -61 57 -162 108 -265 134 -92 23
-270 20 -374 -5z m314 -315 c61 -32 102 -86 133 -172 17 -47 21 -82 22 -197 1
-122 -2 -149 -22 -207 -53 -154 -185 -233 -331 -198 -91 22 -174 104 -201 200
-36 125 -31 322 11 435 25 67 92 137 151 159 67 25 172 16 237 -20z"/>
<path d="M10652 2535 c-148 -34 -289 -114 -346 -198 -86 -125 -96 -207 -96
-753 l0 -434 180 0 179 0 3 478 c3 461 4 478 24 517 64 124 250 160 366 72 85
-65 82 -47 88 -527 4 -310 8 -431 17 -446 20 -35 71 -73 113 -84 22 -6 82 -9
132 -8 l93 3 -1 475 c0 457 -1 478 -22 555 -26 94 -72 174 -125 220 -44 38
-157 95 -237 120 -76 23 -284 29 -368 10z"/>
<path d="M9422 2509 c-81 -14 -200 -56 -262 -94 -116 -70 -212 -203 -256 -351
-15 -51 -18 -117 -21 -486 l-4 -428 180 0 181 0 0 385 c0 235 4 403 11 434 15
73 59 128 126 158 45 21 76 26 164 31 l109 5 0 178 0 179 -87 -1 c-49 -1 -112
-5 -141 -10z"/>
<path d="M9760 1835 l0 -685 178 2 177 3 3 600 c2 405 -1 612 -8 637 -6 20
-22 51 -36 68 -44 52 -71 60 -199 60 l-115 0 0 -685z"/>
<path d="M5842 2473 c-7 -2 -17 -14 -23 -26 -9 -19 -8 -20 3 -7 8 8 20 21 28
28 15 13 13 14 -8 5z"/>
<path d="M1955 2010 c10 -11 20 -20 23 -20 3 0 -3 9 -13 20 -10 11 -20 20 -23
20 -3 0 3 -9 13 -20z"/>
<path d="M964 1978 l-29 -33 33 29 c30 28 37 36 29 36 -2 0 -16 -15 -33 -32z"/>
<path d="M2050 1915 c13 -14 26 -25 28 -25 3 0 -5 11 -18 25 -13 14 -26 25
-28 25 -3 0 5 -11 18 -25z"/>
<path d="M894 1898 l-19 -23 23 19 c21 18 27 26 19 26 -2 0 -12 -10 -23 -22z"/>
<path d="M2130 1801 c0 -6 4 -13 10 -16 6 -3 7 1 4 9 -7 18 -14 21 -14 7z"/>
<path d="M951 1769 c-50 -50 -61 -80 -14 -38 23 21 51 40 63 44 54 17 124 -23
149 -85 7 -18 10 -20 10 -7 1 27 -25 72 -55 96 -19 15 -41 21 -75 21 -40 0
-52 -5 -78 -31z"/>
<path d="M1410 1771 c-58 -24 -129 -85 -146 -127 -8 -19 -14 -54 -14 -79 0
-83 61 -123 189 -125 39 0 43 -2 38 -21 -3 -13 -1 -19 6 -16 7 2 12 15 12 28
0 23 -3 24 -82 29 -68 5 -86 10 -107 29 -52 49 -43 140 18 203 31 32 59 48
146 86 45 19 -10 13 -60 -7z"/>
<path d="M1790 1753 c-25 -9 -51 -36 -67 -68 l-14 -30 28 31 c15 18 38 37 50
43 54 27 125 -1 170 -68 13 -19 23 -28 23 -20 0 27 -52 91 -86 105 -34 14 -77
17 -104 7z"/>
<path d="M992 1660 c-47 -50 -50 -168 -6 -196 31 -21 57 -6 78 46 42 105 -11
215 -72 150z m24 -41 c-3 -17 -6 -38 -6 -45 0 -8 -9 -14 -19 -14 -16 0 -18 5
-11 34 9 41 18 56 32 56 6 0 8 -12 4 -31z"/>
<path d="M665 1630 c10 -11 20 -20 23 -20 3 0 -3 9 -13 20 -10 11 -20 20 -23
20 -3 0 3 -9 13 -20z"/>
<path d="M1806 1627 c-45 -45 -58 -176 -21 -207 66 -55 143 129 84 204 -25 32
-34 32 -63 3z m29 -30 c-4 -13 -7 -32 -9 -43 -2 -10 -10 -20 -19 -22 -20 -4
-23 25 -5 63 15 32 41 34 33 2z"/>
<path d="M1020 1345 c-8 -15 -37 -47 -63 -71 -51 -45 -48 -60 5 -23 16 12 30
20 32 18 2 -2 22 -33 46 -69 66 -98 156 -182 242 -225 167 -82 365 -49 513 86
48 44 125 145 138 181 3 9 14 4 36 -16 42 -40 50 -26 12 21 -16 21 -37 55 -46
77 -19 45 -32 41 -16 -5 8 -24 8 -34 0 -40 -58 -36 -593 -47 -774 -16 -144 25
-138 22 -119 58 8 17 14 35 12 41 -2 5 -10 -2 -18 -17z m137 -107 c154 -28
481 -30 642 -5 57 9 106 16 107 14 9 -8 -71 -109 -125 -159 -211 -196 -476
-172 -673 60 -42 49 -84 112 -75 112 3 0 58 -10 124 -22z"/>
<path d="M12102 1008 c3 -7 14 -14 26 -16 20 -3 22 -10 24 -110 2 -63 7 -107
13 -107 6 0 11 44 13 107 2 98 4 107 23 110 45 7 20 23 -40 26 -48 2 -62 0
-59 -10z"/>
<path d="M12250 894 c0 -89 3 -125 11 -122 8 3 11 36 10 101 -1 53 1 97 6 97
4 0 25 -46 46 -101 21 -55 43 -99 49 -97 6 2 27 45 47 95 20 50 40 95 44 99 4
4 7 -38 7 -94 0 -61 4 -102 10 -102 6 0 10 48 10 125 0 112 -2 125 -18 125
-12 0 -27 -26 -56 -100 -21 -55 -42 -100 -45 -100 -3 0 -24 45 -45 100 -30 77
-43 100 -57 100 -18 0 -19 -10 -19 -126z"/>
<path d="M1994 898 l-29 -33 33 29 c30 28 37 36 29 36 -2 0 -16 -15 -33 -32z"/>
<path d="M8313 786 c-107 -35 -194 -114 -246 -224 -29 -60 -32 -76 -31 -157 0
-69 6 -104 23 -148 129 -330 581 -345 732 -24 21 45 30 81 31 127 l3 65 -240
0 -240 0 -3 -62 -3 -63 151 0 c167 0 170 -1 120 -62 -59 -72 -178 -100 -268
-62 -112 46 -173 177 -138 296 49 167 246 232 374 122 39 -33 43 -34 126 -34
59 0 86 4 86 12 0 18 -56 100 -92 135 -18 17 -58 44 -88 59 -47 24 -69 29
-155 31 -65 2 -115 -2 -142 -11z"/>
<path d="M11543 782 c-101 -36 -180 -108 -231 -212 -24 -50 -27 -66 -27 -165
0 -103 2 -114 32 -177 40 -85 106 -151 191 -191 61 -29 75 -32 167 -32 93 0
105 2 167 33 129 63 216 187 226 322 l5 70 -242 0 -241 0 0 -65 0 -65 150 0
c83 0 150 -4 150 -8 0 -20 -77 -96 -114 -113 -54 -24 -148 -24 -201 0 -46 20
-101 79 -121 127 -20 48 -17 151 5 199 35 79 107 132 189 142 64 7 122 -10
172 -52 41 -34 45 -35 126 -35 96 0 99 3 56 71 -37 58 -103 116 -161 142 -66
30 -226 35 -298 9z"/>
<path d="M8917 412 c-81 -207 -147 -381 -147 -385 0 -4 35 -7 77 -5 l77 3 27
75 27 75 143 0 144 0 30 -77 30 -78 81 0 81 0 -143 376 c-80 207 -147 380
-150 385 -3 5 -33 9 -68 9 l-63 0 -146 -378z m253 33 c22 -59 40 -112 40 -116
0 -5 -40 -9 -90 -9 l-89 0 25 68 c14 37 35 91 46 120 11 29 22 52 24 50 2 -3
22 -53 44 -113z"/>
<path d="M9530 405 l0 -385 76 0 77 0 -5 270 c-3 149 -2 267 2 263 3 -4 27
-71 54 -148 26 -77 66 -194 89 -260 l42 -120 60 -3 60 -3 94 271 c51 148 96
270 99 270 3 0 2 -121 -2 -270 l-7 -270 75 0 76 0 0 385 0 385 -99 0 -98 0
-98 -281 c-68 -194 -101 -276 -106 -263 -3 11 -45 129 -92 264 -47 135 -88
253 -92 263 -6 15 -21 17 -106 17 l-99 0 0 -385z"/>
<path d="M10400 405 l0 -385 75 0 75 0 0 385 0 385 -75 0 -75 0 0 -385z"/>
<path d="M10622 403 l3 -388 73 -3 72 -3 0 253 c0 214 2 250 14 238 7 -8 76
-114 151 -235 76 -121 144 -227 151 -235 9 -11 29 -14 78 -12 l66 4 0 384 0
384 -70 0 -70 0 -2 -247 -3 -246 -160 246 -159 247 -73 0 -73 0 2 -387z"/>
<path d="M1265 560 c-3 -5 -1 -10 4 -10 6 0 11 5 11 10 0 6 -2 10 -4 10 -3 0
-8 -4 -11 -10z"/>
</g>
</svg>
