<svg width="42" height="14" viewBox="0 0 42 14" fill="none" xmlns="http://www.w3.org/2000/svg">
<path fill-rule="evenodd" clip-rule="evenodd" d="M10.7088 13.324H7.17489L4.52492 3.21418C4.39914 2.74913 4.13208 2.338 3.73924 2.14423C2.75885 1.65727 1.67853 1.26973 0.5 1.07428V0.685048H6.19279C6.97847 0.685048 7.56774 1.26973 7.66595 1.94877L9.0409 9.2413L12.573 0.685048H16.0087L10.7088 13.324ZM17.9729 13.324H14.6355L17.3837 0.685048H20.7211L17.9729 13.324ZM25.0389 4.18641C25.1372 3.50568 25.7264 3.11646 26.4139 3.11646C27.4942 3.01873 28.671 3.21419 29.6531 3.69946L30.2424 0.978238C29.2603 0.589011 28.18 0.393555 27.1996 0.393555C23.9604 0.393555 21.6033 2.14423 21.6033 4.57395C21.6033 6.42236 23.2729 7.3929 24.4514 7.97758C25.7264 8.56058 26.2175 8.94981 26.1193 9.5328C26.1193 10.4073 25.1372 10.7965 24.1568 10.7965C22.9782 10.7965 21.7997 10.505 20.7211 10.0181L20.1319 12.741C21.3104 13.2262 22.5854 13.4217 23.7639 13.4217C27.396 13.5177 29.6531 11.7688 29.6531 9.14358C29.6531 5.83768 25.0389 5.64391 25.0389 4.18641ZM41.3333 13.324L38.6834 0.685048H35.837C35.2477 0.685048 34.6584 1.07428 34.462 1.65727L29.5549 13.324H32.9906L33.6763 11.4772H37.8977L38.2905 13.324H41.3333ZM36.328 4.08869L37.3084 8.85209H34.5602L36.328 4.08869Z" fill="#172B85"/>
</svg>
